G04 #@! TF.GenerationSoftware,KiCad,Pcbnew,9.0.7-1.fc43*
G04 #@! TF.CreationDate,2026-02-20T23:12:54+05:30*
G04 #@! TF.ProjectId,7805 voltage regulator,37383035-2076-46f6-9c74-616765207265,rev?*
G04 #@! TF.SameCoordinates,Original*
G04 #@! TF.FileFunction,AssemblyDrawing,Top*
%FSLAX46Y46*%
G04 Gerber Fmt 4.6, Leading zero omitted, Abs format (unit mm)*
G04 Created by KiCad (PCBNEW 9.0.7-1.fc43) date 2026-02-20 23:12:54*
%MOMM*%
%LPD*%
G01*
G04 APERTURE LIST*
%ADD10C,0.150000*%
%ADD11C,0.120000*%
%ADD12C,0.100000*%
G04 APERTURE END LIST*
D10*
X123134819Y-98261904D02*
X122134819Y-98261904D01*
X122134819Y-98261904D02*
X122134819Y-98023809D01*
X122134819Y-98023809D02*
X122182438Y-97880952D01*
X122182438Y-97880952D02*
X122277676Y-97785714D01*
X122277676Y-97785714D02*
X122372914Y-97738095D01*
X122372914Y-97738095D02*
X122563390Y-97690476D01*
X122563390Y-97690476D02*
X122706247Y-97690476D01*
X122706247Y-97690476D02*
X122896723Y-97738095D01*
X122896723Y-97738095D02*
X122991961Y-97785714D01*
X122991961Y-97785714D02*
X123087200Y-97880952D01*
X123087200Y-97880952D02*
X123134819Y-98023809D01*
X123134819Y-98023809D02*
X123134819Y-98261904D01*
X126054819Y-99308094D02*
X125054819Y-99308094D01*
X125054819Y-99308094D02*
X125054819Y-99069999D01*
X125054819Y-99069999D02*
X125102438Y-98927142D01*
X125102438Y-98927142D02*
X125197676Y-98831904D01*
X125197676Y-98831904D02*
X125292914Y-98784285D01*
X125292914Y-98784285D02*
X125483390Y-98736666D01*
X125483390Y-98736666D02*
X125626247Y-98736666D01*
X125626247Y-98736666D02*
X125816723Y-98784285D01*
X125816723Y-98784285D02*
X125911961Y-98831904D01*
X125911961Y-98831904D02*
X126007200Y-98927142D01*
X126007200Y-98927142D02*
X126054819Y-99069999D01*
X126054819Y-99069999D02*
X126054819Y-99308094D01*
X125150057Y-98355713D02*
X125102438Y-98308094D01*
X125102438Y-98308094D02*
X125054819Y-98212856D01*
X125054819Y-98212856D02*
X125054819Y-97974761D01*
X125054819Y-97974761D02*
X125102438Y-97879523D01*
X125102438Y-97879523D02*
X125150057Y-97831904D01*
X125150057Y-97831904D02*
X125245295Y-97784285D01*
X125245295Y-97784285D02*
X125340533Y-97784285D01*
X125340533Y-97784285D02*
X125483390Y-97831904D01*
X125483390Y-97831904D02*
X126054819Y-98403332D01*
X126054819Y-98403332D02*
X126054819Y-97784285D01*
X128254819Y-91911904D02*
X127254819Y-91911904D01*
X128254819Y-91340476D02*
X127683390Y-91769047D01*
X127254819Y-91340476D02*
X127826247Y-91911904D01*
X114387142Y-109414819D02*
X113910952Y-109414819D01*
X113910952Y-109414819D02*
X113910952Y-108414819D01*
X114720476Y-108891009D02*
X115053809Y-108891009D01*
X115196666Y-109414819D02*
X114720476Y-109414819D01*
X114720476Y-109414819D02*
X114720476Y-108414819D01*
X114720476Y-108414819D02*
X115196666Y-108414819D01*
X115625238Y-109414819D02*
X115625238Y-108414819D01*
X115625238Y-108414819D02*
X115863333Y-108414819D01*
X115863333Y-108414819D02*
X116006190Y-108462438D01*
X116006190Y-108462438D02*
X116101428Y-108557676D01*
X116101428Y-108557676D02*
X116149047Y-108652914D01*
X116149047Y-108652914D02*
X116196666Y-108843390D01*
X116196666Y-108843390D02*
X116196666Y-108986247D01*
X116196666Y-108986247D02*
X116149047Y-109176723D01*
X116149047Y-109176723D02*
X116101428Y-109271961D01*
X116101428Y-109271961D02*
X116006190Y-109367200D01*
X116006190Y-109367200D02*
X115863333Y-109414819D01*
X115863333Y-109414819D02*
X115625238Y-109414819D01*
D11*
X114439524Y-106363855D02*
X114439524Y-105563855D01*
X114439524Y-105563855D02*
X114630000Y-105563855D01*
X114630000Y-105563855D02*
X114744286Y-105601950D01*
X114744286Y-105601950D02*
X114820476Y-105678140D01*
X114820476Y-105678140D02*
X114858571Y-105754331D01*
X114858571Y-105754331D02*
X114896667Y-105906712D01*
X114896667Y-105906712D02*
X114896667Y-106020998D01*
X114896667Y-106020998D02*
X114858571Y-106173379D01*
X114858571Y-106173379D02*
X114820476Y-106249569D01*
X114820476Y-106249569D02*
X114744286Y-106325760D01*
X114744286Y-106325760D02*
X114630000Y-106363855D01*
X114630000Y-106363855D02*
X114439524Y-106363855D01*
X115658571Y-106363855D02*
X115201428Y-106363855D01*
X115430000Y-106363855D02*
X115430000Y-105563855D01*
X115430000Y-105563855D02*
X115353809Y-105678140D01*
X115353809Y-105678140D02*
X115277619Y-105754331D01*
X115277619Y-105754331D02*
X115201428Y-105792426D01*
D10*
X98859580Y-102955239D02*
X98907200Y-103002858D01*
X98907200Y-103002858D02*
X98954819Y-103145715D01*
X98954819Y-103145715D02*
X98954819Y-103240953D01*
X98954819Y-103240953D02*
X98907200Y-103383810D01*
X98907200Y-103383810D02*
X98811961Y-103479048D01*
X98811961Y-103479048D02*
X98716723Y-103526667D01*
X98716723Y-103526667D02*
X98526247Y-103574286D01*
X98526247Y-103574286D02*
X98383390Y-103574286D01*
X98383390Y-103574286D02*
X98192914Y-103526667D01*
X98192914Y-103526667D02*
X98097676Y-103479048D01*
X98097676Y-103479048D02*
X98002438Y-103383810D01*
X98002438Y-103383810D02*
X97954819Y-103240953D01*
X97954819Y-103240953D02*
X97954819Y-103145715D01*
X97954819Y-103145715D02*
X98002438Y-103002858D01*
X98002438Y-103002858D02*
X98050057Y-102955239D01*
X98954819Y-102383810D02*
X98907200Y-102479048D01*
X98907200Y-102479048D02*
X98859580Y-102526667D01*
X98859580Y-102526667D02*
X98764342Y-102574286D01*
X98764342Y-102574286D02*
X98478628Y-102574286D01*
X98478628Y-102574286D02*
X98383390Y-102526667D01*
X98383390Y-102526667D02*
X98335771Y-102479048D01*
X98335771Y-102479048D02*
X98288152Y-102383810D01*
X98288152Y-102383810D02*
X98288152Y-102240953D01*
X98288152Y-102240953D02*
X98335771Y-102145715D01*
X98335771Y-102145715D02*
X98383390Y-102098096D01*
X98383390Y-102098096D02*
X98478628Y-102050477D01*
X98478628Y-102050477D02*
X98764342Y-102050477D01*
X98764342Y-102050477D02*
X98859580Y-102098096D01*
X98859580Y-102098096D02*
X98907200Y-102145715D01*
X98907200Y-102145715D02*
X98954819Y-102240953D01*
X98954819Y-102240953D02*
X98954819Y-102383810D01*
X98288152Y-101621905D02*
X98954819Y-101621905D01*
X98383390Y-101621905D02*
X98335771Y-101574286D01*
X98335771Y-101574286D02*
X98288152Y-101479048D01*
X98288152Y-101479048D02*
X98288152Y-101336191D01*
X98288152Y-101336191D02*
X98335771Y-101240953D01*
X98335771Y-101240953D02*
X98431009Y-101193334D01*
X98431009Y-101193334D02*
X98954819Y-101193334D01*
X98288152Y-100717143D02*
X98954819Y-100717143D01*
X98383390Y-100717143D02*
X98335771Y-100669524D01*
X98335771Y-100669524D02*
X98288152Y-100574286D01*
X98288152Y-100574286D02*
X98288152Y-100431429D01*
X98288152Y-100431429D02*
X98335771Y-100336191D01*
X98335771Y-100336191D02*
X98431009Y-100288572D01*
X98431009Y-100288572D02*
X98954819Y-100288572D01*
X99050057Y-100050477D02*
X99050057Y-99288572D01*
X97954819Y-98860000D02*
X97954819Y-98764762D01*
X97954819Y-98764762D02*
X98002438Y-98669524D01*
X98002438Y-98669524D02*
X98050057Y-98621905D01*
X98050057Y-98621905D02*
X98145295Y-98574286D01*
X98145295Y-98574286D02*
X98335771Y-98526667D01*
X98335771Y-98526667D02*
X98573866Y-98526667D01*
X98573866Y-98526667D02*
X98764342Y-98574286D01*
X98764342Y-98574286D02*
X98859580Y-98621905D01*
X98859580Y-98621905D02*
X98907200Y-98669524D01*
X98907200Y-98669524D02*
X98954819Y-98764762D01*
X98954819Y-98764762D02*
X98954819Y-98860000D01*
X98954819Y-98860000D02*
X98907200Y-98955238D01*
X98907200Y-98955238D02*
X98859580Y-99002857D01*
X98859580Y-99002857D02*
X98764342Y-99050476D01*
X98764342Y-99050476D02*
X98573866Y-99098095D01*
X98573866Y-99098095D02*
X98335771Y-99098095D01*
X98335771Y-99098095D02*
X98145295Y-99050476D01*
X98145295Y-99050476D02*
X98050057Y-99002857D01*
X98050057Y-99002857D02*
X98002438Y-98955238D01*
X98002438Y-98955238D02*
X97954819Y-98860000D01*
X98954819Y-97574286D02*
X98954819Y-98145714D01*
X98954819Y-97860000D02*
X97954819Y-97860000D01*
X97954819Y-97860000D02*
X98097676Y-97955238D01*
X98097676Y-97955238D02*
X98192914Y-98050476D01*
X98192914Y-98050476D02*
X98240533Y-98145714D01*
X98954819Y-97240952D02*
X98288152Y-96717143D01*
X98288152Y-97240952D02*
X98954819Y-96717143D01*
X97954819Y-96145714D02*
X97954819Y-96050476D01*
X97954819Y-96050476D02*
X98002438Y-95955238D01*
X98002438Y-95955238D02*
X98050057Y-95907619D01*
X98050057Y-95907619D02*
X98145295Y-95860000D01*
X98145295Y-95860000D02*
X98335771Y-95812381D01*
X98335771Y-95812381D02*
X98573866Y-95812381D01*
X98573866Y-95812381D02*
X98764342Y-95860000D01*
X98764342Y-95860000D02*
X98859580Y-95907619D01*
X98859580Y-95907619D02*
X98907200Y-95955238D01*
X98907200Y-95955238D02*
X98954819Y-96050476D01*
X98954819Y-96050476D02*
X98954819Y-96145714D01*
X98954819Y-96145714D02*
X98907200Y-96240952D01*
X98907200Y-96240952D02*
X98859580Y-96288571D01*
X98859580Y-96288571D02*
X98764342Y-96336190D01*
X98764342Y-96336190D02*
X98573866Y-96383809D01*
X98573866Y-96383809D02*
X98335771Y-96383809D01*
X98335771Y-96383809D02*
X98145295Y-96336190D01*
X98145295Y-96336190D02*
X98050057Y-96288571D01*
X98050057Y-96288571D02*
X98002438Y-96240952D01*
X98002438Y-96240952D02*
X97954819Y-96145714D01*
X98050057Y-95431428D02*
X98002438Y-95383809D01*
X98002438Y-95383809D02*
X97954819Y-95288571D01*
X97954819Y-95288571D02*
X97954819Y-95050476D01*
X97954819Y-95050476D02*
X98002438Y-94955238D01*
X98002438Y-94955238D02*
X98050057Y-94907619D01*
X98050057Y-94907619D02*
X98145295Y-94860000D01*
X98145295Y-94860000D02*
X98240533Y-94860000D01*
X98240533Y-94860000D02*
X98383390Y-94907619D01*
X98383390Y-94907619D02*
X98954819Y-95479047D01*
X98954819Y-95479047D02*
X98954819Y-94860000D01*
X99050057Y-94669524D02*
X99050057Y-93907619D01*
X98907200Y-93717142D02*
X98954819Y-93574285D01*
X98954819Y-93574285D02*
X98954819Y-93336190D01*
X98954819Y-93336190D02*
X98907200Y-93240952D01*
X98907200Y-93240952D02*
X98859580Y-93193333D01*
X98859580Y-93193333D02*
X98764342Y-93145714D01*
X98764342Y-93145714D02*
X98669104Y-93145714D01*
X98669104Y-93145714D02*
X98573866Y-93193333D01*
X98573866Y-93193333D02*
X98526247Y-93240952D01*
X98526247Y-93240952D02*
X98478628Y-93336190D01*
X98478628Y-93336190D02*
X98431009Y-93526666D01*
X98431009Y-93526666D02*
X98383390Y-93621904D01*
X98383390Y-93621904D02*
X98335771Y-93669523D01*
X98335771Y-93669523D02*
X98240533Y-93717142D01*
X98240533Y-93717142D02*
X98145295Y-93717142D01*
X98145295Y-93717142D02*
X98050057Y-93669523D01*
X98050057Y-93669523D02*
X98002438Y-93621904D01*
X98002438Y-93621904D02*
X97954819Y-93526666D01*
X97954819Y-93526666D02*
X97954819Y-93288571D01*
X97954819Y-93288571D02*
X98002438Y-93145714D01*
X98954819Y-92574285D02*
X98907200Y-92669523D01*
X98907200Y-92669523D02*
X98859580Y-92717142D01*
X98859580Y-92717142D02*
X98764342Y-92764761D01*
X98764342Y-92764761D02*
X98478628Y-92764761D01*
X98478628Y-92764761D02*
X98383390Y-92717142D01*
X98383390Y-92717142D02*
X98335771Y-92669523D01*
X98335771Y-92669523D02*
X98288152Y-92574285D01*
X98288152Y-92574285D02*
X98288152Y-92431428D01*
X98288152Y-92431428D02*
X98335771Y-92336190D01*
X98335771Y-92336190D02*
X98383390Y-92288571D01*
X98383390Y-92288571D02*
X98478628Y-92240952D01*
X98478628Y-92240952D02*
X98764342Y-92240952D01*
X98764342Y-92240952D02*
X98859580Y-92288571D01*
X98859580Y-92288571D02*
X98907200Y-92336190D01*
X98907200Y-92336190D02*
X98954819Y-92431428D01*
X98954819Y-92431428D02*
X98954819Y-92574285D01*
X98907200Y-91383809D02*
X98954819Y-91479047D01*
X98954819Y-91479047D02*
X98954819Y-91669523D01*
X98954819Y-91669523D02*
X98907200Y-91764761D01*
X98907200Y-91764761D02*
X98859580Y-91812380D01*
X98859580Y-91812380D02*
X98764342Y-91859999D01*
X98764342Y-91859999D02*
X98478628Y-91859999D01*
X98478628Y-91859999D02*
X98383390Y-91812380D01*
X98383390Y-91812380D02*
X98335771Y-91764761D01*
X98335771Y-91764761D02*
X98288152Y-91669523D01*
X98288152Y-91669523D02*
X98288152Y-91479047D01*
X98288152Y-91479047D02*
X98335771Y-91383809D01*
X98954819Y-90955237D02*
X97954819Y-90955237D01*
X98573866Y-90859999D02*
X98954819Y-90574285D01*
X98288152Y-90574285D02*
X98669104Y-90955237D01*
X98907200Y-89764761D02*
X98954819Y-89859999D01*
X98954819Y-89859999D02*
X98954819Y-90050475D01*
X98954819Y-90050475D02*
X98907200Y-90145713D01*
X98907200Y-90145713D02*
X98811961Y-90193332D01*
X98811961Y-90193332D02*
X98431009Y-90193332D01*
X98431009Y-90193332D02*
X98335771Y-90145713D01*
X98335771Y-90145713D02*
X98288152Y-90050475D01*
X98288152Y-90050475D02*
X98288152Y-89859999D01*
X98288152Y-89859999D02*
X98335771Y-89764761D01*
X98335771Y-89764761D02*
X98431009Y-89717142D01*
X98431009Y-89717142D02*
X98526247Y-89717142D01*
X98526247Y-89717142D02*
X98621485Y-90193332D01*
X98288152Y-89431427D02*
X98288152Y-89050475D01*
X97954819Y-89288570D02*
X98811961Y-89288570D01*
X98811961Y-89288570D02*
X98907200Y-89240951D01*
X98907200Y-89240951D02*
X98954819Y-89145713D01*
X98954819Y-89145713D02*
X98954819Y-89050475D01*
X107054819Y-96693333D02*
X107769104Y-96693333D01*
X107769104Y-96693333D02*
X107911961Y-96740952D01*
X107911961Y-96740952D02*
X108007200Y-96836190D01*
X108007200Y-96836190D02*
X108054819Y-96979047D01*
X108054819Y-96979047D02*
X108054819Y-97074285D01*
X107150057Y-96264761D02*
X107102438Y-96217142D01*
X107102438Y-96217142D02*
X107054819Y-96121904D01*
X107054819Y-96121904D02*
X107054819Y-95883809D01*
X107054819Y-95883809D02*
X107102438Y-95788571D01*
X107102438Y-95788571D02*
X107150057Y-95740952D01*
X107150057Y-95740952D02*
X107245295Y-95693333D01*
X107245295Y-95693333D02*
X107340533Y-95693333D01*
X107340533Y-95693333D02*
X107483390Y-95740952D01*
X107483390Y-95740952D02*
X108054819Y-96312380D01*
X108054819Y-96312380D02*
X108054819Y-95693333D01*
X105989523Y-104084819D02*
X105656190Y-103608628D01*
X105418095Y-104084819D02*
X105418095Y-103084819D01*
X105418095Y-103084819D02*
X105799047Y-103084819D01*
X105799047Y-103084819D02*
X105894285Y-103132438D01*
X105894285Y-103132438D02*
X105941904Y-103180057D01*
X105941904Y-103180057D02*
X105989523Y-103275295D01*
X105989523Y-103275295D02*
X105989523Y-103418152D01*
X105989523Y-103418152D02*
X105941904Y-103513390D01*
X105941904Y-103513390D02*
X105894285Y-103561009D01*
X105894285Y-103561009D02*
X105799047Y-103608628D01*
X105799047Y-103608628D02*
X105418095Y-103608628D01*
X105513333Y-106454819D02*
X105180000Y-105978628D01*
X104941905Y-106454819D02*
X104941905Y-105454819D01*
X104941905Y-105454819D02*
X105322857Y-105454819D01*
X105322857Y-105454819D02*
X105418095Y-105502438D01*
X105418095Y-105502438D02*
X105465714Y-105550057D01*
X105465714Y-105550057D02*
X105513333Y-105645295D01*
X105513333Y-105645295D02*
X105513333Y-105788152D01*
X105513333Y-105788152D02*
X105465714Y-105883390D01*
X105465714Y-105883390D02*
X105418095Y-105931009D01*
X105418095Y-105931009D02*
X105322857Y-105978628D01*
X105322857Y-105978628D02*
X104941905Y-105978628D01*
X106465714Y-106454819D02*
X105894286Y-106454819D01*
X106180000Y-106454819D02*
X106180000Y-105454819D01*
X106180000Y-105454819D02*
X106084762Y-105597676D01*
X106084762Y-105597676D02*
X105989524Y-105692914D01*
X105989524Y-105692914D02*
X105894286Y-105740533D01*
X140659580Y-103855239D02*
X140707200Y-103902858D01*
X140707200Y-103902858D02*
X140754819Y-104045715D01*
X140754819Y-104045715D02*
X140754819Y-104140953D01*
X140754819Y-104140953D02*
X140707200Y-104283810D01*
X140707200Y-104283810D02*
X140611961Y-104379048D01*
X140611961Y-104379048D02*
X140516723Y-104426667D01*
X140516723Y-104426667D02*
X140326247Y-104474286D01*
X140326247Y-104474286D02*
X140183390Y-104474286D01*
X140183390Y-104474286D02*
X139992914Y-104426667D01*
X139992914Y-104426667D02*
X139897676Y-104379048D01*
X139897676Y-104379048D02*
X139802438Y-104283810D01*
X139802438Y-104283810D02*
X139754819Y-104140953D01*
X139754819Y-104140953D02*
X139754819Y-104045715D01*
X139754819Y-104045715D02*
X139802438Y-103902858D01*
X139802438Y-103902858D02*
X139850057Y-103855239D01*
X140754819Y-103283810D02*
X140707200Y-103379048D01*
X140707200Y-103379048D02*
X140659580Y-103426667D01*
X140659580Y-103426667D02*
X140564342Y-103474286D01*
X140564342Y-103474286D02*
X140278628Y-103474286D01*
X140278628Y-103474286D02*
X140183390Y-103426667D01*
X140183390Y-103426667D02*
X140135771Y-103379048D01*
X140135771Y-103379048D02*
X140088152Y-103283810D01*
X140088152Y-103283810D02*
X140088152Y-103140953D01*
X140088152Y-103140953D02*
X140135771Y-103045715D01*
X140135771Y-103045715D02*
X140183390Y-102998096D01*
X140183390Y-102998096D02*
X140278628Y-102950477D01*
X140278628Y-102950477D02*
X140564342Y-102950477D01*
X140564342Y-102950477D02*
X140659580Y-102998096D01*
X140659580Y-102998096D02*
X140707200Y-103045715D01*
X140707200Y-103045715D02*
X140754819Y-103140953D01*
X140754819Y-103140953D02*
X140754819Y-103283810D01*
X140088152Y-102521905D02*
X140754819Y-102521905D01*
X140183390Y-102521905D02*
X140135771Y-102474286D01*
X140135771Y-102474286D02*
X140088152Y-102379048D01*
X140088152Y-102379048D02*
X140088152Y-102236191D01*
X140088152Y-102236191D02*
X140135771Y-102140953D01*
X140135771Y-102140953D02*
X140231009Y-102093334D01*
X140231009Y-102093334D02*
X140754819Y-102093334D01*
X140088152Y-101617143D02*
X140754819Y-101617143D01*
X140183390Y-101617143D02*
X140135771Y-101569524D01*
X140135771Y-101569524D02*
X140088152Y-101474286D01*
X140088152Y-101474286D02*
X140088152Y-101331429D01*
X140088152Y-101331429D02*
X140135771Y-101236191D01*
X140135771Y-101236191D02*
X140231009Y-101188572D01*
X140231009Y-101188572D02*
X140754819Y-101188572D01*
X140850057Y-100950477D02*
X140850057Y-100188572D01*
X139754819Y-99760000D02*
X139754819Y-99664762D01*
X139754819Y-99664762D02*
X139802438Y-99569524D01*
X139802438Y-99569524D02*
X139850057Y-99521905D01*
X139850057Y-99521905D02*
X139945295Y-99474286D01*
X139945295Y-99474286D02*
X140135771Y-99426667D01*
X140135771Y-99426667D02*
X140373866Y-99426667D01*
X140373866Y-99426667D02*
X140564342Y-99474286D01*
X140564342Y-99474286D02*
X140659580Y-99521905D01*
X140659580Y-99521905D02*
X140707200Y-99569524D01*
X140707200Y-99569524D02*
X140754819Y-99664762D01*
X140754819Y-99664762D02*
X140754819Y-99760000D01*
X140754819Y-99760000D02*
X140707200Y-99855238D01*
X140707200Y-99855238D02*
X140659580Y-99902857D01*
X140659580Y-99902857D02*
X140564342Y-99950476D01*
X140564342Y-99950476D02*
X140373866Y-99998095D01*
X140373866Y-99998095D02*
X140135771Y-99998095D01*
X140135771Y-99998095D02*
X139945295Y-99950476D01*
X139945295Y-99950476D02*
X139850057Y-99902857D01*
X139850057Y-99902857D02*
X139802438Y-99855238D01*
X139802438Y-99855238D02*
X139754819Y-99760000D01*
X140754819Y-98474286D02*
X140754819Y-99045714D01*
X140754819Y-98760000D02*
X139754819Y-98760000D01*
X139754819Y-98760000D02*
X139897676Y-98855238D01*
X139897676Y-98855238D02*
X139992914Y-98950476D01*
X139992914Y-98950476D02*
X140040533Y-99045714D01*
X140754819Y-98140952D02*
X140088152Y-97617143D01*
X140088152Y-98140952D02*
X140754819Y-97617143D01*
X139754819Y-97045714D02*
X139754819Y-96950476D01*
X139754819Y-96950476D02*
X139802438Y-96855238D01*
X139802438Y-96855238D02*
X139850057Y-96807619D01*
X139850057Y-96807619D02*
X139945295Y-96760000D01*
X139945295Y-96760000D02*
X140135771Y-96712381D01*
X140135771Y-96712381D02*
X140373866Y-96712381D01*
X140373866Y-96712381D02*
X140564342Y-96760000D01*
X140564342Y-96760000D02*
X140659580Y-96807619D01*
X140659580Y-96807619D02*
X140707200Y-96855238D01*
X140707200Y-96855238D02*
X140754819Y-96950476D01*
X140754819Y-96950476D02*
X140754819Y-97045714D01*
X140754819Y-97045714D02*
X140707200Y-97140952D01*
X140707200Y-97140952D02*
X140659580Y-97188571D01*
X140659580Y-97188571D02*
X140564342Y-97236190D01*
X140564342Y-97236190D02*
X140373866Y-97283809D01*
X140373866Y-97283809D02*
X140135771Y-97283809D01*
X140135771Y-97283809D02*
X139945295Y-97236190D01*
X139945295Y-97236190D02*
X139850057Y-97188571D01*
X139850057Y-97188571D02*
X139802438Y-97140952D01*
X139802438Y-97140952D02*
X139754819Y-97045714D01*
X139850057Y-96331428D02*
X139802438Y-96283809D01*
X139802438Y-96283809D02*
X139754819Y-96188571D01*
X139754819Y-96188571D02*
X139754819Y-95950476D01*
X139754819Y-95950476D02*
X139802438Y-95855238D01*
X139802438Y-95855238D02*
X139850057Y-95807619D01*
X139850057Y-95807619D02*
X139945295Y-95760000D01*
X139945295Y-95760000D02*
X140040533Y-95760000D01*
X140040533Y-95760000D02*
X140183390Y-95807619D01*
X140183390Y-95807619D02*
X140754819Y-96379047D01*
X140754819Y-96379047D02*
X140754819Y-95760000D01*
X140850057Y-95569524D02*
X140850057Y-94807619D01*
X140707200Y-94617142D02*
X140754819Y-94474285D01*
X140754819Y-94474285D02*
X140754819Y-94236190D01*
X140754819Y-94236190D02*
X140707200Y-94140952D01*
X140707200Y-94140952D02*
X140659580Y-94093333D01*
X140659580Y-94093333D02*
X140564342Y-94045714D01*
X140564342Y-94045714D02*
X140469104Y-94045714D01*
X140469104Y-94045714D02*
X140373866Y-94093333D01*
X140373866Y-94093333D02*
X140326247Y-94140952D01*
X140326247Y-94140952D02*
X140278628Y-94236190D01*
X140278628Y-94236190D02*
X140231009Y-94426666D01*
X140231009Y-94426666D02*
X140183390Y-94521904D01*
X140183390Y-94521904D02*
X140135771Y-94569523D01*
X140135771Y-94569523D02*
X140040533Y-94617142D01*
X140040533Y-94617142D02*
X139945295Y-94617142D01*
X139945295Y-94617142D02*
X139850057Y-94569523D01*
X139850057Y-94569523D02*
X139802438Y-94521904D01*
X139802438Y-94521904D02*
X139754819Y-94426666D01*
X139754819Y-94426666D02*
X139754819Y-94188571D01*
X139754819Y-94188571D02*
X139802438Y-94045714D01*
X140754819Y-93474285D02*
X140707200Y-93569523D01*
X140707200Y-93569523D02*
X140659580Y-93617142D01*
X140659580Y-93617142D02*
X140564342Y-93664761D01*
X140564342Y-93664761D02*
X140278628Y-93664761D01*
X140278628Y-93664761D02*
X140183390Y-93617142D01*
X140183390Y-93617142D02*
X140135771Y-93569523D01*
X140135771Y-93569523D02*
X140088152Y-93474285D01*
X140088152Y-93474285D02*
X140088152Y-93331428D01*
X140088152Y-93331428D02*
X140135771Y-93236190D01*
X140135771Y-93236190D02*
X140183390Y-93188571D01*
X140183390Y-93188571D02*
X140278628Y-93140952D01*
X140278628Y-93140952D02*
X140564342Y-93140952D01*
X140564342Y-93140952D02*
X140659580Y-93188571D01*
X140659580Y-93188571D02*
X140707200Y-93236190D01*
X140707200Y-93236190D02*
X140754819Y-93331428D01*
X140754819Y-93331428D02*
X140754819Y-93474285D01*
X140707200Y-92283809D02*
X140754819Y-92379047D01*
X140754819Y-92379047D02*
X140754819Y-92569523D01*
X140754819Y-92569523D02*
X140707200Y-92664761D01*
X140707200Y-92664761D02*
X140659580Y-92712380D01*
X140659580Y-92712380D02*
X140564342Y-92759999D01*
X140564342Y-92759999D02*
X140278628Y-92759999D01*
X140278628Y-92759999D02*
X140183390Y-92712380D01*
X140183390Y-92712380D02*
X140135771Y-92664761D01*
X140135771Y-92664761D02*
X140088152Y-92569523D01*
X140088152Y-92569523D02*
X140088152Y-92379047D01*
X140088152Y-92379047D02*
X140135771Y-92283809D01*
X140754819Y-91855237D02*
X139754819Y-91855237D01*
X140373866Y-91759999D02*
X140754819Y-91474285D01*
X140088152Y-91474285D02*
X140469104Y-91855237D01*
X140707200Y-90664761D02*
X140754819Y-90759999D01*
X140754819Y-90759999D02*
X140754819Y-90950475D01*
X140754819Y-90950475D02*
X140707200Y-91045713D01*
X140707200Y-91045713D02*
X140611961Y-91093332D01*
X140611961Y-91093332D02*
X140231009Y-91093332D01*
X140231009Y-91093332D02*
X140135771Y-91045713D01*
X140135771Y-91045713D02*
X140088152Y-90950475D01*
X140088152Y-90950475D02*
X140088152Y-90759999D01*
X140088152Y-90759999D02*
X140135771Y-90664761D01*
X140135771Y-90664761D02*
X140231009Y-90617142D01*
X140231009Y-90617142D02*
X140326247Y-90617142D01*
X140326247Y-90617142D02*
X140421485Y-91093332D01*
X140088152Y-90331427D02*
X140088152Y-89950475D01*
X139754819Y-90188570D02*
X140611961Y-90188570D01*
X140611961Y-90188570D02*
X140707200Y-90140951D01*
X140707200Y-90140951D02*
X140754819Y-90045713D01*
X140754819Y-90045713D02*
X140754819Y-89950475D01*
X130654819Y-97593333D02*
X131369104Y-97593333D01*
X131369104Y-97593333D02*
X131511961Y-97640952D01*
X131511961Y-97640952D02*
X131607200Y-97736190D01*
X131607200Y-97736190D02*
X131654819Y-97879047D01*
X131654819Y-97879047D02*
X131654819Y-97974285D01*
X131654819Y-96593333D02*
X131654819Y-97164761D01*
X131654819Y-96879047D02*
X130654819Y-96879047D01*
X130654819Y-96879047D02*
X130797676Y-96974285D01*
X130797676Y-96974285D02*
X130892914Y-97069523D01*
X130892914Y-97069523D02*
X130940533Y-97164761D01*
X115050337Y-90204819D02*
X114478909Y-90204819D01*
X114764623Y-90204819D02*
X114764623Y-89204819D01*
X114764623Y-89204819D02*
X114669385Y-89347676D01*
X114669385Y-89347676D02*
X114574147Y-89442914D01*
X114574147Y-89442914D02*
X114478909Y-89490533D01*
X115669385Y-89204819D02*
X115764623Y-89204819D01*
X115764623Y-89204819D02*
X115859861Y-89252438D01*
X115859861Y-89252438D02*
X115907480Y-89300057D01*
X115907480Y-89300057D02*
X115955099Y-89395295D01*
X115955099Y-89395295D02*
X116002718Y-89585771D01*
X116002718Y-89585771D02*
X116002718Y-89823866D01*
X116002718Y-89823866D02*
X115955099Y-90014342D01*
X115955099Y-90014342D02*
X115907480Y-90109580D01*
X115907480Y-90109580D02*
X115859861Y-90157200D01*
X115859861Y-90157200D02*
X115764623Y-90204819D01*
X115764623Y-90204819D02*
X115669385Y-90204819D01*
X115669385Y-90204819D02*
X115574147Y-90157200D01*
X115574147Y-90157200D02*
X115526528Y-90109580D01*
X115526528Y-90109580D02*
X115478909Y-90014342D01*
X115478909Y-90014342D02*
X115431290Y-89823866D01*
X115431290Y-89823866D02*
X115431290Y-89585771D01*
X115431290Y-89585771D02*
X115478909Y-89395295D01*
X115478909Y-89395295D02*
X115526528Y-89300057D01*
X115526528Y-89300057D02*
X115574147Y-89252438D01*
X115574147Y-89252438D02*
X115669385Y-89204819D01*
X116621766Y-89204819D02*
X116717004Y-89204819D01*
X116717004Y-89204819D02*
X116812242Y-89252438D01*
X116812242Y-89252438D02*
X116859861Y-89300057D01*
X116859861Y-89300057D02*
X116907480Y-89395295D01*
X116907480Y-89395295D02*
X116955099Y-89585771D01*
X116955099Y-89585771D02*
X116955099Y-89823866D01*
X116955099Y-89823866D02*
X116907480Y-90014342D01*
X116907480Y-90014342D02*
X116859861Y-90109580D01*
X116859861Y-90109580D02*
X116812242Y-90157200D01*
X116812242Y-90157200D02*
X116717004Y-90204819D01*
X116717004Y-90204819D02*
X116621766Y-90204819D01*
X116621766Y-90204819D02*
X116526528Y-90157200D01*
X116526528Y-90157200D02*
X116478909Y-90109580D01*
X116478909Y-90109580D02*
X116431290Y-90014342D01*
X116431290Y-90014342D02*
X116383671Y-89823866D01*
X116383671Y-89823866D02*
X116383671Y-89585771D01*
X116383671Y-89585771D02*
X116431290Y-89395295D01*
X116431290Y-89395295D02*
X116478909Y-89300057D01*
X116478909Y-89300057D02*
X116526528Y-89252438D01*
X116526528Y-89252438D02*
X116621766Y-89204819D01*
X117812242Y-89538152D02*
X117812242Y-90204819D01*
X117383671Y-89538152D02*
X117383671Y-90061961D01*
X117383671Y-90061961D02*
X117431290Y-90157200D01*
X117431290Y-90157200D02*
X117526528Y-90204819D01*
X117526528Y-90204819D02*
X117669385Y-90204819D01*
X117669385Y-90204819D02*
X117764623Y-90157200D01*
X117764623Y-90157200D02*
X117812242Y-90109580D01*
X118621766Y-89681009D02*
X118288433Y-89681009D01*
X118288433Y-90204819D02*
X118288433Y-89204819D01*
X118288433Y-89204819D02*
X118764623Y-89204819D01*
X119859861Y-89157200D02*
X119002719Y-90442914D01*
X120145576Y-89300057D02*
X120193195Y-89252438D01*
X120193195Y-89252438D02*
X120288433Y-89204819D01*
X120288433Y-89204819D02*
X120526528Y-89204819D01*
X120526528Y-89204819D02*
X120621766Y-89252438D01*
X120621766Y-89252438D02*
X120669385Y-89300057D01*
X120669385Y-89300057D02*
X120717004Y-89395295D01*
X120717004Y-89395295D02*
X120717004Y-89490533D01*
X120717004Y-89490533D02*
X120669385Y-89633390D01*
X120669385Y-89633390D02*
X120097957Y-90204819D01*
X120097957Y-90204819D02*
X120717004Y-90204819D01*
X121621766Y-89204819D02*
X121145576Y-89204819D01*
X121145576Y-89204819D02*
X121097957Y-89681009D01*
X121097957Y-89681009D02*
X121145576Y-89633390D01*
X121145576Y-89633390D02*
X121240814Y-89585771D01*
X121240814Y-89585771D02*
X121478909Y-89585771D01*
X121478909Y-89585771D02*
X121574147Y-89633390D01*
X121574147Y-89633390D02*
X121621766Y-89681009D01*
X121621766Y-89681009D02*
X121669385Y-89776247D01*
X121669385Y-89776247D02*
X121669385Y-90014342D01*
X121669385Y-90014342D02*
X121621766Y-90109580D01*
X121621766Y-90109580D02*
X121574147Y-90157200D01*
X121574147Y-90157200D02*
X121478909Y-90204819D01*
X121478909Y-90204819D02*
X121240814Y-90204819D01*
X121240814Y-90204819D02*
X121145576Y-90157200D01*
X121145576Y-90157200D02*
X121097957Y-90109580D01*
X122002719Y-89538152D02*
X122240814Y-90204819D01*
X122240814Y-90204819D02*
X122478909Y-89538152D01*
X118288433Y-93859580D02*
X118240814Y-93907200D01*
X118240814Y-93907200D02*
X118097957Y-93954819D01*
X118097957Y-93954819D02*
X118002719Y-93954819D01*
X118002719Y-93954819D02*
X117859862Y-93907200D01*
X117859862Y-93907200D02*
X117764624Y-93811961D01*
X117764624Y-93811961D02*
X117717005Y-93716723D01*
X117717005Y-93716723D02*
X117669386Y-93526247D01*
X117669386Y-93526247D02*
X117669386Y-93383390D01*
X117669386Y-93383390D02*
X117717005Y-93192914D01*
X117717005Y-93192914D02*
X117764624Y-93097676D01*
X117764624Y-93097676D02*
X117859862Y-93002438D01*
X117859862Y-93002438D02*
X118002719Y-92954819D01*
X118002719Y-92954819D02*
X118097957Y-92954819D01*
X118097957Y-92954819D02*
X118240814Y-93002438D01*
X118240814Y-93002438D02*
X118288433Y-93050057D01*
X119240814Y-93954819D02*
X118669386Y-93954819D01*
X118955100Y-93954819D02*
X118955100Y-92954819D01*
X118955100Y-92954819D02*
X118859862Y-93097676D01*
X118859862Y-93097676D02*
X118764624Y-93192914D01*
X118764624Y-93192914D02*
X118669386Y-93240533D01*
X109421428Y-97704819D02*
X108850000Y-97704819D01*
X109135714Y-97704819D02*
X109135714Y-96704819D01*
X109135714Y-96704819D02*
X109040476Y-96847676D01*
X109040476Y-96847676D02*
X108945238Y-96942914D01*
X108945238Y-96942914D02*
X108850000Y-96990533D01*
X110040476Y-96704819D02*
X110135714Y-96704819D01*
X110135714Y-96704819D02*
X110230952Y-96752438D01*
X110230952Y-96752438D02*
X110278571Y-96800057D01*
X110278571Y-96800057D02*
X110326190Y-96895295D01*
X110326190Y-96895295D02*
X110373809Y-97085771D01*
X110373809Y-97085771D02*
X110373809Y-97323866D01*
X110373809Y-97323866D02*
X110326190Y-97514342D01*
X110326190Y-97514342D02*
X110278571Y-97609580D01*
X110278571Y-97609580D02*
X110230952Y-97657200D01*
X110230952Y-97657200D02*
X110135714Y-97704819D01*
X110135714Y-97704819D02*
X110040476Y-97704819D01*
X110040476Y-97704819D02*
X109945238Y-97657200D01*
X109945238Y-97657200D02*
X109897619Y-97609580D01*
X109897619Y-97609580D02*
X109850000Y-97514342D01*
X109850000Y-97514342D02*
X109802381Y-97323866D01*
X109802381Y-97323866D02*
X109802381Y-97085771D01*
X109802381Y-97085771D02*
X109850000Y-96895295D01*
X109850000Y-96895295D02*
X109897619Y-96800057D01*
X109897619Y-96800057D02*
X109945238Y-96752438D01*
X109945238Y-96752438D02*
X110040476Y-96704819D01*
X111230952Y-97038152D02*
X111230952Y-97704819D01*
X110802381Y-97038152D02*
X110802381Y-97561961D01*
X110802381Y-97561961D02*
X110850000Y-97657200D01*
X110850000Y-97657200D02*
X110945238Y-97704819D01*
X110945238Y-97704819D02*
X111088095Y-97704819D01*
X111088095Y-97704819D02*
X111183333Y-97657200D01*
X111183333Y-97657200D02*
X111230952Y-97609580D01*
X112040476Y-97181009D02*
X111707143Y-97181009D01*
X111707143Y-97704819D02*
X111707143Y-96704819D01*
X111707143Y-96704819D02*
X112183333Y-96704819D01*
X113278571Y-96657200D02*
X112421429Y-97942914D01*
X114135714Y-97704819D02*
X113564286Y-97704819D01*
X113850000Y-97704819D02*
X113850000Y-96704819D01*
X113850000Y-96704819D02*
X113754762Y-96847676D01*
X113754762Y-96847676D02*
X113659524Y-96942914D01*
X113659524Y-96942914D02*
X113564286Y-96990533D01*
X114754762Y-96704819D02*
X114850000Y-96704819D01*
X114850000Y-96704819D02*
X114945238Y-96752438D01*
X114945238Y-96752438D02*
X114992857Y-96800057D01*
X114992857Y-96800057D02*
X115040476Y-96895295D01*
X115040476Y-96895295D02*
X115088095Y-97085771D01*
X115088095Y-97085771D02*
X115088095Y-97323866D01*
X115088095Y-97323866D02*
X115040476Y-97514342D01*
X115040476Y-97514342D02*
X114992857Y-97609580D01*
X114992857Y-97609580D02*
X114945238Y-97657200D01*
X114945238Y-97657200D02*
X114850000Y-97704819D01*
X114850000Y-97704819D02*
X114754762Y-97704819D01*
X114754762Y-97704819D02*
X114659524Y-97657200D01*
X114659524Y-97657200D02*
X114611905Y-97609580D01*
X114611905Y-97609580D02*
X114564286Y-97514342D01*
X114564286Y-97514342D02*
X114516667Y-97323866D01*
X114516667Y-97323866D02*
X114516667Y-97085771D01*
X114516667Y-97085771D02*
X114564286Y-96895295D01*
X114564286Y-96895295D02*
X114611905Y-96800057D01*
X114611905Y-96800057D02*
X114659524Y-96752438D01*
X114659524Y-96752438D02*
X114754762Y-96704819D01*
X115421429Y-97038152D02*
X115659524Y-97704819D01*
X115659524Y-97704819D02*
X115897619Y-97038152D01*
X112183333Y-93859580D02*
X112135714Y-93907200D01*
X112135714Y-93907200D02*
X111992857Y-93954819D01*
X111992857Y-93954819D02*
X111897619Y-93954819D01*
X111897619Y-93954819D02*
X111754762Y-93907200D01*
X111754762Y-93907200D02*
X111659524Y-93811961D01*
X111659524Y-93811961D02*
X111611905Y-93716723D01*
X111611905Y-93716723D02*
X111564286Y-93526247D01*
X111564286Y-93526247D02*
X111564286Y-93383390D01*
X111564286Y-93383390D02*
X111611905Y-93192914D01*
X111611905Y-93192914D02*
X111659524Y-93097676D01*
X111659524Y-93097676D02*
X111754762Y-93002438D01*
X111754762Y-93002438D02*
X111897619Y-92954819D01*
X111897619Y-92954819D02*
X111992857Y-92954819D01*
X111992857Y-92954819D02*
X112135714Y-93002438D01*
X112135714Y-93002438D02*
X112183333Y-93050057D01*
X112564286Y-93050057D02*
X112611905Y-93002438D01*
X112611905Y-93002438D02*
X112707143Y-92954819D01*
X112707143Y-92954819D02*
X112945238Y-92954819D01*
X112945238Y-92954819D02*
X113040476Y-93002438D01*
X113040476Y-93002438D02*
X113088095Y-93050057D01*
X113088095Y-93050057D02*
X113135714Y-93145295D01*
X113135714Y-93145295D02*
X113135714Y-93240533D01*
X113135714Y-93240533D02*
X113088095Y-93383390D01*
X113088095Y-93383390D02*
X112516667Y-93954819D01*
X112516667Y-93954819D02*
X113135714Y-93954819D01*
X111279047Y-97754819D02*
X110802857Y-97754819D01*
X110802857Y-97754819D02*
X110802857Y-96754819D01*
X111612381Y-97754819D02*
X111612381Y-96754819D01*
X111612381Y-96754819D02*
X111945714Y-97469104D01*
X111945714Y-97469104D02*
X112279047Y-96754819D01*
X112279047Y-96754819D02*
X112279047Y-97754819D01*
X112660000Y-96754819D02*
X113326666Y-96754819D01*
X113326666Y-96754819D02*
X112898095Y-97754819D01*
X113850476Y-97183390D02*
X113755238Y-97135771D01*
X113755238Y-97135771D02*
X113707619Y-97088152D01*
X113707619Y-97088152D02*
X113660000Y-96992914D01*
X113660000Y-96992914D02*
X113660000Y-96945295D01*
X113660000Y-96945295D02*
X113707619Y-96850057D01*
X113707619Y-96850057D02*
X113755238Y-96802438D01*
X113755238Y-96802438D02*
X113850476Y-96754819D01*
X113850476Y-96754819D02*
X114040952Y-96754819D01*
X114040952Y-96754819D02*
X114136190Y-96802438D01*
X114136190Y-96802438D02*
X114183809Y-96850057D01*
X114183809Y-96850057D02*
X114231428Y-96945295D01*
X114231428Y-96945295D02*
X114231428Y-96992914D01*
X114231428Y-96992914D02*
X114183809Y-97088152D01*
X114183809Y-97088152D02*
X114136190Y-97135771D01*
X114136190Y-97135771D02*
X114040952Y-97183390D01*
X114040952Y-97183390D02*
X113850476Y-97183390D01*
X113850476Y-97183390D02*
X113755238Y-97231009D01*
X113755238Y-97231009D02*
X113707619Y-97278628D01*
X113707619Y-97278628D02*
X113660000Y-97373866D01*
X113660000Y-97373866D02*
X113660000Y-97564342D01*
X113660000Y-97564342D02*
X113707619Y-97659580D01*
X113707619Y-97659580D02*
X113755238Y-97707200D01*
X113755238Y-97707200D02*
X113850476Y-97754819D01*
X113850476Y-97754819D02*
X114040952Y-97754819D01*
X114040952Y-97754819D02*
X114136190Y-97707200D01*
X114136190Y-97707200D02*
X114183809Y-97659580D01*
X114183809Y-97659580D02*
X114231428Y-97564342D01*
X114231428Y-97564342D02*
X114231428Y-97373866D01*
X114231428Y-97373866D02*
X114183809Y-97278628D01*
X114183809Y-97278628D02*
X114136190Y-97231009D01*
X114136190Y-97231009D02*
X114040952Y-97183390D01*
X114850476Y-96754819D02*
X114945714Y-96754819D01*
X114945714Y-96754819D02*
X115040952Y-96802438D01*
X115040952Y-96802438D02*
X115088571Y-96850057D01*
X115088571Y-96850057D02*
X115136190Y-96945295D01*
X115136190Y-96945295D02*
X115183809Y-97135771D01*
X115183809Y-97135771D02*
X115183809Y-97373866D01*
X115183809Y-97373866D02*
X115136190Y-97564342D01*
X115136190Y-97564342D02*
X115088571Y-97659580D01*
X115088571Y-97659580D02*
X115040952Y-97707200D01*
X115040952Y-97707200D02*
X114945714Y-97754819D01*
X114945714Y-97754819D02*
X114850476Y-97754819D01*
X114850476Y-97754819D02*
X114755238Y-97707200D01*
X114755238Y-97707200D02*
X114707619Y-97659580D01*
X114707619Y-97659580D02*
X114660000Y-97564342D01*
X114660000Y-97564342D02*
X114612381Y-97373866D01*
X114612381Y-97373866D02*
X114612381Y-97135771D01*
X114612381Y-97135771D02*
X114660000Y-96945295D01*
X114660000Y-96945295D02*
X114707619Y-96850057D01*
X114707619Y-96850057D02*
X114755238Y-96802438D01*
X114755238Y-96802438D02*
X114850476Y-96754819D01*
X116088571Y-96754819D02*
X115612381Y-96754819D01*
X115612381Y-96754819D02*
X115564762Y-97231009D01*
X115564762Y-97231009D02*
X115612381Y-97183390D01*
X115612381Y-97183390D02*
X115707619Y-97135771D01*
X115707619Y-97135771D02*
X115945714Y-97135771D01*
X115945714Y-97135771D02*
X116040952Y-97183390D01*
X116040952Y-97183390D02*
X116088571Y-97231009D01*
X116088571Y-97231009D02*
X116136190Y-97326247D01*
X116136190Y-97326247D02*
X116136190Y-97564342D01*
X116136190Y-97564342D02*
X116088571Y-97659580D01*
X116088571Y-97659580D02*
X116040952Y-97707200D01*
X116040952Y-97707200D02*
X115945714Y-97754819D01*
X115945714Y-97754819D02*
X115707619Y-97754819D01*
X115707619Y-97754819D02*
X115612381Y-97707200D01*
X115612381Y-97707200D02*
X115564762Y-97659580D01*
X116326667Y-97850057D02*
X117088571Y-97850057D01*
X117183810Y-96754819D02*
X117755238Y-96754819D01*
X117469524Y-97754819D02*
X117469524Y-96754819D01*
X118279048Y-96754819D02*
X118469524Y-96754819D01*
X118469524Y-96754819D02*
X118564762Y-96802438D01*
X118564762Y-96802438D02*
X118660000Y-96897676D01*
X118660000Y-96897676D02*
X118707619Y-97088152D01*
X118707619Y-97088152D02*
X118707619Y-97421485D01*
X118707619Y-97421485D02*
X118660000Y-97611961D01*
X118660000Y-97611961D02*
X118564762Y-97707200D01*
X118564762Y-97707200D02*
X118469524Y-97754819D01*
X118469524Y-97754819D02*
X118279048Y-97754819D01*
X118279048Y-97754819D02*
X118183810Y-97707200D01*
X118183810Y-97707200D02*
X118088572Y-97611961D01*
X118088572Y-97611961D02*
X118040953Y-97421485D01*
X118040953Y-97421485D02*
X118040953Y-97088152D01*
X118040953Y-97088152D02*
X118088572Y-96897676D01*
X118088572Y-96897676D02*
X118183810Y-96802438D01*
X118183810Y-96802438D02*
X118279048Y-96754819D01*
X119088572Y-96850057D02*
X119136191Y-96802438D01*
X119136191Y-96802438D02*
X119231429Y-96754819D01*
X119231429Y-96754819D02*
X119469524Y-96754819D01*
X119469524Y-96754819D02*
X119564762Y-96802438D01*
X119564762Y-96802438D02*
X119612381Y-96850057D01*
X119612381Y-96850057D02*
X119660000Y-96945295D01*
X119660000Y-96945295D02*
X119660000Y-97040533D01*
X119660000Y-97040533D02*
X119612381Y-97183390D01*
X119612381Y-97183390D02*
X119040953Y-97754819D01*
X119040953Y-97754819D02*
X119660000Y-97754819D01*
X120040953Y-96850057D02*
X120088572Y-96802438D01*
X120088572Y-96802438D02*
X120183810Y-96754819D01*
X120183810Y-96754819D02*
X120421905Y-96754819D01*
X120421905Y-96754819D02*
X120517143Y-96802438D01*
X120517143Y-96802438D02*
X120564762Y-96850057D01*
X120564762Y-96850057D02*
X120612381Y-96945295D01*
X120612381Y-96945295D02*
X120612381Y-97040533D01*
X120612381Y-97040533D02*
X120564762Y-97183390D01*
X120564762Y-97183390D02*
X119993334Y-97754819D01*
X119993334Y-97754819D02*
X120612381Y-97754819D01*
X121231429Y-96754819D02*
X121326667Y-96754819D01*
X121326667Y-96754819D02*
X121421905Y-96802438D01*
X121421905Y-96802438D02*
X121469524Y-96850057D01*
X121469524Y-96850057D02*
X121517143Y-96945295D01*
X121517143Y-96945295D02*
X121564762Y-97135771D01*
X121564762Y-97135771D02*
X121564762Y-97373866D01*
X121564762Y-97373866D02*
X121517143Y-97564342D01*
X121517143Y-97564342D02*
X121469524Y-97659580D01*
X121469524Y-97659580D02*
X121421905Y-97707200D01*
X121421905Y-97707200D02*
X121326667Y-97754819D01*
X121326667Y-97754819D02*
X121231429Y-97754819D01*
X121231429Y-97754819D02*
X121136191Y-97707200D01*
X121136191Y-97707200D02*
X121088572Y-97659580D01*
X121088572Y-97659580D02*
X121040953Y-97564342D01*
X121040953Y-97564342D02*
X120993334Y-97373866D01*
X120993334Y-97373866D02*
X120993334Y-97135771D01*
X120993334Y-97135771D02*
X121040953Y-96945295D01*
X121040953Y-96945295D02*
X121088572Y-96850057D01*
X121088572Y-96850057D02*
X121136191Y-96802438D01*
X121136191Y-96802438D02*
X121231429Y-96754819D01*
X115398095Y-99904819D02*
X115398095Y-100714342D01*
X115398095Y-100714342D02*
X115445714Y-100809580D01*
X115445714Y-100809580D02*
X115493333Y-100857200D01*
X115493333Y-100857200D02*
X115588571Y-100904819D01*
X115588571Y-100904819D02*
X115779047Y-100904819D01*
X115779047Y-100904819D02*
X115874285Y-100857200D01*
X115874285Y-100857200D02*
X115921904Y-100809580D01*
X115921904Y-100809580D02*
X115969523Y-100714342D01*
X115969523Y-100714342D02*
X115969523Y-99904819D01*
X116969523Y-100904819D02*
X116398095Y-100904819D01*
X116683809Y-100904819D02*
X116683809Y-99904819D01*
X116683809Y-99904819D02*
X116588571Y-100047676D01*
X116588571Y-100047676D02*
X116493333Y-100142914D01*
X116493333Y-100142914D02*
X116398095Y-100190533D01*
D12*
G04 #@! TO.C,D2*
X125600000Y-91650000D02*
X125600000Y-94200000D01*
X125600000Y-104350000D02*
X125600000Y-101800000D01*
X127400000Y-95240000D02*
X123800000Y-95240000D01*
X127400000Y-95340000D02*
X123800000Y-95340000D01*
X127400000Y-95440000D02*
X123800000Y-95440000D01*
X127400000Y-94200000D02*
X123800000Y-94200000D01*
X123800000Y-101800000D01*
X127400000Y-101800000D01*
X127400000Y-94200000D01*
G04 #@! TO.C,D1*
X113530000Y-104833810D02*
X113530000Y-107166190D01*
X113530000Y-104833810D02*
G75*
G02*
X113530000Y-107166190I1500000J-1166190D01*
G01*
X116530000Y-106000000D02*
G75*
G02*
X113530000Y-106000000I-1500000J0D01*
G01*
X113530000Y-106000000D02*
G75*
G02*
X116530000Y-106000000I1500000J0D01*
G01*
G04 #@! TO.C,J2*
X106050000Y-93820000D02*
X107050000Y-93320000D01*
X107050000Y-93320000D02*
X107050000Y-94320000D01*
X107050000Y-94320000D02*
X106050000Y-93820000D01*
X108300000Y-90280000D02*
X99700000Y-90280000D01*
X99700000Y-102440000D01*
X108300000Y-102440000D01*
X108300000Y-90280000D01*
G04 #@! TO.C,R1*
X100600000Y-106000000D02*
X102530000Y-106000000D01*
X110760000Y-106000000D02*
X108830000Y-106000000D01*
X108830000Y-107250000D02*
X102530000Y-107250000D01*
X102530000Y-104750000D01*
X108830000Y-104750000D01*
X108830000Y-107250000D01*
G04 #@! TO.C,J1*
X131750000Y-99300000D02*
X132750000Y-99800000D01*
X131750000Y-100300000D02*
X131750000Y-99300000D01*
X132750000Y-99800000D02*
X131750000Y-100300000D01*
X130500000Y-103340000D02*
X139100000Y-103340000D01*
X139100000Y-91180000D01*
X130500000Y-91180000D01*
X130500000Y-103340000D01*
G04 #@! TO.C,C1*
X120338705Y-94837500D02*
X120338705Y-94337500D01*
X120588705Y-94587500D02*
X120088705Y-94587500D01*
X120955100Y-93500000D02*
G75*
G02*
X115955100Y-93500000I-2500000J0D01*
G01*
X115955100Y-93500000D02*
G75*
G02*
X120955100Y-93500000I2500000J0D01*
G01*
G04 #@! TO.C,C2*
X110216395Y-92412500D02*
X110716395Y-92412500D01*
X110466395Y-92162500D02*
X110466395Y-92662500D01*
X114850000Y-93500000D02*
G75*
G02*
X109850000Y-93500000I-2500000J0D01*
G01*
X109850000Y-93500000D02*
G75*
G02*
X114850000Y-93500000I2500000J0D01*
G01*
G04 #@! TO.C,U1*
X114310000Y-102650000D02*
X114310000Y-101380000D01*
X118010000Y-102650000D02*
X118010000Y-101380000D01*
X121160000Y-101380000D02*
X111160000Y-101380000D01*
X121160000Y-102650000D02*
X111160000Y-102650000D01*
X111160000Y-98250000D01*
X121160000Y-98250000D01*
X121160000Y-102650000D01*
G04 #@! TD*
M02*
