%TF.GenerationSoftware,KiCad,Pcbnew,9.0.7-1.fc43*%
%TF.CreationDate,2026-02-20T23:12:54+05:30*%
%TF.ProjectId,7805 voltage regulator,37383035-2076-46f6-9c74-616765207265,rev?*%
%TF.SameCoordinates,Original*%
%TF.FileFunction,Drillmap*%
%TF.FilePolarity,Positive*%
%FSLAX45Y45*%
G04 Gerber Fmt 4.5, Leading zero omitted, Abs format (unit mm)*
G04 Created by KiCad (PCBNEW 9.0.7-1.fc43) date 2026-02-20 23:12:54*
%MOMM*%
%LPD*%
G01*
G04 APERTURE LIST*
%ADD10C,0.050000*%
%ADD11C,0.200000*%
G04 APERTURE END LIST*
D10*
X9877000Y-8833000D02*
X14177000Y-8833000D01*
X14177000Y-10943000D01*
X9877000Y-10943000D01*
X9877000Y-8833000D01*
D11*
X10135277Y-11256984D02*
X10135277Y-11056984D01*
X10135277Y-11056984D02*
X10182896Y-11056984D01*
X10182896Y-11056984D02*
X10211467Y-11066508D01*
X10211467Y-11066508D02*
X10230515Y-11085555D01*
X10230515Y-11085555D02*
X10240039Y-11104603D01*
X10240039Y-11104603D02*
X10249563Y-11142698D01*
X10249563Y-11142698D02*
X10249563Y-11171270D01*
X10249563Y-11171270D02*
X10240039Y-11209365D01*
X10240039Y-11209365D02*
X10230515Y-11228412D01*
X10230515Y-11228412D02*
X10211467Y-11247460D01*
X10211467Y-11247460D02*
X10182896Y-11256984D01*
X10182896Y-11256984D02*
X10135277Y-11256984D01*
X10335277Y-11256984D02*
X10335277Y-11123650D01*
X10335277Y-11161746D02*
X10344801Y-11142698D01*
X10344801Y-11142698D02*
X10354324Y-11133174D01*
X10354324Y-11133174D02*
X10373372Y-11123650D01*
X10373372Y-11123650D02*
X10392420Y-11123650D01*
X10459086Y-11256984D02*
X10459086Y-11123650D01*
X10459086Y-11056984D02*
X10449563Y-11066508D01*
X10449563Y-11066508D02*
X10459086Y-11076031D01*
X10459086Y-11076031D02*
X10468610Y-11066508D01*
X10468610Y-11066508D02*
X10459086Y-11056984D01*
X10459086Y-11056984D02*
X10459086Y-11076031D01*
X10582896Y-11256984D02*
X10563848Y-11247460D01*
X10563848Y-11247460D02*
X10554324Y-11228412D01*
X10554324Y-11228412D02*
X10554324Y-11056984D01*
X10687658Y-11256984D02*
X10668610Y-11247460D01*
X10668610Y-11247460D02*
X10659086Y-11228412D01*
X10659086Y-11228412D02*
X10659086Y-11056984D01*
X10916229Y-11256984D02*
X10916229Y-11056984D01*
X10916229Y-11056984D02*
X10982896Y-11199841D01*
X10982896Y-11199841D02*
X11049563Y-11056984D01*
X11049563Y-11056984D02*
X11049563Y-11256984D01*
X11230515Y-11256984D02*
X11230515Y-11152222D01*
X11230515Y-11152222D02*
X11220991Y-11133174D01*
X11220991Y-11133174D02*
X11201943Y-11123650D01*
X11201943Y-11123650D02*
X11163848Y-11123650D01*
X11163848Y-11123650D02*
X11144801Y-11133174D01*
X11230515Y-11247460D02*
X11211467Y-11256984D01*
X11211467Y-11256984D02*
X11163848Y-11256984D01*
X11163848Y-11256984D02*
X11144801Y-11247460D01*
X11144801Y-11247460D02*
X11135277Y-11228412D01*
X11135277Y-11228412D02*
X11135277Y-11209365D01*
X11135277Y-11209365D02*
X11144801Y-11190317D01*
X11144801Y-11190317D02*
X11163848Y-11180793D01*
X11163848Y-11180793D02*
X11211467Y-11180793D01*
X11211467Y-11180793D02*
X11230515Y-11171270D01*
X11325753Y-11123650D02*
X11325753Y-11323650D01*
X11325753Y-11133174D02*
X11344801Y-11123650D01*
X11344801Y-11123650D02*
X11382896Y-11123650D01*
X11382896Y-11123650D02*
X11401943Y-11133174D01*
X11401943Y-11133174D02*
X11411467Y-11142698D01*
X11411467Y-11142698D02*
X11420991Y-11161746D01*
X11420991Y-11161746D02*
X11420991Y-11218888D01*
X11420991Y-11218888D02*
X11411467Y-11237936D01*
X11411467Y-11237936D02*
X11401943Y-11247460D01*
X11401943Y-11247460D02*
X11382896Y-11256984D01*
X11382896Y-11256984D02*
X11344801Y-11256984D01*
X11344801Y-11256984D02*
X11325753Y-11247460D01*
X11506705Y-11237936D02*
X11516229Y-11247460D01*
X11516229Y-11247460D02*
X11506705Y-11256984D01*
X11506705Y-11256984D02*
X11497182Y-11247460D01*
X11497182Y-11247460D02*
X11506705Y-11237936D01*
X11506705Y-11237936D02*
X11506705Y-11256984D01*
X11506705Y-11133174D02*
X11516229Y-11142698D01*
X11516229Y-11142698D02*
X11506705Y-11152222D01*
X11506705Y-11152222D02*
X11497182Y-11142698D01*
X11497182Y-11142698D02*
X11506705Y-11133174D01*
X11506705Y-11133174D02*
X11506705Y-11152222D01*
M02*
