G04 #@! TF.GenerationSoftware,KiCad,Pcbnew,9.0.7-1.fc43*
G04 #@! TF.CreationDate,2026-02-20T23:12:53+05:30*
G04 #@! TF.ProjectId,7805 voltage regulator,37383035-2076-46f6-9c74-616765207265,rev?*
G04 #@! TF.SameCoordinates,Original*
G04 #@! TF.FileFunction,Legend,Top*
G04 #@! TF.FilePolarity,Positive*
%FSLAX46Y46*%
G04 Gerber Fmt 4.6, Leading zero omitted, Abs format (unit mm)*
G04 Created by KiCad (PCBNEW 9.0.7-1.fc43) date 2026-02-20 23:12:53*
%MOMM*%
%LPD*%
G01*
G04 APERTURE LIST*
G04 Aperture macros list*
%AMRoundRect*
0 Rectangle with rounded corners*
0 $1 Rounding radius*
0 $2 $3 $4 $5 $6 $7 $8 $9 X,Y pos of 4 corners*
0 Add a 4 corners polygon primitive as box body*
4,1,4,$2,$3,$4,$5,$6,$7,$8,$9,$2,$3,0*
0 Add four circle primitives for the rounded corners*
1,1,$1+$1,$2,$3*
1,1,$1+$1,$4,$5*
1,1,$1+$1,$6,$7*
1,1,$1+$1,$8,$9*
0 Add four rect primitives between the rounded corners*
20,1,$1+$1,$2,$3,$4,$5,0*
20,1,$1+$1,$4,$5,$6,$7,0*
20,1,$1+$1,$6,$7,$8,$9,0*
20,1,$1+$1,$8,$9,$2,$3,0*%
G04 Aperture macros list end*
%ADD10C,0.150000*%
%ADD11C,0.120000*%
%ADD12RoundRect,0.250001X-0.949999X0.949999X-0.949999X-0.949999X0.949999X-0.949999X0.949999X0.949999X0*%
%ADD13C,2.400000*%
%ADD14R,1.800000X1.800000*%
%ADD15C,1.800000*%
%ADD16RoundRect,0.249999X-1.550001X0.790001X-1.550001X-0.790001X1.550001X-0.790001X1.550001X0.790001X0*%
%ADD17O,3.600000X2.080000*%
%ADD18C,1.600000*%
%ADD19RoundRect,0.249999X1.550001X-0.790001X1.550001X0.790001X-1.550001X0.790001X-1.550001X-0.790001X0*%
%ADD20RoundRect,0.250000X0.550000X0.550000X-0.550000X0.550000X-0.550000X-0.550000X0.550000X-0.550000X0*%
%ADD21RoundRect,0.250000X-0.550000X-0.550000X0.550000X-0.550000X0.550000X0.550000X-0.550000X0.550000X0*%
%ADD22R,1.905000X2.000000*%
%ADD23O,1.905000X2.000000*%
G04 APERTURE END LIST*
D10*
X122954819Y-98738094D02*
X121954819Y-98738094D01*
X121954819Y-98738094D02*
X121954819Y-98499999D01*
X121954819Y-98499999D02*
X122002438Y-98357142D01*
X122002438Y-98357142D02*
X122097676Y-98261904D01*
X122097676Y-98261904D02*
X122192914Y-98214285D01*
X122192914Y-98214285D02*
X122383390Y-98166666D01*
X122383390Y-98166666D02*
X122526247Y-98166666D01*
X122526247Y-98166666D02*
X122716723Y-98214285D01*
X122716723Y-98214285D02*
X122811961Y-98261904D01*
X122811961Y-98261904D02*
X122907200Y-98357142D01*
X122907200Y-98357142D02*
X122954819Y-98499999D01*
X122954819Y-98499999D02*
X122954819Y-98738094D01*
X122050057Y-97785713D02*
X122002438Y-97738094D01*
X122002438Y-97738094D02*
X121954819Y-97642856D01*
X121954819Y-97642856D02*
X121954819Y-97404761D01*
X121954819Y-97404761D02*
X122002438Y-97309523D01*
X122002438Y-97309523D02*
X122050057Y-97261904D01*
X122050057Y-97261904D02*
X122145295Y-97214285D01*
X122145295Y-97214285D02*
X122240533Y-97214285D01*
X122240533Y-97214285D02*
X122383390Y-97261904D01*
X122383390Y-97261904D02*
X122954819Y-97833332D01*
X122954819Y-97833332D02*
X122954819Y-97214285D01*
X128254819Y-91911904D02*
X127254819Y-91911904D01*
X128254819Y-91340476D02*
X127683390Y-91769047D01*
X127254819Y-91340476D02*
X127826247Y-91911904D01*
X117761905Y-106454819D02*
X117761905Y-105454819D01*
X117761905Y-105454819D02*
X118000000Y-105454819D01*
X118000000Y-105454819D02*
X118142857Y-105502438D01*
X118142857Y-105502438D02*
X118238095Y-105597676D01*
X118238095Y-105597676D02*
X118285714Y-105692914D01*
X118285714Y-105692914D02*
X118333333Y-105883390D01*
X118333333Y-105883390D02*
X118333333Y-106026247D01*
X118333333Y-106026247D02*
X118285714Y-106216723D01*
X118285714Y-106216723D02*
X118238095Y-106311961D01*
X118238095Y-106311961D02*
X118142857Y-106407200D01*
X118142857Y-106407200D02*
X118000000Y-106454819D01*
X118000000Y-106454819D02*
X117761905Y-106454819D01*
X119285714Y-106454819D02*
X118714286Y-106454819D01*
X119000000Y-106454819D02*
X119000000Y-105454819D01*
X119000000Y-105454819D02*
X118904762Y-105597676D01*
X118904762Y-105597676D02*
X118809524Y-105692914D01*
X118809524Y-105692914D02*
X118714286Y-105740533D01*
X109454819Y-97333333D02*
X110169104Y-97333333D01*
X110169104Y-97333333D02*
X110311961Y-97380952D01*
X110311961Y-97380952D02*
X110407200Y-97476190D01*
X110407200Y-97476190D02*
X110454819Y-97619047D01*
X110454819Y-97619047D02*
X110454819Y-97714285D01*
X109550057Y-96904761D02*
X109502438Y-96857142D01*
X109502438Y-96857142D02*
X109454819Y-96761904D01*
X109454819Y-96761904D02*
X109454819Y-96523809D01*
X109454819Y-96523809D02*
X109502438Y-96428571D01*
X109502438Y-96428571D02*
X109550057Y-96380952D01*
X109550057Y-96380952D02*
X109645295Y-96333333D01*
X109645295Y-96333333D02*
X109740533Y-96333333D01*
X109740533Y-96333333D02*
X109883390Y-96380952D01*
X109883390Y-96380952D02*
X110454819Y-96952380D01*
X110454819Y-96952380D02*
X110454819Y-96333333D01*
X105513333Y-108824819D02*
X105180000Y-108348628D01*
X104941905Y-108824819D02*
X104941905Y-107824819D01*
X104941905Y-107824819D02*
X105322857Y-107824819D01*
X105322857Y-107824819D02*
X105418095Y-107872438D01*
X105418095Y-107872438D02*
X105465714Y-107920057D01*
X105465714Y-107920057D02*
X105513333Y-108015295D01*
X105513333Y-108015295D02*
X105513333Y-108158152D01*
X105513333Y-108158152D02*
X105465714Y-108253390D01*
X105465714Y-108253390D02*
X105418095Y-108301009D01*
X105418095Y-108301009D02*
X105322857Y-108348628D01*
X105322857Y-108348628D02*
X104941905Y-108348628D01*
X106465714Y-108824819D02*
X105894286Y-108824819D01*
X106180000Y-108824819D02*
X106180000Y-107824819D01*
X106180000Y-107824819D02*
X106084762Y-107967676D01*
X106084762Y-107967676D02*
X105989524Y-108062914D01*
X105989524Y-108062914D02*
X105894286Y-108110533D01*
X128754819Y-97593333D02*
X129469104Y-97593333D01*
X129469104Y-97593333D02*
X129611961Y-97640952D01*
X129611961Y-97640952D02*
X129707200Y-97736190D01*
X129707200Y-97736190D02*
X129754819Y-97879047D01*
X129754819Y-97879047D02*
X129754819Y-97974285D01*
X129754819Y-96593333D02*
X129754819Y-97164761D01*
X129754819Y-96879047D02*
X128754819Y-96879047D01*
X128754819Y-96879047D02*
X128897676Y-96974285D01*
X128897676Y-96974285D02*
X128992914Y-97069523D01*
X128992914Y-97069523D02*
X129040533Y-97164761D01*
X118333333Y-89859580D02*
X118285714Y-89907200D01*
X118285714Y-89907200D02*
X118142857Y-89954819D01*
X118142857Y-89954819D02*
X118047619Y-89954819D01*
X118047619Y-89954819D02*
X117904762Y-89907200D01*
X117904762Y-89907200D02*
X117809524Y-89811961D01*
X117809524Y-89811961D02*
X117761905Y-89716723D01*
X117761905Y-89716723D02*
X117714286Y-89526247D01*
X117714286Y-89526247D02*
X117714286Y-89383390D01*
X117714286Y-89383390D02*
X117761905Y-89192914D01*
X117761905Y-89192914D02*
X117809524Y-89097676D01*
X117809524Y-89097676D02*
X117904762Y-89002438D01*
X117904762Y-89002438D02*
X118047619Y-88954819D01*
X118047619Y-88954819D02*
X118142857Y-88954819D01*
X118142857Y-88954819D02*
X118285714Y-89002438D01*
X118285714Y-89002438D02*
X118333333Y-89050057D01*
X119285714Y-89954819D02*
X118714286Y-89954819D01*
X119000000Y-89954819D02*
X119000000Y-88954819D01*
X119000000Y-88954819D02*
X118904762Y-89097676D01*
X118904762Y-89097676D02*
X118809524Y-89192914D01*
X118809524Y-89192914D02*
X118714286Y-89240533D01*
X112183333Y-89859580D02*
X112135714Y-89907200D01*
X112135714Y-89907200D02*
X111992857Y-89954819D01*
X111992857Y-89954819D02*
X111897619Y-89954819D01*
X111897619Y-89954819D02*
X111754762Y-89907200D01*
X111754762Y-89907200D02*
X111659524Y-89811961D01*
X111659524Y-89811961D02*
X111611905Y-89716723D01*
X111611905Y-89716723D02*
X111564286Y-89526247D01*
X111564286Y-89526247D02*
X111564286Y-89383390D01*
X111564286Y-89383390D02*
X111611905Y-89192914D01*
X111611905Y-89192914D02*
X111659524Y-89097676D01*
X111659524Y-89097676D02*
X111754762Y-89002438D01*
X111754762Y-89002438D02*
X111897619Y-88954819D01*
X111897619Y-88954819D02*
X111992857Y-88954819D01*
X111992857Y-88954819D02*
X112135714Y-89002438D01*
X112135714Y-89002438D02*
X112183333Y-89050057D01*
X112564286Y-89050057D02*
X112611905Y-89002438D01*
X112611905Y-89002438D02*
X112707143Y-88954819D01*
X112707143Y-88954819D02*
X112945238Y-88954819D01*
X112945238Y-88954819D02*
X113040476Y-89002438D01*
X113040476Y-89002438D02*
X113088095Y-89050057D01*
X113088095Y-89050057D02*
X113135714Y-89145295D01*
X113135714Y-89145295D02*
X113135714Y-89240533D01*
X113135714Y-89240533D02*
X113088095Y-89383390D01*
X113088095Y-89383390D02*
X112516667Y-89954819D01*
X112516667Y-89954819D02*
X113135714Y-89954819D01*
X118738095Y-103454819D02*
X118738095Y-104264342D01*
X118738095Y-104264342D02*
X118785714Y-104359580D01*
X118785714Y-104359580D02*
X118833333Y-104407200D01*
X118833333Y-104407200D02*
X118928571Y-104454819D01*
X118928571Y-104454819D02*
X119119047Y-104454819D01*
X119119047Y-104454819D02*
X119214285Y-104407200D01*
X119214285Y-104407200D02*
X119261904Y-104359580D01*
X119261904Y-104359580D02*
X119309523Y-104264342D01*
X119309523Y-104264342D02*
X119309523Y-103454819D01*
X120309523Y-104454819D02*
X119738095Y-104454819D01*
X120023809Y-104454819D02*
X120023809Y-103454819D01*
X120023809Y-103454819D02*
X119928571Y-103597676D01*
X119928571Y-103597676D02*
X119833333Y-103692914D01*
X119833333Y-103692914D02*
X119738095Y-103740533D01*
D11*
G04 #@! TO.C,D2*
X125600000Y-93090000D02*
X125600000Y-94080000D01*
X125600000Y-102910000D02*
X125600000Y-101920000D01*
X127520000Y-95220000D02*
X123680000Y-95220000D01*
X127520000Y-95340000D02*
X123680000Y-95340000D01*
X127520000Y-95460000D02*
X123680000Y-95460000D01*
X127520000Y-94080000D02*
X123680000Y-94080000D01*
X123680000Y-101920000D01*
X127520000Y-101920000D01*
X127520000Y-94080000D01*
G04 #@! TO.C,D1*
X113470000Y-104764000D02*
X113470000Y-104920000D01*
X113470000Y-107080000D02*
X113470000Y-107236000D01*
X113470000Y-104764484D02*
G75*
G02*
X116701437Y-104920000I1560000J-1235516D01*
G01*
X113989039Y-104920000D02*
G75*
G02*
X116070961Y-104920000I1040961J-1080000D01*
G01*
X116070961Y-107080000D02*
G75*
G02*
X113989039Y-107080000I-1040961J1080000D01*
G01*
X116701437Y-107080000D02*
G75*
G02*
X113470000Y-107235516I-1671437J1080000D01*
G01*
G04 #@! TO.C,J2*
X101300000Y-91080000D02*
X106600000Y-91080000D01*
X101300000Y-91820000D02*
X101300000Y-91080000D01*
X101300000Y-95820000D02*
X101300000Y-96900000D01*
X101300000Y-101640000D02*
X101300000Y-100900000D01*
X106600000Y-91080000D02*
X106600000Y-101640000D01*
X106600000Y-101640000D02*
X101300000Y-101640000D01*
X107600000Y-90170000D02*
X107600000Y-92710000D01*
X107600000Y-94820000D02*
X107600000Y-97900000D01*
X107600000Y-102550000D02*
X107600000Y-100010000D01*
X108610000Y-93820000D02*
X109210000Y-93520000D01*
X109210000Y-93520000D02*
X109210000Y-94120000D01*
X109210000Y-94120000D02*
X108610000Y-93820000D01*
X108410000Y-90170000D02*
X99590000Y-90170000D01*
X99590000Y-102550000D01*
X108410000Y-102550000D01*
X108410000Y-90170000D01*
X108410000Y-92820000D02*
X106600000Y-92820000D01*
X106600000Y-94820000D01*
X108410000Y-94820000D01*
X108410000Y-92820000D01*
X108410000Y-97900000D02*
X106600000Y-97900000D01*
X106600000Y-99900000D01*
X108410000Y-99900000D01*
X108410000Y-97900000D01*
X101284179Y-95806842D02*
G75*
G02*
X101300000Y-91820000I1665821J1986842D01*
G01*
X101284179Y-100886842D02*
G75*
G02*
X101300000Y-96900000I1665821J1986842D01*
G01*
G04 #@! TO.C,R1*
X101640000Y-106000000D02*
X102410000Y-106000000D01*
X109720000Y-106000000D02*
X108950000Y-106000000D01*
X108950000Y-107370000D02*
X102410000Y-107370000D01*
X102410000Y-104630000D01*
X108950000Y-104630000D01*
X108950000Y-107370000D01*
G04 #@! TO.C,J1*
X129590000Y-99500000D02*
X130190000Y-99800000D01*
X129590000Y-100100000D02*
X129590000Y-99500000D01*
X130190000Y-99800000D02*
X129590000Y-100100000D01*
X131200000Y-91070000D02*
X131200000Y-93610000D01*
X131200000Y-98800000D02*
X131200000Y-95720000D01*
X131200000Y-103450000D02*
X131200000Y-100910000D01*
X132200000Y-91980000D02*
X137500000Y-91980000D01*
X132200000Y-102540000D02*
X132200000Y-91980000D01*
X137500000Y-91980000D02*
X137500000Y-92720000D01*
X137500000Y-97800000D02*
X137500000Y-96720000D01*
X137500000Y-101800000D02*
X137500000Y-102540000D01*
X137500000Y-102540000D02*
X132200000Y-102540000D01*
X130390000Y-95720000D02*
X132200000Y-95720000D01*
X132200000Y-93720000D01*
X130390000Y-93720000D01*
X130390000Y-95720000D01*
X130390000Y-100800000D02*
X132200000Y-100800000D01*
X132200000Y-98800000D01*
X130390000Y-98800000D01*
X130390000Y-100800000D01*
X130390000Y-103450000D02*
X139210000Y-103450000D01*
X139210000Y-91070000D01*
X130390000Y-91070000D01*
X130390000Y-103450000D01*
X137515821Y-92733158D02*
G75*
G02*
X137500000Y-96720000I-1665821J-1986842D01*
G01*
X137515821Y-97813158D02*
G75*
G02*
X137500000Y-101800000I-1665821J-1986842D01*
G01*
G04 #@! TO.C,C1*
X115855100Y-93783000D02*
X115855100Y-93217000D01*
X115895100Y-94017000D02*
X115895100Y-92983000D01*
X115935100Y-94177000D02*
X115935100Y-92823000D01*
X115975100Y-94305000D02*
X115975100Y-92695000D01*
X116015100Y-94414000D02*
X116015100Y-92586000D01*
X116055100Y-94511000D02*
X116055100Y-92489000D01*
X116095100Y-94598000D02*
X116095100Y-92402000D01*
X116135100Y-94677000D02*
X116135100Y-92323000D01*
X116175100Y-92460000D02*
X116175100Y-92249000D01*
X116175100Y-94751000D02*
X116175100Y-94540000D01*
X116215100Y-92460000D02*
X116215100Y-92181000D01*
X116215100Y-94819000D02*
X116215100Y-94540000D01*
X116255100Y-92460000D02*
X116255100Y-92117000D01*
X116255100Y-94883000D02*
X116255100Y-94540000D01*
X116295100Y-92460000D02*
X116295100Y-92057000D01*
X116295100Y-94943000D02*
X116295100Y-94540000D01*
X116335100Y-92460000D02*
X116335100Y-92001000D01*
X116335100Y-94999000D02*
X116335100Y-94540000D01*
X116375100Y-92460000D02*
X116375100Y-91947000D01*
X116375100Y-95053000D02*
X116375100Y-94540000D01*
X116415100Y-92460000D02*
X116415100Y-91896000D01*
X116415100Y-95104000D02*
X116415100Y-94540000D01*
X116455100Y-92460000D02*
X116455100Y-91848000D01*
X116455100Y-95152000D02*
X116455100Y-94540000D01*
X116495100Y-92460000D02*
X116495100Y-91801000D01*
X116495100Y-95199000D02*
X116495100Y-94540000D01*
X116535100Y-92460000D02*
X116535100Y-91757000D01*
X116535100Y-95243000D02*
X116535100Y-94540000D01*
X116575100Y-92460000D02*
X116575100Y-91715000D01*
X116575100Y-95285000D02*
X116575100Y-94540000D01*
X116615100Y-92460000D02*
X116615100Y-91675000D01*
X116615100Y-95325000D02*
X116615100Y-94540000D01*
X116655100Y-92460000D02*
X116655100Y-91636000D01*
X116655100Y-95364000D02*
X116655100Y-94540000D01*
X116695100Y-92460000D02*
X116695100Y-91599000D01*
X116695100Y-95401000D02*
X116695100Y-94540000D01*
X116735100Y-92460000D02*
X116735100Y-91564000D01*
X116735100Y-95436000D02*
X116735100Y-94540000D01*
X116775100Y-92460000D02*
X116775100Y-91530000D01*
X116775100Y-95470000D02*
X116775100Y-94540000D01*
X116815100Y-92460000D02*
X116815100Y-91497000D01*
X116815100Y-95503000D02*
X116815100Y-94540000D01*
X116855100Y-92460000D02*
X116855100Y-91465000D01*
X116855100Y-95535000D02*
X116855100Y-94540000D01*
X116895100Y-92460000D02*
X116895100Y-91435000D01*
X116895100Y-95565000D02*
X116895100Y-94540000D01*
X116935100Y-92460000D02*
X116935100Y-91406000D01*
X116935100Y-95594000D02*
X116935100Y-94540000D01*
X116975100Y-92460000D02*
X116975100Y-91378000D01*
X116975100Y-95622000D02*
X116975100Y-94540000D01*
X117015100Y-92460000D02*
X117015100Y-91351000D01*
X117015100Y-95649000D02*
X117015100Y-94540000D01*
X117055100Y-92460000D02*
X117055100Y-91325000D01*
X117055100Y-95675000D02*
X117055100Y-94540000D01*
X117095100Y-92460000D02*
X117095100Y-91301000D01*
X117095100Y-95699000D02*
X117095100Y-94540000D01*
X117135100Y-92460000D02*
X117135100Y-91277000D01*
X117135100Y-95723000D02*
X117135100Y-94540000D01*
X117175100Y-92460000D02*
X117175100Y-91254000D01*
X117175100Y-95746000D02*
X117175100Y-94540000D01*
X117215100Y-92460000D02*
X117215100Y-91232000D01*
X117215100Y-95768000D02*
X117215100Y-94540000D01*
X117255100Y-92460000D02*
X117255100Y-91211000D01*
X117255100Y-95789000D02*
X117255100Y-94540000D01*
X117295100Y-92460000D02*
X117295100Y-91191000D01*
X117295100Y-95809000D02*
X117295100Y-94540000D01*
X117335100Y-92460000D02*
X117335100Y-91171000D01*
X117335100Y-95829000D02*
X117335100Y-94540000D01*
X117375100Y-92460000D02*
X117375100Y-91153000D01*
X117375100Y-95847000D02*
X117375100Y-94540000D01*
X117415100Y-92460000D02*
X117415100Y-91135000D01*
X117415100Y-95865000D02*
X117415100Y-94540000D01*
X117455100Y-92460000D02*
X117455100Y-91118000D01*
X117455100Y-95882000D02*
X117455100Y-94540000D01*
X117495100Y-92460000D02*
X117495100Y-91102000D01*
X117495100Y-95898000D02*
X117495100Y-94540000D01*
X117535100Y-92460000D02*
X117535100Y-91087000D01*
X117535100Y-95913000D02*
X117535100Y-94540000D01*
X117575100Y-92460000D02*
X117575100Y-91072000D01*
X117575100Y-95928000D02*
X117575100Y-94540000D01*
X117615100Y-92460000D02*
X117615100Y-91058000D01*
X117615100Y-95942000D02*
X117615100Y-94540000D01*
X117655100Y-92460000D02*
X117655100Y-91045000D01*
X117655100Y-95955000D02*
X117655100Y-94540000D01*
X117695100Y-92460000D02*
X117695100Y-91033000D01*
X117695100Y-95967000D02*
X117695100Y-94540000D01*
X117735100Y-92460000D02*
X117735100Y-91021000D01*
X117735100Y-95979000D02*
X117735100Y-94540000D01*
X117775100Y-92460000D02*
X117775100Y-91010000D01*
X117775100Y-95990000D02*
X117775100Y-94540000D01*
X117815100Y-92460000D02*
X117815100Y-90999000D01*
X117815100Y-96001000D02*
X117815100Y-94540000D01*
X117855100Y-92460000D02*
X117855100Y-90990000D01*
X117855100Y-96010000D02*
X117855100Y-94540000D01*
X117895100Y-92460000D02*
X117895100Y-90981000D01*
X117895100Y-96019000D02*
X117895100Y-94540000D01*
X117935100Y-92460000D02*
X117935100Y-90972000D01*
X117935100Y-96028000D02*
X117935100Y-94540000D01*
X117975100Y-92460000D02*
X117975100Y-90964000D01*
X117975100Y-96036000D02*
X117975100Y-94540000D01*
X118015100Y-92460000D02*
X118015100Y-90957000D01*
X118015100Y-96043000D02*
X118015100Y-94540000D01*
X118055100Y-92460000D02*
X118055100Y-90951000D01*
X118055100Y-96049000D02*
X118055100Y-94540000D01*
X118095100Y-92460000D02*
X118095100Y-90945000D01*
X118095100Y-96055000D02*
X118095100Y-94540000D01*
X118135100Y-92460000D02*
X118135100Y-90940000D01*
X118135100Y-96060000D02*
X118135100Y-94540000D01*
X118175100Y-92460000D02*
X118175100Y-90935000D01*
X118175100Y-96065000D02*
X118175100Y-94540000D01*
X118215100Y-92460000D02*
X118215100Y-90931000D01*
X118215100Y-96069000D02*
X118215100Y-94540000D01*
X118255100Y-96072000D02*
X118255100Y-90928000D01*
X118295100Y-96075000D02*
X118295100Y-90925000D01*
X118335100Y-96077000D02*
X118335100Y-90923000D01*
X118375100Y-96079000D02*
X118375100Y-90921000D01*
X118415100Y-96080000D02*
X118415100Y-90920000D01*
X118455100Y-96080000D02*
X118455100Y-90920000D01*
X121009875Y-95225000D02*
X121009875Y-94725000D01*
X121259875Y-94975000D02*
X120759875Y-94975000D01*
X121075100Y-93500000D02*
G75*
G02*
X115835100Y-93500000I-2620000J0D01*
G01*
X115835100Y-93500000D02*
G75*
G02*
X121075100Y-93500000I2620000J0D01*
G01*
G04 #@! TO.C,C2*
X109545225Y-92025000D02*
X110045225Y-92025000D01*
X109795225Y-91775000D02*
X109795225Y-92275000D01*
X112350000Y-90920000D02*
X112350000Y-96080000D01*
X112390000Y-90920000D02*
X112390000Y-96080000D01*
X112430000Y-90921000D02*
X112430000Y-96079000D01*
X112470000Y-90923000D02*
X112470000Y-96077000D01*
X112510000Y-90925000D02*
X112510000Y-96075000D01*
X112550000Y-90928000D02*
X112550000Y-96072000D01*
X112590000Y-90931000D02*
X112590000Y-92460000D01*
X112590000Y-94540000D02*
X112590000Y-96069000D01*
X112630000Y-90935000D02*
X112630000Y-92460000D01*
X112630000Y-94540000D02*
X112630000Y-96065000D01*
X112670000Y-90940000D02*
X112670000Y-92460000D01*
X112670000Y-94540000D02*
X112670000Y-96060000D01*
X112710000Y-90945000D02*
X112710000Y-92460000D01*
X112710000Y-94540000D02*
X112710000Y-96055000D01*
X112750000Y-90951000D02*
X112750000Y-92460000D01*
X112750000Y-94540000D02*
X112750000Y-96049000D01*
X112790000Y-90957000D02*
X112790000Y-92460000D01*
X112790000Y-94540000D02*
X112790000Y-96043000D01*
X112830000Y-90964000D02*
X112830000Y-92460000D01*
X112830000Y-94540000D02*
X112830000Y-96036000D01*
X112870000Y-90972000D02*
X112870000Y-92460000D01*
X112870000Y-94540000D02*
X112870000Y-96028000D01*
X112910000Y-90981000D02*
X112910000Y-92460000D01*
X112910000Y-94540000D02*
X112910000Y-96019000D01*
X112950000Y-90990000D02*
X112950000Y-92460000D01*
X112950000Y-94540000D02*
X112950000Y-96010000D01*
X112990000Y-90999000D02*
X112990000Y-92460000D01*
X112990000Y-94540000D02*
X112990000Y-96001000D01*
X113030000Y-91010000D02*
X113030000Y-92460000D01*
X113030000Y-94540000D02*
X113030000Y-95990000D01*
X113070000Y-91021000D02*
X113070000Y-92460000D01*
X113070000Y-94540000D02*
X113070000Y-95979000D01*
X113110000Y-91033000D02*
X113110000Y-92460000D01*
X113110000Y-94540000D02*
X113110000Y-95967000D01*
X113150000Y-91045000D02*
X113150000Y-92460000D01*
X113150000Y-94540000D02*
X113150000Y-95955000D01*
X113190000Y-91058000D02*
X113190000Y-92460000D01*
X113190000Y-94540000D02*
X113190000Y-95942000D01*
X113230000Y-91072000D02*
X113230000Y-92460000D01*
X113230000Y-94540000D02*
X113230000Y-95928000D01*
X113270000Y-91087000D02*
X113270000Y-92460000D01*
X113270000Y-94540000D02*
X113270000Y-95913000D01*
X113310000Y-91102000D02*
X113310000Y-92460000D01*
X113310000Y-94540000D02*
X113310000Y-95898000D01*
X113350000Y-91118000D02*
X113350000Y-92460000D01*
X113350000Y-94540000D02*
X113350000Y-95882000D01*
X113390000Y-91135000D02*
X113390000Y-92460000D01*
X113390000Y-94540000D02*
X113390000Y-95865000D01*
X113430000Y-91153000D02*
X113430000Y-92460000D01*
X113430000Y-94540000D02*
X113430000Y-95847000D01*
X113470000Y-91171000D02*
X113470000Y-92460000D01*
X113470000Y-94540000D02*
X113470000Y-95829000D01*
X113510000Y-91191000D02*
X113510000Y-92460000D01*
X113510000Y-94540000D02*
X113510000Y-95809000D01*
X113550000Y-91211000D02*
X113550000Y-92460000D01*
X113550000Y-94540000D02*
X113550000Y-95789000D01*
X113590000Y-91232000D02*
X113590000Y-92460000D01*
X113590000Y-94540000D02*
X113590000Y-95768000D01*
X113630000Y-91254000D02*
X113630000Y-92460000D01*
X113630000Y-94540000D02*
X113630000Y-95746000D01*
X113670000Y-91277000D02*
X113670000Y-92460000D01*
X113670000Y-94540000D02*
X113670000Y-95723000D01*
X113710000Y-91301000D02*
X113710000Y-92460000D01*
X113710000Y-94540000D02*
X113710000Y-95699000D01*
X113750000Y-91325000D02*
X113750000Y-92460000D01*
X113750000Y-94540000D02*
X113750000Y-95675000D01*
X113790000Y-91351000D02*
X113790000Y-92460000D01*
X113790000Y-94540000D02*
X113790000Y-95649000D01*
X113830000Y-91378000D02*
X113830000Y-92460000D01*
X113830000Y-94540000D02*
X113830000Y-95622000D01*
X113870000Y-91406000D02*
X113870000Y-92460000D01*
X113870000Y-94540000D02*
X113870000Y-95594000D01*
X113910000Y-91435000D02*
X113910000Y-92460000D01*
X113910000Y-94540000D02*
X113910000Y-95565000D01*
X113950000Y-91465000D02*
X113950000Y-92460000D01*
X113950000Y-94540000D02*
X113950000Y-95535000D01*
X113990000Y-91497000D02*
X113990000Y-92460000D01*
X113990000Y-94540000D02*
X113990000Y-95503000D01*
X114030000Y-91530000D02*
X114030000Y-92460000D01*
X114030000Y-94540000D02*
X114030000Y-95470000D01*
X114070000Y-91564000D02*
X114070000Y-92460000D01*
X114070000Y-94540000D02*
X114070000Y-95436000D01*
X114110000Y-91599000D02*
X114110000Y-92460000D01*
X114110000Y-94540000D02*
X114110000Y-95401000D01*
X114150000Y-91636000D02*
X114150000Y-92460000D01*
X114150000Y-94540000D02*
X114150000Y-95364000D01*
X114190000Y-91675000D02*
X114190000Y-92460000D01*
X114190000Y-94540000D02*
X114190000Y-95325000D01*
X114230000Y-91715000D02*
X114230000Y-92460000D01*
X114230000Y-94540000D02*
X114230000Y-95285000D01*
X114270000Y-91757000D02*
X114270000Y-92460000D01*
X114270000Y-94540000D02*
X114270000Y-95243000D01*
X114310000Y-91801000D02*
X114310000Y-92460000D01*
X114310000Y-94540000D02*
X114310000Y-95199000D01*
X114350000Y-91848000D02*
X114350000Y-92460000D01*
X114350000Y-94540000D02*
X114350000Y-95152000D01*
X114390000Y-91896000D02*
X114390000Y-92460000D01*
X114390000Y-94540000D02*
X114390000Y-95104000D01*
X114430000Y-91947000D02*
X114430000Y-92460000D01*
X114430000Y-94540000D02*
X114430000Y-95053000D01*
X114470000Y-92001000D02*
X114470000Y-92460000D01*
X114470000Y-94540000D02*
X114470000Y-94999000D01*
X114510000Y-92057000D02*
X114510000Y-92460000D01*
X114510000Y-94540000D02*
X114510000Y-94943000D01*
X114550000Y-92117000D02*
X114550000Y-92460000D01*
X114550000Y-94540000D02*
X114550000Y-94883000D01*
X114590000Y-92181000D02*
X114590000Y-92460000D01*
X114590000Y-94540000D02*
X114590000Y-94819000D01*
X114630000Y-92249000D02*
X114630000Y-92460000D01*
X114630000Y-94540000D02*
X114630000Y-94751000D01*
X114670000Y-92323000D02*
X114670000Y-94677000D01*
X114710000Y-92402000D02*
X114710000Y-94598000D01*
X114750000Y-92489000D02*
X114750000Y-94511000D01*
X114790000Y-92586000D02*
X114790000Y-94414000D01*
X114830000Y-92695000D02*
X114830000Y-94305000D01*
X114870000Y-92823000D02*
X114870000Y-94177000D01*
X114910000Y-92983000D02*
X114910000Y-94017000D01*
X114950000Y-93217000D02*
X114950000Y-93783000D01*
X114970000Y-93500000D02*
G75*
G02*
X109730000Y-93500000I-2620000J0D01*
G01*
X109730000Y-93500000D02*
G75*
G02*
X114970000Y-93500000I2620000J0D01*
G01*
G04 #@! TO.C,U1*
X111050000Y-98140000D02*
X121270000Y-98140000D01*
X111050000Y-102760000D02*
X111050000Y-98140000D01*
X114310000Y-102760000D02*
X114310000Y-101380000D01*
X118010000Y-102760000D02*
X118010000Y-101380000D01*
X121270000Y-98140000D02*
X121270000Y-102760000D01*
X121270000Y-101380000D02*
X111050000Y-101380000D01*
X121270000Y-102760000D02*
X111050000Y-102760000D01*
G04 #@! TD*
%LPC*%
D12*
G04 #@! TO.C,D2*
X125600000Y-91650000D03*
D13*
X125600000Y-104350000D03*
G04 #@! TD*
D14*
G04 #@! TO.C,D1*
X113760000Y-106000000D03*
D15*
X116300000Y-106000000D03*
G04 #@! TD*
D16*
G04 #@! TO.C,J2*
X103500000Y-93820000D03*
D17*
X103500000Y-98900000D03*
G04 #@! TD*
D18*
G04 #@! TO.C,R1*
X110760000Y-106000000D03*
X100600000Y-106000000D03*
G04 #@! TD*
D19*
G04 #@! TO.C,J1*
X135300000Y-99800000D03*
D17*
X135300000Y-94720000D03*
G04 #@! TD*
D20*
G04 #@! TO.C,C1*
X119705100Y-93500000D03*
D18*
X117205100Y-93500000D03*
G04 #@! TD*
D21*
G04 #@! TO.C,C2*
X111100000Y-93500000D03*
D18*
X113600000Y-93500000D03*
G04 #@! TD*
D22*
G04 #@! TO.C,U1*
X118700000Y-99500000D03*
D23*
X116160000Y-99500000D03*
X113620000Y-99500000D03*
G04 #@! TD*
%LPD*%
M02*
