G04 #@! TF.GenerationSoftware,KiCad,Pcbnew,9.0.7-1.fc43*
G04 #@! TF.CreationDate,2026-02-20T23:12:53+05:30*
G04 #@! TF.ProjectId,7805 voltage regulator,37383035-2076-46f6-9c74-616765207265,rev?*
G04 #@! TF.SameCoordinates,Original*
G04 #@! TF.FileFunction,Copper,L1,Top*
G04 #@! TF.FilePolarity,Positive*
%FSLAX46Y46*%
G04 Gerber Fmt 4.6, Leading zero omitted, Abs format (unit mm)*
G04 Created by KiCad (PCBNEW 9.0.7-1.fc43) date 2026-02-20 23:12:53*
%MOMM*%
%LPD*%
G01*
G04 APERTURE LIST*
G04 Aperture macros list*
%AMRoundRect*
0 Rectangle with rounded corners*
0 $1 Rounding radius*
0 $2 $3 $4 $5 $6 $7 $8 $9 X,Y pos of 4 corners*
0 Add a 4 corners polygon primitive as box body*
4,1,4,$2,$3,$4,$5,$6,$7,$8,$9,$2,$3,0*
0 Add four circle primitives for the rounded corners*
1,1,$1+$1,$2,$3*
1,1,$1+$1,$4,$5*
1,1,$1+$1,$6,$7*
1,1,$1+$1,$8,$9*
0 Add four rect primitives between the rounded corners*
20,1,$1+$1,$2,$3,$4,$5,0*
20,1,$1+$1,$4,$5,$6,$7,0*
20,1,$1+$1,$6,$7,$8,$9,0*
20,1,$1+$1,$8,$9,$2,$3,0*%
G04 Aperture macros list end*
G04 #@! TA.AperFunction,ComponentPad*
%ADD10RoundRect,0.250001X-0.949999X0.949999X-0.949999X-0.949999X0.949999X-0.949999X0.949999X0.949999X0*%
G04 #@! TD*
G04 #@! TA.AperFunction,ComponentPad*
%ADD11C,2.400000*%
G04 #@! TD*
G04 #@! TA.AperFunction,ComponentPad*
%ADD12R,1.800000X1.800000*%
G04 #@! TD*
G04 #@! TA.AperFunction,ComponentPad*
%ADD13C,1.800000*%
G04 #@! TD*
G04 #@! TA.AperFunction,ComponentPad*
%ADD14RoundRect,0.249999X-1.550001X0.790001X-1.550001X-0.790001X1.550001X-0.790001X1.550001X0.790001X0*%
G04 #@! TD*
G04 #@! TA.AperFunction,ComponentPad*
%ADD15O,3.600000X2.080000*%
G04 #@! TD*
G04 #@! TA.AperFunction,ComponentPad*
%ADD16C,1.600000*%
G04 #@! TD*
G04 #@! TA.AperFunction,ComponentPad*
%ADD17RoundRect,0.249999X1.550001X-0.790001X1.550001X0.790001X-1.550001X0.790001X-1.550001X-0.790001X0*%
G04 #@! TD*
G04 #@! TA.AperFunction,ComponentPad*
%ADD18RoundRect,0.250000X0.550000X0.550000X-0.550000X0.550000X-0.550000X-0.550000X0.550000X-0.550000X0*%
G04 #@! TD*
G04 #@! TA.AperFunction,ComponentPad*
%ADD19RoundRect,0.250000X-0.550000X-0.550000X0.550000X-0.550000X0.550000X0.550000X-0.550000X0.550000X0*%
G04 #@! TD*
G04 #@! TA.AperFunction,ComponentPad*
%ADD20R,1.905000X2.000000*%
G04 #@! TD*
G04 #@! TA.AperFunction,ComponentPad*
%ADD21O,1.905000X2.000000*%
G04 #@! TD*
G04 APERTURE END LIST*
D10*
G04 #@! TO.P,D2,1,K*
G04 #@! TO.N,Net-(D2-K)*
X125600000Y-91650000D03*
D11*
G04 #@! TO.P,D2,2,A*
G04 #@! TO.N,Net-(D2-A)*
X125600000Y-104350000D03*
G04 #@! TD*
D12*
G04 #@! TO.P,D1,1,K*
G04 #@! TO.N,Net-(D1-K)*
X113760000Y-106000000D03*
D13*
G04 #@! TO.P,D1,2,A*
G04 #@! TO.N,Net-(D1-A)*
X116300000Y-106000000D03*
G04 #@! TD*
D14*
G04 #@! TO.P,J2,1,Pin_1*
G04 #@! TO.N,Net-(D1-A)*
X103500000Y-93820000D03*
D15*
G04 #@! TO.P,J2,2,Pin_2*
G04 #@! TO.N,GND*
X103500000Y-98900000D03*
G04 #@! TD*
D16*
G04 #@! TO.P,R1,1*
G04 #@! TO.N,Net-(D1-K)*
X110760000Y-106000000D03*
G04 #@! TO.P,R1,2*
G04 #@! TO.N,GND*
X100600000Y-106000000D03*
G04 #@! TD*
D17*
G04 #@! TO.P,J1,1,Pin_1*
G04 #@! TO.N,GND*
X135300000Y-99800000D03*
D15*
G04 #@! TO.P,J1,2,Pin_2*
G04 #@! TO.N,Net-(D2-A)*
X135300000Y-94720000D03*
G04 #@! TD*
D18*
G04 #@! TO.P,C1,1*
G04 #@! TO.N,Net-(D2-K)*
X119705100Y-93500000D03*
D16*
G04 #@! TO.P,C1,2*
G04 #@! TO.N,GND*
X117205100Y-93500000D03*
G04 #@! TD*
D19*
G04 #@! TO.P,C2,1*
G04 #@! TO.N,Net-(D1-A)*
X111100000Y-93500000D03*
D16*
G04 #@! TO.P,C2,2*
G04 #@! TO.N,GND*
X113600000Y-93500000D03*
G04 #@! TD*
D20*
G04 #@! TO.P,U1,1,VI*
G04 #@! TO.N,Net-(D2-K)*
X118700000Y-99500000D03*
D21*
G04 #@! TO.P,U1,2,GND*
G04 #@! TO.N,GND*
X116160000Y-99500000D03*
G04 #@! TO.P,U1,3,VO*
G04 #@! TO.N,Net-(D1-A)*
X113620000Y-99500000D03*
G04 #@! TD*
G04 #@! TA.AperFunction,Conductor*
G04 #@! TO.N,GND*
G36*
X141212539Y-88850185D02*
G01*
X141258294Y-88902989D01*
X141269500Y-88954500D01*
X141269500Y-108805500D01*
X141249815Y-108872539D01*
X141197011Y-108918294D01*
X141145500Y-108929500D01*
X99394500Y-108929500D01*
X99327461Y-108909815D01*
X99281706Y-108857011D01*
X99270500Y-108805500D01*
X99270500Y-106763426D01*
X99290185Y-106696387D01*
X99342989Y-106650632D01*
X99412147Y-106640688D01*
X99475703Y-106669713D01*
X99494819Y-106690541D01*
X99520524Y-106725922D01*
X100200000Y-106046446D01*
X100200000Y-106052661D01*
X100227259Y-106154394D01*
X100279920Y-106245606D01*
X100354394Y-106320080D01*
X100445606Y-106372741D01*
X100547339Y-106400000D01*
X100553553Y-106400000D01*
X99874076Y-107079474D01*
X99918650Y-107111859D01*
X100100968Y-107204755D01*
X100295582Y-107267990D01*
X100497683Y-107300000D01*
X100702317Y-107300000D01*
X100904417Y-107267990D01*
X101099031Y-107204755D01*
X101281349Y-107111859D01*
X101325921Y-107079474D01*
X100646447Y-106400000D01*
X100652661Y-106400000D01*
X100754394Y-106372741D01*
X100845606Y-106320080D01*
X100920080Y-106245606D01*
X100972741Y-106154394D01*
X101000000Y-106052661D01*
X101000000Y-106046448D01*
X101679474Y-106725922D01*
X101679474Y-106725921D01*
X101711859Y-106681349D01*
X101804755Y-106499031D01*
X101867990Y-106304417D01*
X101900000Y-106102317D01*
X101900000Y-105897682D01*
X101899995Y-105897648D01*
X109459500Y-105897648D01*
X109459500Y-106102351D01*
X109491522Y-106304534D01*
X109554781Y-106499223D01*
X109618691Y-106624653D01*
X109641651Y-106669713D01*
X109647715Y-106681613D01*
X109768028Y-106847213D01*
X109912786Y-106991971D01*
X110033226Y-107079474D01*
X110078390Y-107112287D01*
X110194607Y-107171503D01*
X110260776Y-107205218D01*
X110260778Y-107205218D01*
X110260781Y-107205220D01*
X110365137Y-107239127D01*
X110455465Y-107268477D01*
X110556557Y-107284488D01*
X110657648Y-107300500D01*
X110657649Y-107300500D01*
X110862351Y-107300500D01*
X110862352Y-107300500D01*
X111064534Y-107268477D01*
X111259219Y-107205220D01*
X111441610Y-107112287D01*
X111534590Y-107044732D01*
X111607213Y-106991971D01*
X111607215Y-106991968D01*
X111607219Y-106991966D01*
X111751966Y-106847219D01*
X111751968Y-106847215D01*
X111751971Y-106847213D01*
X111812845Y-106763426D01*
X111872287Y-106681610D01*
X111965220Y-106499219D01*
X112028477Y-106304534D01*
X112060500Y-106102352D01*
X112060500Y-105897648D01*
X112028477Y-105695465D01*
X111997458Y-105600000D01*
X111965220Y-105500781D01*
X111965218Y-105500778D01*
X111965218Y-105500776D01*
X111892521Y-105358102D01*
X111872287Y-105318390D01*
X111856582Y-105296774D01*
X111751971Y-105152786D01*
X111651320Y-105052135D01*
X112359500Y-105052135D01*
X112359500Y-106947870D01*
X112359501Y-106947876D01*
X112365908Y-107007483D01*
X112416202Y-107142328D01*
X112416206Y-107142335D01*
X112502452Y-107257544D01*
X112502455Y-107257547D01*
X112617664Y-107343793D01*
X112617671Y-107343797D01*
X112752517Y-107394091D01*
X112752516Y-107394091D01*
X112759444Y-107394835D01*
X112812127Y-107400500D01*
X114707872Y-107400499D01*
X114767483Y-107394091D01*
X114902331Y-107343796D01*
X115017546Y-107257546D01*
X115103796Y-107142331D01*
X115131429Y-107068243D01*
X115133601Y-107062420D01*
X115175471Y-107006486D01*
X115240936Y-106982068D01*
X115309209Y-106996919D01*
X115337464Y-107018071D01*
X115387636Y-107068243D01*
X115387641Y-107068247D01*
X115448258Y-107112287D01*
X115565978Y-107197815D01*
X115694375Y-107263237D01*
X115762393Y-107297895D01*
X115762396Y-107297896D01*
X115867221Y-107331955D01*
X115972049Y-107366015D01*
X116189778Y-107400500D01*
X116189779Y-107400500D01*
X116410221Y-107400500D01*
X116410222Y-107400500D01*
X116627951Y-107366015D01*
X116837606Y-107297895D01*
X117034022Y-107197815D01*
X117212365Y-107068242D01*
X117368242Y-106912365D01*
X117497815Y-106734022D01*
X117597895Y-106537606D01*
X117666015Y-106327951D01*
X117700500Y-106110222D01*
X117700500Y-105889778D01*
X117666015Y-105672049D01*
X117610366Y-105500776D01*
X117597896Y-105462396D01*
X117597895Y-105462393D01*
X117544755Y-105358102D01*
X117497815Y-105265978D01*
X117379930Y-105103722D01*
X117368247Y-105087641D01*
X117368243Y-105087636D01*
X117212363Y-104931756D01*
X117212358Y-104931752D01*
X117034025Y-104802187D01*
X117034024Y-104802186D01*
X117034022Y-104802185D01*
X116916791Y-104742452D01*
X116837606Y-104702104D01*
X116837603Y-104702103D01*
X116627952Y-104633985D01*
X116519086Y-104616742D01*
X116410222Y-104599500D01*
X116189778Y-104599500D01*
X116117201Y-104610995D01*
X115972047Y-104633985D01*
X115762396Y-104702103D01*
X115762393Y-104702104D01*
X115565974Y-104802187D01*
X115387641Y-104931752D01*
X115387636Y-104931756D01*
X115337463Y-104981929D01*
X115276140Y-105015413D01*
X115206448Y-105010428D01*
X115150515Y-104968557D01*
X115133601Y-104937580D01*
X115103797Y-104857671D01*
X115103793Y-104857664D01*
X115017547Y-104742455D01*
X115017544Y-104742452D01*
X114902335Y-104656206D01*
X114902328Y-104656202D01*
X114767482Y-104605908D01*
X114767483Y-104605908D01*
X114707883Y-104599501D01*
X114707881Y-104599500D01*
X114707873Y-104599500D01*
X114707864Y-104599500D01*
X112812129Y-104599500D01*
X112812123Y-104599501D01*
X112752516Y-104605908D01*
X112617671Y-104656202D01*
X112617664Y-104656206D01*
X112502455Y-104742452D01*
X112502452Y-104742455D01*
X112416206Y-104857664D01*
X112416202Y-104857671D01*
X112365908Y-104992517D01*
X112359501Y-105052116D01*
X112359500Y-105052135D01*
X111651320Y-105052135D01*
X111607213Y-105008028D01*
X111441613Y-104887715D01*
X111441612Y-104887714D01*
X111441610Y-104887713D01*
X111382636Y-104857664D01*
X111259223Y-104794781D01*
X111064534Y-104731522D01*
X110878799Y-104702105D01*
X110862352Y-104699500D01*
X110657648Y-104699500D01*
X110641201Y-104702105D01*
X110455465Y-104731522D01*
X110260776Y-104794781D01*
X110078386Y-104887715D01*
X109912786Y-105008028D01*
X109768028Y-105152786D01*
X109647715Y-105318386D01*
X109554781Y-105500776D01*
X109491522Y-105695465D01*
X109459500Y-105897648D01*
X101899995Y-105897648D01*
X101867990Y-105695582D01*
X101804755Y-105500968D01*
X101711859Y-105318650D01*
X101679474Y-105274077D01*
X101679474Y-105274076D01*
X101000000Y-105953551D01*
X101000000Y-105947339D01*
X100972741Y-105845606D01*
X100920080Y-105754394D01*
X100845606Y-105679920D01*
X100754394Y-105627259D01*
X100652661Y-105600000D01*
X100646446Y-105600000D01*
X101325922Y-104920524D01*
X101325921Y-104920523D01*
X101281359Y-104888147D01*
X101281350Y-104888141D01*
X101099031Y-104795244D01*
X100904417Y-104732009D01*
X100702317Y-104700000D01*
X100497683Y-104700000D01*
X100295582Y-104732009D01*
X100100968Y-104795244D01*
X99918644Y-104888143D01*
X99874077Y-104920523D01*
X99874077Y-104920524D01*
X100553554Y-105600000D01*
X100547339Y-105600000D01*
X100445606Y-105627259D01*
X100354394Y-105679920D01*
X100279920Y-105754394D01*
X100227259Y-105845606D01*
X100200000Y-105947339D01*
X100200000Y-105953553D01*
X99520524Y-105274077D01*
X99520522Y-105274077D01*
X99494818Y-105309457D01*
X99439489Y-105352123D01*
X99369875Y-105358102D01*
X99308080Y-105325497D01*
X99273723Y-105264658D01*
X99270500Y-105236572D01*
X99270500Y-104238549D01*
X123899500Y-104238549D01*
X123899500Y-104461450D01*
X123899501Y-104461466D01*
X123928594Y-104682452D01*
X123928595Y-104682457D01*
X123928596Y-104682463D01*
X123983593Y-104887715D01*
X123986290Y-104897780D01*
X123986293Y-104897790D01*
X124050217Y-105052116D01*
X124071595Y-105103726D01*
X124183052Y-105296774D01*
X124183057Y-105296780D01*
X124183058Y-105296782D01*
X124318751Y-105473622D01*
X124318757Y-105473629D01*
X124476370Y-105631242D01*
X124476377Y-105631248D01*
X124539808Y-105679920D01*
X124653226Y-105766948D01*
X124846274Y-105878405D01*
X125052219Y-105963710D01*
X125267537Y-106021404D01*
X125488543Y-106050500D01*
X125488550Y-106050500D01*
X125711450Y-106050500D01*
X125711457Y-106050500D01*
X125932463Y-106021404D01*
X126147781Y-105963710D01*
X126353726Y-105878405D01*
X126546774Y-105766948D01*
X126723624Y-105631247D01*
X126881247Y-105473624D01*
X127016948Y-105296774D01*
X127128405Y-105103726D01*
X127213710Y-104897781D01*
X127271404Y-104682463D01*
X127300500Y-104461457D01*
X127300500Y-104238543D01*
X127271404Y-104017537D01*
X127213710Y-103802219D01*
X127128405Y-103596274D01*
X127016948Y-103403226D01*
X126881247Y-103226376D01*
X126881242Y-103226370D01*
X126723629Y-103068757D01*
X126723622Y-103068751D01*
X126546782Y-102933058D01*
X126546780Y-102933057D01*
X126546774Y-102933052D01*
X126353726Y-102821595D01*
X126353722Y-102821593D01*
X126147790Y-102736293D01*
X126147783Y-102736291D01*
X126147781Y-102736290D01*
X125932463Y-102678596D01*
X125932457Y-102678595D01*
X125932452Y-102678594D01*
X125711466Y-102649501D01*
X125711463Y-102649500D01*
X125711457Y-102649500D01*
X125488543Y-102649500D01*
X125488537Y-102649500D01*
X125488533Y-102649501D01*
X125267547Y-102678594D01*
X125267540Y-102678595D01*
X125267537Y-102678596D01*
X125052219Y-102736290D01*
X125052209Y-102736293D01*
X124846277Y-102821593D01*
X124846273Y-102821595D01*
X124653226Y-102933052D01*
X124653217Y-102933058D01*
X124476377Y-103068751D01*
X124476370Y-103068757D01*
X124318757Y-103226370D01*
X124318751Y-103226377D01*
X124183058Y-103403217D01*
X124183052Y-103403226D01*
X124071595Y-103596273D01*
X124071593Y-103596277D01*
X123986293Y-103802209D01*
X123986290Y-103802219D01*
X123928597Y-104017534D01*
X123928594Y-104017547D01*
X123899501Y-104238533D01*
X123899500Y-104238549D01*
X99270500Y-104238549D01*
X99270500Y-98650000D01*
X101220400Y-98650000D01*
X102845879Y-98650000D01*
X102826901Y-98695818D01*
X102800000Y-98831056D01*
X102800000Y-98968944D01*
X102826901Y-99104182D01*
X102845879Y-99150000D01*
X101220400Y-99150000D01*
X101237919Y-99260618D01*
X101312827Y-99491159D01*
X101422874Y-99707136D01*
X101565356Y-99903245D01*
X101736754Y-100074643D01*
X101932863Y-100217125D01*
X102148840Y-100327172D01*
X102379381Y-100402079D01*
X102618800Y-100440000D01*
X103250000Y-100440000D01*
X103250000Y-99554120D01*
X103295818Y-99573099D01*
X103431056Y-99600000D01*
X103568944Y-99600000D01*
X103704182Y-99573099D01*
X103750000Y-99554120D01*
X103750000Y-100440000D01*
X104381200Y-100440000D01*
X104620618Y-100402079D01*
X104851159Y-100327172D01*
X105067136Y-100217125D01*
X105263245Y-100074643D01*
X105434643Y-99903245D01*
X105577125Y-99707136D01*
X105687172Y-99491157D01*
X105736889Y-99338146D01*
X112167000Y-99338146D01*
X112167000Y-99661853D01*
X112202778Y-99887746D01*
X112202778Y-99887749D01*
X112273450Y-100105255D01*
X112330451Y-100217125D01*
X112377283Y-100309038D01*
X112511714Y-100494066D01*
X112673434Y-100655786D01*
X112858462Y-100790217D01*
X112990599Y-100857544D01*
X113062244Y-100894049D01*
X113279751Y-100964721D01*
X113279752Y-100964721D01*
X113279755Y-100964722D01*
X113505646Y-101000500D01*
X113505647Y-101000500D01*
X113734353Y-101000500D01*
X113734354Y-101000500D01*
X113960245Y-100964722D01*
X113960248Y-100964721D01*
X113960249Y-100964721D01*
X114177755Y-100894049D01*
X114177755Y-100894048D01*
X114177758Y-100894048D01*
X114381538Y-100790217D01*
X114566566Y-100655786D01*
X114728286Y-100494066D01*
X114789992Y-100409134D01*
X114845319Y-100366470D01*
X114914932Y-100360491D01*
X114976727Y-100393096D01*
X114990626Y-100409135D01*
X115052097Y-100493741D01*
X115052097Y-100493742D01*
X115213757Y-100655402D01*
X115398723Y-100789788D01*
X115602429Y-100893582D01*
X115819871Y-100964234D01*
X115910000Y-100978509D01*
X115910000Y-99990747D01*
X115947708Y-100012518D01*
X116087591Y-100050000D01*
X116232409Y-100050000D01*
X116372292Y-100012518D01*
X116410000Y-99990747D01*
X116410000Y-100978508D01*
X116500128Y-100964234D01*
X116717570Y-100893582D01*
X116921276Y-100789788D01*
X117104059Y-100656988D01*
X117169865Y-100633508D01*
X117237919Y-100649333D01*
X117286614Y-100699439D01*
X117293127Y-100713974D01*
X117303701Y-100742326D01*
X117303706Y-100742335D01*
X117389952Y-100857544D01*
X117389955Y-100857547D01*
X117505164Y-100943793D01*
X117505171Y-100943797D01*
X117640017Y-100994091D01*
X117640016Y-100994091D01*
X117646944Y-100994835D01*
X117699627Y-101000500D01*
X119700372Y-101000499D01*
X119759983Y-100994091D01*
X119894831Y-100943796D01*
X120010046Y-100857546D01*
X120096296Y-100742331D01*
X120146591Y-100607483D01*
X120153000Y-100547873D01*
X120152999Y-99491159D01*
X120152999Y-98960013D01*
X133000000Y-98960013D01*
X133000000Y-99550000D01*
X134645879Y-99550000D01*
X134626901Y-99595818D01*
X134600000Y-99731056D01*
X134600000Y-99868944D01*
X134626901Y-100004182D01*
X134645879Y-100050000D01*
X133000001Y-100050000D01*
X133000001Y-100639986D01*
X133010494Y-100742696D01*
X133010494Y-100742698D01*
X133065640Y-100909119D01*
X133065645Y-100909130D01*
X133157680Y-101058340D01*
X133157683Y-101058344D01*
X133281655Y-101182316D01*
X133281659Y-101182319D01*
X133430869Y-101274354D01*
X133430880Y-101274359D01*
X133597302Y-101329505D01*
X133700020Y-101339999D01*
X135049999Y-101339999D01*
X135050000Y-101339998D01*
X135050000Y-100454120D01*
X135095818Y-100473099D01*
X135231056Y-100500000D01*
X135368944Y-100500000D01*
X135504182Y-100473099D01*
X135550000Y-100454120D01*
X135550000Y-101339999D01*
X136899972Y-101339999D01*
X136899986Y-101339998D01*
X137002696Y-101329505D01*
X137002698Y-101329505D01*
X137169119Y-101274359D01*
X137169130Y-101274354D01*
X137318340Y-101182319D01*
X137318344Y-101182316D01*
X137442316Y-101058344D01*
X137442319Y-101058340D01*
X137534354Y-100909130D01*
X137534359Y-100909119D01*
X137589505Y-100742697D01*
X137599999Y-100639986D01*
X137600000Y-100639973D01*
X137600000Y-100050000D01*
X135954121Y-100050000D01*
X135973099Y-100004182D01*
X136000000Y-99868944D01*
X136000000Y-99731056D01*
X135973099Y-99595818D01*
X135954121Y-99550000D01*
X137599999Y-99550000D01*
X137599999Y-98960028D01*
X137599998Y-98960013D01*
X137589505Y-98857303D01*
X137589505Y-98857301D01*
X137534359Y-98690880D01*
X137534354Y-98690869D01*
X137442319Y-98541659D01*
X137442316Y-98541655D01*
X137318344Y-98417683D01*
X137318340Y-98417680D01*
X137169130Y-98325645D01*
X137169119Y-98325640D01*
X137002697Y-98270494D01*
X136899986Y-98260000D01*
X135550000Y-98260000D01*
X135550000Y-99145879D01*
X135504182Y-99126901D01*
X135368944Y-99100000D01*
X135231056Y-99100000D01*
X135095818Y-99126901D01*
X135050000Y-99145879D01*
X135050000Y-98260000D01*
X133700028Y-98260000D01*
X133700012Y-98260001D01*
X133597303Y-98270494D01*
X133597301Y-98270494D01*
X133430880Y-98325640D01*
X133430869Y-98325645D01*
X133281659Y-98417680D01*
X133281655Y-98417683D01*
X133157683Y-98541655D01*
X133157680Y-98541659D01*
X133065645Y-98690869D01*
X133065640Y-98690880D01*
X133010494Y-98857302D01*
X133000000Y-98960013D01*
X120152999Y-98960013D01*
X120152999Y-98956864D01*
X120152999Y-98452129D01*
X120152998Y-98452123D01*
X120146591Y-98392516D01*
X120096297Y-98257671D01*
X120096293Y-98257664D01*
X120010047Y-98142455D01*
X120010044Y-98142452D01*
X119894835Y-98056206D01*
X119894828Y-98056202D01*
X119759982Y-98005908D01*
X119759983Y-98005908D01*
X119700383Y-97999501D01*
X119700381Y-97999500D01*
X119700373Y-97999500D01*
X119700364Y-97999500D01*
X117699629Y-97999500D01*
X117699623Y-97999501D01*
X117640016Y-98005908D01*
X117505171Y-98056202D01*
X117505164Y-98056206D01*
X117389955Y-98142452D01*
X117389952Y-98142455D01*
X117303706Y-98257664D01*
X117303702Y-98257671D01*
X117293127Y-98286026D01*
X117251256Y-98341960D01*
X117185791Y-98366377D01*
X117117518Y-98351525D01*
X117104060Y-98343011D01*
X116921279Y-98210213D01*
X116717568Y-98106417D01*
X116500124Y-98035765D01*
X116410000Y-98021490D01*
X116410000Y-99009252D01*
X116372292Y-98987482D01*
X116232409Y-98950000D01*
X116087591Y-98950000D01*
X115947708Y-98987482D01*
X115910000Y-99009252D01*
X115910000Y-98021490D01*
X115909999Y-98021490D01*
X115819875Y-98035765D01*
X115602431Y-98106417D01*
X115398723Y-98210211D01*
X115213757Y-98344597D01*
X115052097Y-98506257D01*
X114990627Y-98590864D01*
X114935297Y-98633529D01*
X114865684Y-98639508D01*
X114803889Y-98606902D01*
X114789991Y-98590864D01*
X114728286Y-98505934D01*
X114566566Y-98344214D01*
X114381538Y-98209783D01*
X114362338Y-98200000D01*
X114177755Y-98105950D01*
X113960248Y-98035278D01*
X113774812Y-98005908D01*
X113734354Y-97999500D01*
X113505646Y-97999500D01*
X113465188Y-98005908D01*
X113279753Y-98035278D01*
X113279750Y-98035278D01*
X113062244Y-98105950D01*
X112858461Y-98209783D01*
X112762274Y-98279668D01*
X112673434Y-98344214D01*
X112673432Y-98344216D01*
X112673431Y-98344216D01*
X112511716Y-98505931D01*
X112511716Y-98505932D01*
X112511714Y-98505934D01*
X112466311Y-98568426D01*
X112377283Y-98690961D01*
X112273450Y-98894744D01*
X112202778Y-99112250D01*
X112202778Y-99112253D01*
X112167000Y-99338146D01*
X105736889Y-99338146D01*
X105750923Y-99294956D01*
X105750923Y-99294954D01*
X105762080Y-99260616D01*
X105779600Y-99150000D01*
X104154121Y-99150000D01*
X104173099Y-99104182D01*
X104200000Y-98968944D01*
X104200000Y-98831056D01*
X104173099Y-98695818D01*
X104154121Y-98650000D01*
X105779600Y-98650000D01*
X105762080Y-98539381D01*
X105687172Y-98308840D01*
X105577125Y-98092863D01*
X105434643Y-97896754D01*
X105263245Y-97725356D01*
X105067136Y-97582874D01*
X104851159Y-97472827D01*
X104620618Y-97397920D01*
X104381200Y-97360000D01*
X103750000Y-97360000D01*
X103750000Y-98245879D01*
X103704182Y-98226901D01*
X103568944Y-98200000D01*
X103431056Y-98200000D01*
X103295818Y-98226901D01*
X103250000Y-98245879D01*
X103250000Y-97360000D01*
X102618800Y-97360000D01*
X102379381Y-97397920D01*
X102148840Y-97472827D01*
X101932863Y-97582874D01*
X101736754Y-97725356D01*
X101565356Y-97896754D01*
X101422874Y-98092863D01*
X101312827Y-98308840D01*
X101237919Y-98539381D01*
X101220400Y-98650000D01*
X99270500Y-98650000D01*
X99270500Y-92979982D01*
X101199500Y-92979982D01*
X101199500Y-94660017D01*
X101210000Y-94762796D01*
X101222494Y-94800499D01*
X101265186Y-94929335D01*
X101357288Y-95078656D01*
X101481344Y-95202712D01*
X101630665Y-95294814D01*
X101797202Y-95349999D01*
X101899990Y-95360500D01*
X101899995Y-95360500D01*
X105100005Y-95360500D01*
X105100010Y-95360500D01*
X105202798Y-95349999D01*
X105369335Y-95294814D01*
X105518656Y-95202712D01*
X105642712Y-95078656D01*
X105734814Y-94929335D01*
X105789999Y-94762798D01*
X105800500Y-94660010D01*
X105800500Y-92979990D01*
X105792326Y-92899983D01*
X109799500Y-92899983D01*
X109799500Y-94100001D01*
X109799501Y-94100018D01*
X109810000Y-94202796D01*
X109810001Y-94202799D01*
X109825681Y-94250116D01*
X109865186Y-94369334D01*
X109957288Y-94518656D01*
X110081344Y-94642712D01*
X110230666Y-94734814D01*
X110397203Y-94789999D01*
X110499991Y-94800500D01*
X111700008Y-94800499D01*
X111802797Y-94789999D01*
X111969334Y-94734814D01*
X112118656Y-94642712D01*
X112242712Y-94518656D01*
X112334814Y-94369334D01*
X112358102Y-94299054D01*
X112362110Y-94291050D01*
X112380060Y-94271772D01*
X112395055Y-94250116D01*
X112403495Y-94246606D01*
X112409725Y-94239917D01*
X112435249Y-94233404D01*
X112459571Y-94223292D01*
X112475834Y-94223048D01*
X112477425Y-94222643D01*
X112478523Y-94223008D01*
X112482719Y-94222946D01*
X112520525Y-94225921D01*
X113200000Y-93546446D01*
X113200000Y-93552661D01*
X113227259Y-93654394D01*
X113279920Y-93745606D01*
X113354394Y-93820080D01*
X113445606Y-93872741D01*
X113547339Y-93900000D01*
X113553553Y-93900000D01*
X112874076Y-94579474D01*
X112918650Y-94611859D01*
X113100968Y-94704755D01*
X113295582Y-94767990D01*
X113497683Y-94800000D01*
X113702317Y-94800000D01*
X113904417Y-94767990D01*
X114099031Y-94704755D01*
X114281349Y-94611859D01*
X114325921Y-94579474D01*
X113646447Y-93900000D01*
X113652661Y-93900000D01*
X113754394Y-93872741D01*
X113845606Y-93820080D01*
X113920080Y-93745606D01*
X113972741Y-93654394D01*
X114000000Y-93552661D01*
X114000000Y-93546448D01*
X114679474Y-94225922D01*
X114679474Y-94225921D01*
X114711859Y-94181349D01*
X114804755Y-93999031D01*
X114867990Y-93804417D01*
X114900000Y-93602317D01*
X114900000Y-93397682D01*
X115905100Y-93397682D01*
X115905100Y-93602317D01*
X115937109Y-93804417D01*
X116000344Y-93999031D01*
X116093241Y-94181350D01*
X116093247Y-94181359D01*
X116125623Y-94225921D01*
X116125624Y-94225922D01*
X116805100Y-93546446D01*
X116805100Y-93552661D01*
X116832359Y-93654394D01*
X116885020Y-93745606D01*
X116959494Y-93820080D01*
X117050706Y-93872741D01*
X117152439Y-93900000D01*
X117158653Y-93900000D01*
X116479176Y-94579474D01*
X116523750Y-94611859D01*
X116706068Y-94704755D01*
X116900682Y-94767990D01*
X117102783Y-94800000D01*
X117307417Y-94800000D01*
X117509517Y-94767990D01*
X117704131Y-94704755D01*
X117886449Y-94611859D01*
X117931021Y-94579474D01*
X117251547Y-93900000D01*
X117257761Y-93900000D01*
X117359494Y-93872741D01*
X117450706Y-93820080D01*
X117525180Y-93745606D01*
X117577841Y-93654394D01*
X117605100Y-93552661D01*
X117605100Y-93546448D01*
X118284573Y-94225921D01*
X118322380Y-94222946D01*
X118390758Y-94237310D01*
X118440515Y-94286361D01*
X118449814Y-94307556D01*
X118470286Y-94369334D01*
X118562388Y-94518656D01*
X118686444Y-94642712D01*
X118835766Y-94734814D01*
X119002303Y-94789999D01*
X119105091Y-94800500D01*
X120305108Y-94800499D01*
X120407897Y-94789999D01*
X120574434Y-94734814D01*
X120723756Y-94642712D01*
X120767714Y-94598754D01*
X132999500Y-94598754D01*
X132999500Y-94841245D01*
X133037432Y-95080736D01*
X133112360Y-95311344D01*
X133222448Y-95527401D01*
X133364966Y-95723562D01*
X133364970Y-95723567D01*
X133536432Y-95895029D01*
X133536437Y-95895033D01*
X133707539Y-96019345D01*
X133732602Y-96037554D01*
X133948653Y-96147638D01*
X133948655Y-96147639D01*
X134063959Y-96185103D01*
X134179265Y-96222568D01*
X134290186Y-96240136D01*
X134418755Y-96260500D01*
X134418760Y-96260500D01*
X136181245Y-96260500D01*
X136297347Y-96242110D01*
X136420735Y-96222568D01*
X136651347Y-96147638D01*
X136867398Y-96037554D01*
X137063569Y-95895028D01*
X137235028Y-95723569D01*
X137377554Y-95527398D01*
X137487638Y-95311347D01*
X137562568Y-95080735D01*
X137586548Y-94929332D01*
X137600500Y-94841245D01*
X137600500Y-94598754D01*
X137578432Y-94459431D01*
X137562568Y-94359265D01*
X137522943Y-94237310D01*
X137487639Y-94128655D01*
X137473043Y-94100009D01*
X137377554Y-93912602D01*
X137310333Y-93820080D01*
X137235033Y-93716437D01*
X137235029Y-93716432D01*
X137063567Y-93544970D01*
X137063562Y-93544966D01*
X136867401Y-93402448D01*
X136867400Y-93402447D01*
X136867398Y-93402446D01*
X136755844Y-93345606D01*
X136651344Y-93292360D01*
X136420736Y-93217432D01*
X136181245Y-93179500D01*
X136181240Y-93179500D01*
X134418760Y-93179500D01*
X134418755Y-93179500D01*
X134179263Y-93217432D01*
X133948655Y-93292360D01*
X133732598Y-93402448D01*
X133536437Y-93544966D01*
X133536432Y-93544970D01*
X133364970Y-93716432D01*
X133364966Y-93716437D01*
X133222448Y-93912598D01*
X133112360Y-94128655D01*
X133037432Y-94359263D01*
X132999500Y-94598754D01*
X120767714Y-94598754D01*
X120847812Y-94518656D01*
X120939914Y-94369334D01*
X120995099Y-94202797D01*
X121005600Y-94100009D01*
X121005599Y-92899992D01*
X120995099Y-92797203D01*
X120939914Y-92630666D01*
X120847812Y-92481344D01*
X120723756Y-92357288D01*
X120574434Y-92265186D01*
X120407897Y-92210001D01*
X120407895Y-92210000D01*
X120305110Y-92199500D01*
X119105098Y-92199500D01*
X119105081Y-92199501D01*
X119002303Y-92210000D01*
X119002300Y-92210001D01*
X118835768Y-92265185D01*
X118835763Y-92265187D01*
X118686442Y-92357289D01*
X118562389Y-92481342D01*
X118470287Y-92630663D01*
X118470285Y-92630668D01*
X118449817Y-92692438D01*
X118410044Y-92749883D01*
X118345528Y-92776706D01*
X118322383Y-92777052D01*
X118284574Y-92774076D01*
X117605100Y-93453551D01*
X117605100Y-93447339D01*
X117577841Y-93345606D01*
X117525180Y-93254394D01*
X117450706Y-93179920D01*
X117359494Y-93127259D01*
X117257761Y-93100000D01*
X117251546Y-93100000D01*
X117931022Y-92420524D01*
X117931021Y-92420523D01*
X117886459Y-92388147D01*
X117886450Y-92388141D01*
X117704131Y-92295244D01*
X117509517Y-92232009D01*
X117307417Y-92200000D01*
X117102783Y-92200000D01*
X116900682Y-92232009D01*
X116706068Y-92295244D01*
X116523744Y-92388143D01*
X116479177Y-92420523D01*
X116479177Y-92420524D01*
X117158654Y-93100000D01*
X117152439Y-93100000D01*
X117050706Y-93127259D01*
X116959494Y-93179920D01*
X116885020Y-93254394D01*
X116832359Y-93345606D01*
X116805100Y-93447339D01*
X116805100Y-93453553D01*
X116125624Y-92774077D01*
X116125623Y-92774077D01*
X116093243Y-92818644D01*
X116000344Y-93000968D01*
X115937109Y-93195582D01*
X115905100Y-93397682D01*
X114900000Y-93397682D01*
X114867990Y-93195582D01*
X114804755Y-93000968D01*
X114711859Y-92818650D01*
X114679474Y-92774077D01*
X114679474Y-92774076D01*
X114000000Y-93453551D01*
X114000000Y-93447339D01*
X113972741Y-93345606D01*
X113920080Y-93254394D01*
X113845606Y-93179920D01*
X113754394Y-93127259D01*
X113652661Y-93100000D01*
X113646446Y-93100000D01*
X114325922Y-92420524D01*
X114325921Y-92420523D01*
X114281359Y-92388147D01*
X114281350Y-92388141D01*
X114099031Y-92295244D01*
X113904417Y-92232009D01*
X113702317Y-92200000D01*
X113497683Y-92200000D01*
X113295582Y-92232009D01*
X113100968Y-92295244D01*
X112918644Y-92388143D01*
X112874077Y-92420523D01*
X112874077Y-92420524D01*
X113553554Y-93100000D01*
X113547339Y-93100000D01*
X113445606Y-93127259D01*
X113354394Y-93179920D01*
X113279920Y-93254394D01*
X113227259Y-93345606D01*
X113200000Y-93447339D01*
X113200000Y-93453553D01*
X112520524Y-92774077D01*
X112482719Y-92777053D01*
X112414341Y-92762689D01*
X112364584Y-92713638D01*
X112362110Y-92708949D01*
X112358101Y-92700942D01*
X112334814Y-92630666D01*
X112242712Y-92481344D01*
X112118656Y-92357288D01*
X111969334Y-92265186D01*
X111802797Y-92210001D01*
X111802795Y-92210000D01*
X111700010Y-92199500D01*
X110499998Y-92199500D01*
X110499981Y-92199501D01*
X110397203Y-92210000D01*
X110397200Y-92210001D01*
X110230668Y-92265185D01*
X110230663Y-92265187D01*
X110081342Y-92357289D01*
X109957289Y-92481342D01*
X109865187Y-92630663D01*
X109865185Y-92630668D01*
X109858774Y-92650015D01*
X109810001Y-92797203D01*
X109810001Y-92797204D01*
X109810000Y-92797204D01*
X109799500Y-92899983D01*
X105792326Y-92899983D01*
X105789999Y-92877202D01*
X105734814Y-92710665D01*
X105642712Y-92561344D01*
X105518656Y-92437288D01*
X105388957Y-92357289D01*
X105369337Y-92345187D01*
X105369332Y-92345185D01*
X105367863Y-92344698D01*
X105202798Y-92290001D01*
X105202796Y-92290000D01*
X105100017Y-92279500D01*
X105100010Y-92279500D01*
X101899990Y-92279500D01*
X101899982Y-92279500D01*
X101797203Y-92290000D01*
X101797202Y-92290001D01*
X101714669Y-92317349D01*
X101630667Y-92345185D01*
X101630662Y-92345187D01*
X101481342Y-92437289D01*
X101357289Y-92561342D01*
X101265187Y-92710662D01*
X101265186Y-92710665D01*
X101210001Y-92877202D01*
X101210001Y-92877203D01*
X101210000Y-92877203D01*
X101199500Y-92979982D01*
X99270500Y-92979982D01*
X99270500Y-90649984D01*
X123899500Y-90649984D01*
X123899500Y-92650015D01*
X123910000Y-92752795D01*
X123910001Y-92752797D01*
X123918039Y-92777053D01*
X123965186Y-92919335D01*
X123965187Y-92919337D01*
X124057286Y-93068651D01*
X124057289Y-93068655D01*
X124181344Y-93192710D01*
X124181348Y-93192713D01*
X124330662Y-93284812D01*
X124330664Y-93284813D01*
X124330666Y-93284814D01*
X124497203Y-93339999D01*
X124599992Y-93350500D01*
X124599997Y-93350500D01*
X126600003Y-93350500D01*
X126600008Y-93350500D01*
X126702797Y-93339999D01*
X126869334Y-93284814D01*
X127018655Y-93192711D01*
X127142711Y-93068655D01*
X127234814Y-92919334D01*
X127289999Y-92752797D01*
X127300500Y-92650008D01*
X127300500Y-90649992D01*
X127289999Y-90547203D01*
X127234814Y-90380666D01*
X127142711Y-90231345D01*
X127018655Y-90107289D01*
X127018651Y-90107286D01*
X126869337Y-90015187D01*
X126869335Y-90015186D01*
X126786065Y-89987593D01*
X126702797Y-89960001D01*
X126702795Y-89960000D01*
X126600015Y-89949500D01*
X126600008Y-89949500D01*
X124599992Y-89949500D01*
X124599984Y-89949500D01*
X124497204Y-89960000D01*
X124497203Y-89960001D01*
X124330664Y-90015186D01*
X124330662Y-90015187D01*
X124181348Y-90107286D01*
X124181344Y-90107289D01*
X124057289Y-90231344D01*
X124057286Y-90231348D01*
X123965187Y-90380662D01*
X123965186Y-90380664D01*
X123910001Y-90547203D01*
X123910000Y-90547204D01*
X123899500Y-90649984D01*
X99270500Y-90649984D01*
X99270500Y-88954500D01*
X99290185Y-88887461D01*
X99342989Y-88841706D01*
X99394500Y-88830500D01*
X141145500Y-88830500D01*
X141212539Y-88850185D01*
G37*
G04 #@! TD.AperFunction*
G04 #@! TD*
M02*
