%TF.GenerationSoftware,KiCad,Pcbnew,9.0.7-1.fc43*%
%TF.CreationDate,2026-02-20T23:12:54+05:30*%
%TF.ProjectId,7805 voltage regulator,37383035-2076-46f6-9c74-616765207265,rev?*%
%TF.SameCoordinates,Original*%
%TF.FileFunction,Drillmap*%
%TF.FilePolarity,Positive*%
%FSLAX45Y45*%
G04 Gerber Fmt 4.5, Leading zero omitted, Abs format (unit mm)*
G04 Created by KiCad (PCBNEW 9.0.7-1.fc43) date 2026-02-20 23:12:54*
%MOMM*%
%LPD*%
G01*
G04 APERTURE LIST*
%ADD10C,0.050000*%
%ADD11C,0.200000*%
%ADD12C,0.100000*%
%ADD13C,0.110000*%
%ADD14C,0.120000*%
%ADD15C,0.140000*%
G04 APERTURE END LIST*
D10*
X9877000Y-8833000D02*
X14177000Y-8833000D01*
X14177000Y-10943000D01*
X9877000Y-10943000D01*
X9877000Y-8833000D01*
D11*
D12*
X10020000Y-10560000D02*
X10100000Y-10640000D01*
X10100000Y-10560000D02*
X10020000Y-10640000D01*
X11036000Y-10560000D02*
X11116000Y-10640000D01*
X11116000Y-10560000D02*
X11036000Y-10640000D01*
X11070000Y-9310000D02*
X11150000Y-9390000D01*
X11150000Y-9310000D02*
X11070000Y-9390000D01*
X11320000Y-9310000D02*
X11400000Y-9390000D01*
X11400000Y-9310000D02*
X11320000Y-9390000D01*
X11680510Y-9310000D02*
X11760510Y-9390000D01*
X11760510Y-9310000D02*
X11680510Y-9390000D01*
X11930510Y-9310000D02*
X12010510Y-9390000D01*
X12010510Y-9310000D02*
X11930510Y-9390000D01*
X11421000Y-10600000D02*
G75*
G02*
X11331000Y-10600000I-45000J0D01*
G01*
X11331000Y-10600000D02*
G75*
G02*
X11421000Y-10600000I45000J0D01*
G01*
X11675000Y-10600000D02*
G75*
G02*
X11585000Y-10600000I-45000J0D01*
G01*
X11585000Y-10600000D02*
G75*
G02*
X11675000Y-10600000I45000J0D01*
G01*
D13*
X11362000Y-9895000D02*
X11362000Y-10005000D01*
X11307000Y-9950000D02*
X11417000Y-9950000D01*
X11616000Y-9895000D02*
X11616000Y-10005000D01*
X11561000Y-9950000D02*
X11671000Y-9950000D01*
X11870000Y-9895000D02*
X11870000Y-10005000D01*
X11815000Y-9950000D02*
X11925000Y-9950000D01*
D14*
X12602427Y-9207427D02*
X12602427Y-9122573D01*
X12517573Y-9122573D01*
X12517573Y-9207427D01*
X12602427Y-9207427D01*
X12602427Y-10477427D02*
X12602427Y-10392573D01*
X12517573Y-10392573D01*
X12517573Y-10477427D01*
X12602427Y-10477427D01*
D15*
X10350000Y-9452000D02*
X10420000Y-9382000D01*
X10350000Y-9312000D01*
X10280000Y-9382000D01*
X10350000Y-9452000D01*
X10350000Y-9960000D02*
X10420000Y-9890000D01*
X10350000Y-9820000D01*
X10280000Y-9890000D01*
X10350000Y-9960000D01*
X13530000Y-9542000D02*
X13600000Y-9472000D01*
X13530000Y-9402000D01*
X13460000Y-9472000D01*
X13530000Y-9542000D01*
X13530000Y-10050000D02*
X13600000Y-9980000D01*
X13530000Y-9910000D01*
X13460000Y-9980000D01*
X13530000Y-10050000D01*
D11*
X10135277Y-11256984D02*
X10135277Y-11056984D01*
X10135277Y-11056984D02*
X10182896Y-11056984D01*
X10182896Y-11056984D02*
X10211467Y-11066508D01*
X10211467Y-11066508D02*
X10230515Y-11085555D01*
X10230515Y-11085555D02*
X10240039Y-11104603D01*
X10240039Y-11104603D02*
X10249563Y-11142698D01*
X10249563Y-11142698D02*
X10249563Y-11171270D01*
X10249563Y-11171270D02*
X10240039Y-11209365D01*
X10240039Y-11209365D02*
X10230515Y-11228412D01*
X10230515Y-11228412D02*
X10211467Y-11247460D01*
X10211467Y-11247460D02*
X10182896Y-11256984D01*
X10182896Y-11256984D02*
X10135277Y-11256984D01*
X10335277Y-11256984D02*
X10335277Y-11123650D01*
X10335277Y-11161746D02*
X10344801Y-11142698D01*
X10344801Y-11142698D02*
X10354324Y-11133174D01*
X10354324Y-11133174D02*
X10373372Y-11123650D01*
X10373372Y-11123650D02*
X10392420Y-11123650D01*
X10459086Y-11256984D02*
X10459086Y-11123650D01*
X10459086Y-11056984D02*
X10449563Y-11066508D01*
X10449563Y-11066508D02*
X10459086Y-11076031D01*
X10459086Y-11076031D02*
X10468610Y-11066508D01*
X10468610Y-11066508D02*
X10459086Y-11056984D01*
X10459086Y-11056984D02*
X10459086Y-11076031D01*
X10582896Y-11256984D02*
X10563848Y-11247460D01*
X10563848Y-11247460D02*
X10554324Y-11228412D01*
X10554324Y-11228412D02*
X10554324Y-11056984D01*
X10687658Y-11256984D02*
X10668610Y-11247460D01*
X10668610Y-11247460D02*
X10659086Y-11228412D01*
X10659086Y-11228412D02*
X10659086Y-11056984D01*
X10916229Y-11256984D02*
X10916229Y-11056984D01*
X10916229Y-11056984D02*
X10982896Y-11199841D01*
X10982896Y-11199841D02*
X11049563Y-11056984D01*
X11049563Y-11056984D02*
X11049563Y-11256984D01*
X11230515Y-11256984D02*
X11230515Y-11152222D01*
X11230515Y-11152222D02*
X11220991Y-11133174D01*
X11220991Y-11133174D02*
X11201943Y-11123650D01*
X11201943Y-11123650D02*
X11163848Y-11123650D01*
X11163848Y-11123650D02*
X11144801Y-11133174D01*
X11230515Y-11247460D02*
X11211467Y-11256984D01*
X11211467Y-11256984D02*
X11163848Y-11256984D01*
X11163848Y-11256984D02*
X11144801Y-11247460D01*
X11144801Y-11247460D02*
X11135277Y-11228412D01*
X11135277Y-11228412D02*
X11135277Y-11209365D01*
X11135277Y-11209365D02*
X11144801Y-11190317D01*
X11144801Y-11190317D02*
X11163848Y-11180793D01*
X11163848Y-11180793D02*
X11211467Y-11180793D01*
X11211467Y-11180793D02*
X11230515Y-11171270D01*
X11325753Y-11123650D02*
X11325753Y-11323650D01*
X11325753Y-11133174D02*
X11344801Y-11123650D01*
X11344801Y-11123650D02*
X11382896Y-11123650D01*
X11382896Y-11123650D02*
X11401943Y-11133174D01*
X11401943Y-11133174D02*
X11411467Y-11142698D01*
X11411467Y-11142698D02*
X11420991Y-11161746D01*
X11420991Y-11161746D02*
X11420991Y-11218888D01*
X11420991Y-11218888D02*
X11411467Y-11237936D01*
X11411467Y-11237936D02*
X11401943Y-11247460D01*
X11401943Y-11247460D02*
X11382896Y-11256984D01*
X11382896Y-11256984D02*
X11344801Y-11256984D01*
X11344801Y-11256984D02*
X11325753Y-11247460D01*
X11506705Y-11237936D02*
X11516229Y-11247460D01*
X11516229Y-11247460D02*
X11506705Y-11256984D01*
X11506705Y-11256984D02*
X11497182Y-11247460D01*
X11497182Y-11247460D02*
X11506705Y-11237936D01*
X11506705Y-11237936D02*
X11506705Y-11256984D01*
X11506705Y-11133174D02*
X11516229Y-11142698D01*
X11516229Y-11142698D02*
X11506705Y-11152222D01*
X11506705Y-11152222D02*
X11497182Y-11142698D01*
X11497182Y-11142698D02*
X11506705Y-11133174D01*
X11506705Y-11133174D02*
X11506705Y-11152222D01*
D12*
X9794500Y-11545500D02*
X9874500Y-11625500D01*
X9874500Y-11545500D02*
X9794500Y-11625500D01*
D11*
X10173372Y-11476984D02*
X10192420Y-11476984D01*
X10192420Y-11476984D02*
X10211467Y-11486508D01*
X10211467Y-11486508D02*
X10220991Y-11496031D01*
X10220991Y-11496031D02*
X10230515Y-11515079D01*
X10230515Y-11515079D02*
X10240039Y-11553174D01*
X10240039Y-11553174D02*
X10240039Y-11600793D01*
X10240039Y-11600793D02*
X10230515Y-11638888D01*
X10230515Y-11638888D02*
X10220991Y-11657936D01*
X10220991Y-11657936D02*
X10211467Y-11667460D01*
X10211467Y-11667460D02*
X10192420Y-11676984D01*
X10192420Y-11676984D02*
X10173372Y-11676984D01*
X10173372Y-11676984D02*
X10154324Y-11667460D01*
X10154324Y-11667460D02*
X10144801Y-11657936D01*
X10144801Y-11657936D02*
X10135277Y-11638888D01*
X10135277Y-11638888D02*
X10125753Y-11600793D01*
X10125753Y-11600793D02*
X10125753Y-11553174D01*
X10125753Y-11553174D02*
X10135277Y-11515079D01*
X10135277Y-11515079D02*
X10144801Y-11496031D01*
X10144801Y-11496031D02*
X10154324Y-11486508D01*
X10154324Y-11486508D02*
X10173372Y-11476984D01*
X10325753Y-11657936D02*
X10335277Y-11667460D01*
X10335277Y-11667460D02*
X10325753Y-11676984D01*
X10325753Y-11676984D02*
X10316229Y-11667460D01*
X10316229Y-11667460D02*
X10325753Y-11657936D01*
X10325753Y-11657936D02*
X10325753Y-11676984D01*
X10449563Y-11562698D02*
X10430515Y-11553174D01*
X10430515Y-11553174D02*
X10420991Y-11543650D01*
X10420991Y-11543650D02*
X10411467Y-11524603D01*
X10411467Y-11524603D02*
X10411467Y-11515079D01*
X10411467Y-11515079D02*
X10420991Y-11496031D01*
X10420991Y-11496031D02*
X10430515Y-11486508D01*
X10430515Y-11486508D02*
X10449563Y-11476984D01*
X10449563Y-11476984D02*
X10487658Y-11476984D01*
X10487658Y-11476984D02*
X10506705Y-11486508D01*
X10506705Y-11486508D02*
X10516229Y-11496031D01*
X10516229Y-11496031D02*
X10525753Y-11515079D01*
X10525753Y-11515079D02*
X10525753Y-11524603D01*
X10525753Y-11524603D02*
X10516229Y-11543650D01*
X10516229Y-11543650D02*
X10506705Y-11553174D01*
X10506705Y-11553174D02*
X10487658Y-11562698D01*
X10487658Y-11562698D02*
X10449563Y-11562698D01*
X10449563Y-11562698D02*
X10430515Y-11572222D01*
X10430515Y-11572222D02*
X10420991Y-11581746D01*
X10420991Y-11581746D02*
X10411467Y-11600793D01*
X10411467Y-11600793D02*
X10411467Y-11638888D01*
X10411467Y-11638888D02*
X10420991Y-11657936D01*
X10420991Y-11657936D02*
X10430515Y-11667460D01*
X10430515Y-11667460D02*
X10449563Y-11676984D01*
X10449563Y-11676984D02*
X10487658Y-11676984D01*
X10487658Y-11676984D02*
X10506705Y-11667460D01*
X10506705Y-11667460D02*
X10516229Y-11657936D01*
X10516229Y-11657936D02*
X10525753Y-11638888D01*
X10525753Y-11638888D02*
X10525753Y-11600793D01*
X10525753Y-11600793D02*
X10516229Y-11581746D01*
X10516229Y-11581746D02*
X10506705Y-11572222D01*
X10506705Y-11572222D02*
X10487658Y-11562698D01*
X10649563Y-11476984D02*
X10668610Y-11476984D01*
X10668610Y-11476984D02*
X10687658Y-11486508D01*
X10687658Y-11486508D02*
X10697182Y-11496031D01*
X10697182Y-11496031D02*
X10706705Y-11515079D01*
X10706705Y-11515079D02*
X10716229Y-11553174D01*
X10716229Y-11553174D02*
X10716229Y-11600793D01*
X10716229Y-11600793D02*
X10706705Y-11638888D01*
X10706705Y-11638888D02*
X10697182Y-11657936D01*
X10697182Y-11657936D02*
X10687658Y-11667460D01*
X10687658Y-11667460D02*
X10668610Y-11676984D01*
X10668610Y-11676984D02*
X10649563Y-11676984D01*
X10649563Y-11676984D02*
X10630515Y-11667460D01*
X10630515Y-11667460D02*
X10620991Y-11657936D01*
X10620991Y-11657936D02*
X10611467Y-11638888D01*
X10611467Y-11638888D02*
X10601944Y-11600793D01*
X10601944Y-11600793D02*
X10601944Y-11553174D01*
X10601944Y-11553174D02*
X10611467Y-11515079D01*
X10611467Y-11515079D02*
X10620991Y-11496031D01*
X10620991Y-11496031D02*
X10630515Y-11486508D01*
X10630515Y-11486508D02*
X10649563Y-11476984D01*
X10840039Y-11476984D02*
X10859086Y-11476984D01*
X10859086Y-11476984D02*
X10878134Y-11486508D01*
X10878134Y-11486508D02*
X10887658Y-11496031D01*
X10887658Y-11496031D02*
X10897182Y-11515079D01*
X10897182Y-11515079D02*
X10906705Y-11553174D01*
X10906705Y-11553174D02*
X10906705Y-11600793D01*
X10906705Y-11600793D02*
X10897182Y-11638888D01*
X10897182Y-11638888D02*
X10887658Y-11657936D01*
X10887658Y-11657936D02*
X10878134Y-11667460D01*
X10878134Y-11667460D02*
X10859086Y-11676984D01*
X10859086Y-11676984D02*
X10840039Y-11676984D01*
X10840039Y-11676984D02*
X10820991Y-11667460D01*
X10820991Y-11667460D02*
X10811467Y-11657936D01*
X10811467Y-11657936D02*
X10801944Y-11638888D01*
X10801944Y-11638888D02*
X10792420Y-11600793D01*
X10792420Y-11600793D02*
X10792420Y-11553174D01*
X10792420Y-11553174D02*
X10801944Y-11515079D01*
X10801944Y-11515079D02*
X10811467Y-11496031D01*
X10811467Y-11496031D02*
X10820991Y-11486508D01*
X10820991Y-11486508D02*
X10840039Y-11476984D01*
X10992420Y-11676984D02*
X10992420Y-11543650D01*
X10992420Y-11562698D02*
X11001944Y-11553174D01*
X11001944Y-11553174D02*
X11020991Y-11543650D01*
X11020991Y-11543650D02*
X11049563Y-11543650D01*
X11049563Y-11543650D02*
X11068610Y-11553174D01*
X11068610Y-11553174D02*
X11078134Y-11572222D01*
X11078134Y-11572222D02*
X11078134Y-11676984D01*
X11078134Y-11572222D02*
X11087658Y-11553174D01*
X11087658Y-11553174D02*
X11106705Y-11543650D01*
X11106705Y-11543650D02*
X11135277Y-11543650D01*
X11135277Y-11543650D02*
X11154325Y-11553174D01*
X11154325Y-11553174D02*
X11163848Y-11572222D01*
X11163848Y-11572222D02*
X11163848Y-11676984D01*
X11259086Y-11676984D02*
X11259086Y-11543650D01*
X11259086Y-11562698D02*
X11268610Y-11553174D01*
X11268610Y-11553174D02*
X11287658Y-11543650D01*
X11287658Y-11543650D02*
X11316229Y-11543650D01*
X11316229Y-11543650D02*
X11335277Y-11553174D01*
X11335277Y-11553174D02*
X11344801Y-11572222D01*
X11344801Y-11572222D02*
X11344801Y-11676984D01*
X11344801Y-11572222D02*
X11354324Y-11553174D01*
X11354324Y-11553174D02*
X11373372Y-11543650D01*
X11373372Y-11543650D02*
X11401943Y-11543650D01*
X11401943Y-11543650D02*
X11420991Y-11553174D01*
X11420991Y-11553174D02*
X11430515Y-11572222D01*
X11430515Y-11572222D02*
X11430515Y-11676984D01*
X11820991Y-11467460D02*
X11649563Y-11724603D01*
X12078134Y-11476984D02*
X12097182Y-11476984D01*
X12097182Y-11476984D02*
X12116229Y-11486508D01*
X12116229Y-11486508D02*
X12125753Y-11496031D01*
X12125753Y-11496031D02*
X12135277Y-11515079D01*
X12135277Y-11515079D02*
X12144801Y-11553174D01*
X12144801Y-11553174D02*
X12144801Y-11600793D01*
X12144801Y-11600793D02*
X12135277Y-11638888D01*
X12135277Y-11638888D02*
X12125753Y-11657936D01*
X12125753Y-11657936D02*
X12116229Y-11667460D01*
X12116229Y-11667460D02*
X12097182Y-11676984D01*
X12097182Y-11676984D02*
X12078134Y-11676984D01*
X12078134Y-11676984D02*
X12059086Y-11667460D01*
X12059086Y-11667460D02*
X12049563Y-11657936D01*
X12049563Y-11657936D02*
X12040039Y-11638888D01*
X12040039Y-11638888D02*
X12030515Y-11600793D01*
X12030515Y-11600793D02*
X12030515Y-11553174D01*
X12030515Y-11553174D02*
X12040039Y-11515079D01*
X12040039Y-11515079D02*
X12049563Y-11496031D01*
X12049563Y-11496031D02*
X12059086Y-11486508D01*
X12059086Y-11486508D02*
X12078134Y-11476984D01*
X12230515Y-11657936D02*
X12240039Y-11667460D01*
X12240039Y-11667460D02*
X12230515Y-11676984D01*
X12230515Y-11676984D02*
X12220991Y-11667460D01*
X12220991Y-11667460D02*
X12230515Y-11657936D01*
X12230515Y-11657936D02*
X12230515Y-11676984D01*
X12363848Y-11476984D02*
X12382896Y-11476984D01*
X12382896Y-11476984D02*
X12401944Y-11486508D01*
X12401944Y-11486508D02*
X12411467Y-11496031D01*
X12411467Y-11496031D02*
X12420991Y-11515079D01*
X12420991Y-11515079D02*
X12430515Y-11553174D01*
X12430515Y-11553174D02*
X12430515Y-11600793D01*
X12430515Y-11600793D02*
X12420991Y-11638888D01*
X12420991Y-11638888D02*
X12411467Y-11657936D01*
X12411467Y-11657936D02*
X12401944Y-11667460D01*
X12401944Y-11667460D02*
X12382896Y-11676984D01*
X12382896Y-11676984D02*
X12363848Y-11676984D01*
X12363848Y-11676984D02*
X12344801Y-11667460D01*
X12344801Y-11667460D02*
X12335277Y-11657936D01*
X12335277Y-11657936D02*
X12325753Y-11638888D01*
X12325753Y-11638888D02*
X12316229Y-11600793D01*
X12316229Y-11600793D02*
X12316229Y-11553174D01*
X12316229Y-11553174D02*
X12325753Y-11515079D01*
X12325753Y-11515079D02*
X12335277Y-11496031D01*
X12335277Y-11496031D02*
X12344801Y-11486508D01*
X12344801Y-11486508D02*
X12363848Y-11476984D01*
X12497182Y-11476984D02*
X12620991Y-11476984D01*
X12620991Y-11476984D02*
X12554325Y-11553174D01*
X12554325Y-11553174D02*
X12582896Y-11553174D01*
X12582896Y-11553174D02*
X12601944Y-11562698D01*
X12601944Y-11562698D02*
X12611467Y-11572222D01*
X12611467Y-11572222D02*
X12620991Y-11591269D01*
X12620991Y-11591269D02*
X12620991Y-11638888D01*
X12620991Y-11638888D02*
X12611467Y-11657936D01*
X12611467Y-11657936D02*
X12601944Y-11667460D01*
X12601944Y-11667460D02*
X12582896Y-11676984D01*
X12582896Y-11676984D02*
X12525753Y-11676984D01*
X12525753Y-11676984D02*
X12506706Y-11667460D01*
X12506706Y-11667460D02*
X12497182Y-11657936D01*
X12811467Y-11676984D02*
X12697182Y-11676984D01*
X12754325Y-11676984D02*
X12754325Y-11476984D01*
X12754325Y-11476984D02*
X12735277Y-11505555D01*
X12735277Y-11505555D02*
X12716229Y-11524603D01*
X12716229Y-11524603D02*
X12697182Y-11534127D01*
X12992420Y-11476984D02*
X12897182Y-11476984D01*
X12897182Y-11476984D02*
X12887658Y-11572222D01*
X12887658Y-11572222D02*
X12897182Y-11562698D01*
X12897182Y-11562698D02*
X12916229Y-11553174D01*
X12916229Y-11553174D02*
X12963848Y-11553174D01*
X12963848Y-11553174D02*
X12982896Y-11562698D01*
X12982896Y-11562698D02*
X12992420Y-11572222D01*
X12992420Y-11572222D02*
X13001944Y-11591269D01*
X13001944Y-11591269D02*
X13001944Y-11638888D01*
X13001944Y-11638888D02*
X12992420Y-11657936D01*
X12992420Y-11657936D02*
X12982896Y-11667460D01*
X12982896Y-11667460D02*
X12963848Y-11676984D01*
X12963848Y-11676984D02*
X12916229Y-11676984D01*
X12916229Y-11676984D02*
X12897182Y-11667460D01*
X12897182Y-11667460D02*
X12887658Y-11657936D01*
X13078134Y-11476984D02*
X13078134Y-11515079D01*
X13154325Y-11476984D02*
X13154325Y-11515079D01*
X13449563Y-11753174D02*
X13440039Y-11743650D01*
X13440039Y-11743650D02*
X13420991Y-11715079D01*
X13420991Y-11715079D02*
X13411468Y-11696031D01*
X13411468Y-11696031D02*
X13401944Y-11667460D01*
X13401944Y-11667460D02*
X13392420Y-11619841D01*
X13392420Y-11619841D02*
X13392420Y-11581746D01*
X13392420Y-11581746D02*
X13401944Y-11534127D01*
X13401944Y-11534127D02*
X13411468Y-11505555D01*
X13411468Y-11505555D02*
X13420991Y-11486508D01*
X13420991Y-11486508D02*
X13440039Y-11457936D01*
X13440039Y-11457936D02*
X13449563Y-11448412D01*
X13611468Y-11476984D02*
X13573372Y-11476984D01*
X13573372Y-11476984D02*
X13554325Y-11486508D01*
X13554325Y-11486508D02*
X13544801Y-11496031D01*
X13544801Y-11496031D02*
X13525753Y-11524603D01*
X13525753Y-11524603D02*
X13516229Y-11562698D01*
X13516229Y-11562698D02*
X13516229Y-11638888D01*
X13516229Y-11638888D02*
X13525753Y-11657936D01*
X13525753Y-11657936D02*
X13535277Y-11667460D01*
X13535277Y-11667460D02*
X13554325Y-11676984D01*
X13554325Y-11676984D02*
X13592420Y-11676984D01*
X13592420Y-11676984D02*
X13611468Y-11667460D01*
X13611468Y-11667460D02*
X13620991Y-11657936D01*
X13620991Y-11657936D02*
X13630515Y-11638888D01*
X13630515Y-11638888D02*
X13630515Y-11591269D01*
X13630515Y-11591269D02*
X13620991Y-11572222D01*
X13620991Y-11572222D02*
X13611468Y-11562698D01*
X13611468Y-11562698D02*
X13592420Y-11553174D01*
X13592420Y-11553174D02*
X13554325Y-11553174D01*
X13554325Y-11553174D02*
X13535277Y-11562698D01*
X13535277Y-11562698D02*
X13525753Y-11572222D01*
X13525753Y-11572222D02*
X13516229Y-11591269D01*
X13868610Y-11676984D02*
X13868610Y-11476984D01*
X13954325Y-11676984D02*
X13954325Y-11572222D01*
X13954325Y-11572222D02*
X13944801Y-11553174D01*
X13944801Y-11553174D02*
X13925753Y-11543650D01*
X13925753Y-11543650D02*
X13897182Y-11543650D01*
X13897182Y-11543650D02*
X13878134Y-11553174D01*
X13878134Y-11553174D02*
X13868610Y-11562698D01*
X14078134Y-11676984D02*
X14059087Y-11667460D01*
X14059087Y-11667460D02*
X14049563Y-11657936D01*
X14049563Y-11657936D02*
X14040039Y-11638888D01*
X14040039Y-11638888D02*
X14040039Y-11581746D01*
X14040039Y-11581746D02*
X14049563Y-11562698D01*
X14049563Y-11562698D02*
X14059087Y-11553174D01*
X14059087Y-11553174D02*
X14078134Y-11543650D01*
X14078134Y-11543650D02*
X14106706Y-11543650D01*
X14106706Y-11543650D02*
X14125753Y-11553174D01*
X14125753Y-11553174D02*
X14135277Y-11562698D01*
X14135277Y-11562698D02*
X14144801Y-11581746D01*
X14144801Y-11581746D02*
X14144801Y-11638888D01*
X14144801Y-11638888D02*
X14135277Y-11657936D01*
X14135277Y-11657936D02*
X14125753Y-11667460D01*
X14125753Y-11667460D02*
X14106706Y-11676984D01*
X14106706Y-11676984D02*
X14078134Y-11676984D01*
X14259087Y-11676984D02*
X14240039Y-11667460D01*
X14240039Y-11667460D02*
X14230515Y-11648412D01*
X14230515Y-11648412D02*
X14230515Y-11476984D01*
X14411468Y-11667460D02*
X14392420Y-11676984D01*
X14392420Y-11676984D02*
X14354325Y-11676984D01*
X14354325Y-11676984D02*
X14335277Y-11667460D01*
X14335277Y-11667460D02*
X14325753Y-11648412D01*
X14325753Y-11648412D02*
X14325753Y-11572222D01*
X14325753Y-11572222D02*
X14335277Y-11553174D01*
X14335277Y-11553174D02*
X14354325Y-11543650D01*
X14354325Y-11543650D02*
X14392420Y-11543650D01*
X14392420Y-11543650D02*
X14411468Y-11553174D01*
X14411468Y-11553174D02*
X14420991Y-11572222D01*
X14420991Y-11572222D02*
X14420991Y-11591269D01*
X14420991Y-11591269D02*
X14325753Y-11610317D01*
X14497182Y-11667460D02*
X14516230Y-11676984D01*
X14516230Y-11676984D02*
X14554325Y-11676984D01*
X14554325Y-11676984D02*
X14573372Y-11667460D01*
X14573372Y-11667460D02*
X14582896Y-11648412D01*
X14582896Y-11648412D02*
X14582896Y-11638888D01*
X14582896Y-11638888D02*
X14573372Y-11619841D01*
X14573372Y-11619841D02*
X14554325Y-11610317D01*
X14554325Y-11610317D02*
X14525753Y-11610317D01*
X14525753Y-11610317D02*
X14506706Y-11600793D01*
X14506706Y-11600793D02*
X14497182Y-11581746D01*
X14497182Y-11581746D02*
X14497182Y-11572222D01*
X14497182Y-11572222D02*
X14506706Y-11553174D01*
X14506706Y-11553174D02*
X14525753Y-11543650D01*
X14525753Y-11543650D02*
X14554325Y-11543650D01*
X14554325Y-11543650D02*
X14573372Y-11553174D01*
X14649563Y-11753174D02*
X14659087Y-11743650D01*
X14659087Y-11743650D02*
X14678134Y-11715079D01*
X14678134Y-11715079D02*
X14687658Y-11696031D01*
X14687658Y-11696031D02*
X14697182Y-11667460D01*
X14697182Y-11667460D02*
X14706706Y-11619841D01*
X14706706Y-11619841D02*
X14706706Y-11581746D01*
X14706706Y-11581746D02*
X14697182Y-11534127D01*
X14697182Y-11534127D02*
X14687658Y-11505555D01*
X14687658Y-11505555D02*
X14678134Y-11486508D01*
X14678134Y-11486508D02*
X14659087Y-11457936D01*
X14659087Y-11457936D02*
X14649563Y-11448412D01*
D12*
X9874500Y-11849500D02*
G75*
G02*
X9784500Y-11849500I-45000J0D01*
G01*
X9784500Y-11849500D02*
G75*
G02*
X9874500Y-11849500I45000J0D01*
G01*
D11*
X10173372Y-11740984D02*
X10192420Y-11740984D01*
X10192420Y-11740984D02*
X10211467Y-11750508D01*
X10211467Y-11750508D02*
X10220991Y-11760031D01*
X10220991Y-11760031D02*
X10230515Y-11779079D01*
X10230515Y-11779079D02*
X10240039Y-11817174D01*
X10240039Y-11817174D02*
X10240039Y-11864793D01*
X10240039Y-11864793D02*
X10230515Y-11902888D01*
X10230515Y-11902888D02*
X10220991Y-11921936D01*
X10220991Y-11921936D02*
X10211467Y-11931460D01*
X10211467Y-11931460D02*
X10192420Y-11940984D01*
X10192420Y-11940984D02*
X10173372Y-11940984D01*
X10173372Y-11940984D02*
X10154324Y-11931460D01*
X10154324Y-11931460D02*
X10144801Y-11921936D01*
X10144801Y-11921936D02*
X10135277Y-11902888D01*
X10135277Y-11902888D02*
X10125753Y-11864793D01*
X10125753Y-11864793D02*
X10125753Y-11817174D01*
X10125753Y-11817174D02*
X10135277Y-11779079D01*
X10135277Y-11779079D02*
X10144801Y-11760031D01*
X10144801Y-11760031D02*
X10154324Y-11750508D01*
X10154324Y-11750508D02*
X10173372Y-11740984D01*
X10325753Y-11921936D02*
X10335277Y-11931460D01*
X10335277Y-11931460D02*
X10325753Y-11940984D01*
X10325753Y-11940984D02*
X10316229Y-11931460D01*
X10316229Y-11931460D02*
X10325753Y-11921936D01*
X10325753Y-11921936D02*
X10325753Y-11940984D01*
X10430515Y-11940984D02*
X10468610Y-11940984D01*
X10468610Y-11940984D02*
X10487658Y-11931460D01*
X10487658Y-11931460D02*
X10497182Y-11921936D01*
X10497182Y-11921936D02*
X10516229Y-11893365D01*
X10516229Y-11893365D02*
X10525753Y-11855269D01*
X10525753Y-11855269D02*
X10525753Y-11779079D01*
X10525753Y-11779079D02*
X10516229Y-11760031D01*
X10516229Y-11760031D02*
X10506705Y-11750508D01*
X10506705Y-11750508D02*
X10487658Y-11740984D01*
X10487658Y-11740984D02*
X10449563Y-11740984D01*
X10449563Y-11740984D02*
X10430515Y-11750508D01*
X10430515Y-11750508D02*
X10420991Y-11760031D01*
X10420991Y-11760031D02*
X10411467Y-11779079D01*
X10411467Y-11779079D02*
X10411467Y-11826698D01*
X10411467Y-11826698D02*
X10420991Y-11845746D01*
X10420991Y-11845746D02*
X10430515Y-11855269D01*
X10430515Y-11855269D02*
X10449563Y-11864793D01*
X10449563Y-11864793D02*
X10487658Y-11864793D01*
X10487658Y-11864793D02*
X10506705Y-11855269D01*
X10506705Y-11855269D02*
X10516229Y-11845746D01*
X10516229Y-11845746D02*
X10525753Y-11826698D01*
X10649563Y-11740984D02*
X10668610Y-11740984D01*
X10668610Y-11740984D02*
X10687658Y-11750508D01*
X10687658Y-11750508D02*
X10697182Y-11760031D01*
X10697182Y-11760031D02*
X10706705Y-11779079D01*
X10706705Y-11779079D02*
X10716229Y-11817174D01*
X10716229Y-11817174D02*
X10716229Y-11864793D01*
X10716229Y-11864793D02*
X10706705Y-11902888D01*
X10706705Y-11902888D02*
X10697182Y-11921936D01*
X10697182Y-11921936D02*
X10687658Y-11931460D01*
X10687658Y-11931460D02*
X10668610Y-11940984D01*
X10668610Y-11940984D02*
X10649563Y-11940984D01*
X10649563Y-11940984D02*
X10630515Y-11931460D01*
X10630515Y-11931460D02*
X10620991Y-11921936D01*
X10620991Y-11921936D02*
X10611467Y-11902888D01*
X10611467Y-11902888D02*
X10601944Y-11864793D01*
X10601944Y-11864793D02*
X10601944Y-11817174D01*
X10601944Y-11817174D02*
X10611467Y-11779079D01*
X10611467Y-11779079D02*
X10620991Y-11760031D01*
X10620991Y-11760031D02*
X10630515Y-11750508D01*
X10630515Y-11750508D02*
X10649563Y-11740984D01*
X10840039Y-11740984D02*
X10859086Y-11740984D01*
X10859086Y-11740984D02*
X10878134Y-11750508D01*
X10878134Y-11750508D02*
X10887658Y-11760031D01*
X10887658Y-11760031D02*
X10897182Y-11779079D01*
X10897182Y-11779079D02*
X10906705Y-11817174D01*
X10906705Y-11817174D02*
X10906705Y-11864793D01*
X10906705Y-11864793D02*
X10897182Y-11902888D01*
X10897182Y-11902888D02*
X10887658Y-11921936D01*
X10887658Y-11921936D02*
X10878134Y-11931460D01*
X10878134Y-11931460D02*
X10859086Y-11940984D01*
X10859086Y-11940984D02*
X10840039Y-11940984D01*
X10840039Y-11940984D02*
X10820991Y-11931460D01*
X10820991Y-11931460D02*
X10811467Y-11921936D01*
X10811467Y-11921936D02*
X10801944Y-11902888D01*
X10801944Y-11902888D02*
X10792420Y-11864793D01*
X10792420Y-11864793D02*
X10792420Y-11817174D01*
X10792420Y-11817174D02*
X10801944Y-11779079D01*
X10801944Y-11779079D02*
X10811467Y-11760031D01*
X10811467Y-11760031D02*
X10820991Y-11750508D01*
X10820991Y-11750508D02*
X10840039Y-11740984D01*
X10992420Y-11940984D02*
X10992420Y-11807650D01*
X10992420Y-11826698D02*
X11001944Y-11817174D01*
X11001944Y-11817174D02*
X11020991Y-11807650D01*
X11020991Y-11807650D02*
X11049563Y-11807650D01*
X11049563Y-11807650D02*
X11068610Y-11817174D01*
X11068610Y-11817174D02*
X11078134Y-11836222D01*
X11078134Y-11836222D02*
X11078134Y-11940984D01*
X11078134Y-11836222D02*
X11087658Y-11817174D01*
X11087658Y-11817174D02*
X11106705Y-11807650D01*
X11106705Y-11807650D02*
X11135277Y-11807650D01*
X11135277Y-11807650D02*
X11154325Y-11817174D01*
X11154325Y-11817174D02*
X11163848Y-11836222D01*
X11163848Y-11836222D02*
X11163848Y-11940984D01*
X11259086Y-11940984D02*
X11259086Y-11807650D01*
X11259086Y-11826698D02*
X11268610Y-11817174D01*
X11268610Y-11817174D02*
X11287658Y-11807650D01*
X11287658Y-11807650D02*
X11316229Y-11807650D01*
X11316229Y-11807650D02*
X11335277Y-11817174D01*
X11335277Y-11817174D02*
X11344801Y-11836222D01*
X11344801Y-11836222D02*
X11344801Y-11940984D01*
X11344801Y-11836222D02*
X11354324Y-11817174D01*
X11354324Y-11817174D02*
X11373372Y-11807650D01*
X11373372Y-11807650D02*
X11401943Y-11807650D01*
X11401943Y-11807650D02*
X11420991Y-11817174D01*
X11420991Y-11817174D02*
X11430515Y-11836222D01*
X11430515Y-11836222D02*
X11430515Y-11940984D01*
X11820991Y-11731460D02*
X11649563Y-11988603D01*
X12078134Y-11740984D02*
X12097182Y-11740984D01*
X12097182Y-11740984D02*
X12116229Y-11750508D01*
X12116229Y-11750508D02*
X12125753Y-11760031D01*
X12125753Y-11760031D02*
X12135277Y-11779079D01*
X12135277Y-11779079D02*
X12144801Y-11817174D01*
X12144801Y-11817174D02*
X12144801Y-11864793D01*
X12144801Y-11864793D02*
X12135277Y-11902888D01*
X12135277Y-11902888D02*
X12125753Y-11921936D01*
X12125753Y-11921936D02*
X12116229Y-11931460D01*
X12116229Y-11931460D02*
X12097182Y-11940984D01*
X12097182Y-11940984D02*
X12078134Y-11940984D01*
X12078134Y-11940984D02*
X12059086Y-11931460D01*
X12059086Y-11931460D02*
X12049563Y-11921936D01*
X12049563Y-11921936D02*
X12040039Y-11902888D01*
X12040039Y-11902888D02*
X12030515Y-11864793D01*
X12030515Y-11864793D02*
X12030515Y-11817174D01*
X12030515Y-11817174D02*
X12040039Y-11779079D01*
X12040039Y-11779079D02*
X12049563Y-11760031D01*
X12049563Y-11760031D02*
X12059086Y-11750508D01*
X12059086Y-11750508D02*
X12078134Y-11740984D01*
X12230515Y-11921936D02*
X12240039Y-11931460D01*
X12240039Y-11931460D02*
X12230515Y-11940984D01*
X12230515Y-11940984D02*
X12220991Y-11931460D01*
X12220991Y-11931460D02*
X12230515Y-11921936D01*
X12230515Y-11921936D02*
X12230515Y-11940984D01*
X12363848Y-11740984D02*
X12382896Y-11740984D01*
X12382896Y-11740984D02*
X12401944Y-11750508D01*
X12401944Y-11750508D02*
X12411467Y-11760031D01*
X12411467Y-11760031D02*
X12420991Y-11779079D01*
X12420991Y-11779079D02*
X12430515Y-11817174D01*
X12430515Y-11817174D02*
X12430515Y-11864793D01*
X12430515Y-11864793D02*
X12420991Y-11902888D01*
X12420991Y-11902888D02*
X12411467Y-11921936D01*
X12411467Y-11921936D02*
X12401944Y-11931460D01*
X12401944Y-11931460D02*
X12382896Y-11940984D01*
X12382896Y-11940984D02*
X12363848Y-11940984D01*
X12363848Y-11940984D02*
X12344801Y-11931460D01*
X12344801Y-11931460D02*
X12335277Y-11921936D01*
X12335277Y-11921936D02*
X12325753Y-11902888D01*
X12325753Y-11902888D02*
X12316229Y-11864793D01*
X12316229Y-11864793D02*
X12316229Y-11817174D01*
X12316229Y-11817174D02*
X12325753Y-11779079D01*
X12325753Y-11779079D02*
X12335277Y-11760031D01*
X12335277Y-11760031D02*
X12344801Y-11750508D01*
X12344801Y-11750508D02*
X12363848Y-11740984D01*
X12497182Y-11740984D02*
X12620991Y-11740984D01*
X12620991Y-11740984D02*
X12554325Y-11817174D01*
X12554325Y-11817174D02*
X12582896Y-11817174D01*
X12582896Y-11817174D02*
X12601944Y-11826698D01*
X12601944Y-11826698D02*
X12611467Y-11836222D01*
X12611467Y-11836222D02*
X12620991Y-11855269D01*
X12620991Y-11855269D02*
X12620991Y-11902888D01*
X12620991Y-11902888D02*
X12611467Y-11921936D01*
X12611467Y-11921936D02*
X12601944Y-11931460D01*
X12601944Y-11931460D02*
X12582896Y-11940984D01*
X12582896Y-11940984D02*
X12525753Y-11940984D01*
X12525753Y-11940984D02*
X12506706Y-11931460D01*
X12506706Y-11931460D02*
X12497182Y-11921936D01*
X12801944Y-11740984D02*
X12706706Y-11740984D01*
X12706706Y-11740984D02*
X12697182Y-11836222D01*
X12697182Y-11836222D02*
X12706706Y-11826698D01*
X12706706Y-11826698D02*
X12725753Y-11817174D01*
X12725753Y-11817174D02*
X12773372Y-11817174D01*
X12773372Y-11817174D02*
X12792420Y-11826698D01*
X12792420Y-11826698D02*
X12801944Y-11836222D01*
X12801944Y-11836222D02*
X12811467Y-11855269D01*
X12811467Y-11855269D02*
X12811467Y-11902888D01*
X12811467Y-11902888D02*
X12801944Y-11921936D01*
X12801944Y-11921936D02*
X12792420Y-11931460D01*
X12792420Y-11931460D02*
X12773372Y-11940984D01*
X12773372Y-11940984D02*
X12725753Y-11940984D01*
X12725753Y-11940984D02*
X12706706Y-11931460D01*
X12706706Y-11931460D02*
X12697182Y-11921936D01*
X12982896Y-11807650D02*
X12982896Y-11940984D01*
X12935277Y-11731460D02*
X12887658Y-11874317D01*
X12887658Y-11874317D02*
X13011467Y-11874317D01*
X13078134Y-11740984D02*
X13078134Y-11779079D01*
X13154325Y-11740984D02*
X13154325Y-11779079D01*
X13449563Y-12017174D02*
X13440039Y-12007650D01*
X13440039Y-12007650D02*
X13420991Y-11979079D01*
X13420991Y-11979079D02*
X13411468Y-11960031D01*
X13411468Y-11960031D02*
X13401944Y-11931460D01*
X13401944Y-11931460D02*
X13392420Y-11883841D01*
X13392420Y-11883841D02*
X13392420Y-11845746D01*
X13392420Y-11845746D02*
X13401944Y-11798127D01*
X13401944Y-11798127D02*
X13411468Y-11769555D01*
X13411468Y-11769555D02*
X13420991Y-11750508D01*
X13420991Y-11750508D02*
X13440039Y-11721936D01*
X13440039Y-11721936D02*
X13449563Y-11712412D01*
X13516229Y-11760031D02*
X13525753Y-11750508D01*
X13525753Y-11750508D02*
X13544801Y-11740984D01*
X13544801Y-11740984D02*
X13592420Y-11740984D01*
X13592420Y-11740984D02*
X13611468Y-11750508D01*
X13611468Y-11750508D02*
X13620991Y-11760031D01*
X13620991Y-11760031D02*
X13630515Y-11779079D01*
X13630515Y-11779079D02*
X13630515Y-11798127D01*
X13630515Y-11798127D02*
X13620991Y-11826698D01*
X13620991Y-11826698D02*
X13506706Y-11940984D01*
X13506706Y-11940984D02*
X13630515Y-11940984D01*
X13868610Y-11940984D02*
X13868610Y-11740984D01*
X13954325Y-11940984D02*
X13954325Y-11836222D01*
X13954325Y-11836222D02*
X13944801Y-11817174D01*
X13944801Y-11817174D02*
X13925753Y-11807650D01*
X13925753Y-11807650D02*
X13897182Y-11807650D01*
X13897182Y-11807650D02*
X13878134Y-11817174D01*
X13878134Y-11817174D02*
X13868610Y-11826698D01*
X14078134Y-11940984D02*
X14059087Y-11931460D01*
X14059087Y-11931460D02*
X14049563Y-11921936D01*
X14049563Y-11921936D02*
X14040039Y-11902888D01*
X14040039Y-11902888D02*
X14040039Y-11845746D01*
X14040039Y-11845746D02*
X14049563Y-11826698D01*
X14049563Y-11826698D02*
X14059087Y-11817174D01*
X14059087Y-11817174D02*
X14078134Y-11807650D01*
X14078134Y-11807650D02*
X14106706Y-11807650D01*
X14106706Y-11807650D02*
X14125753Y-11817174D01*
X14125753Y-11817174D02*
X14135277Y-11826698D01*
X14135277Y-11826698D02*
X14144801Y-11845746D01*
X14144801Y-11845746D02*
X14144801Y-11902888D01*
X14144801Y-11902888D02*
X14135277Y-11921936D01*
X14135277Y-11921936D02*
X14125753Y-11931460D01*
X14125753Y-11931460D02*
X14106706Y-11940984D01*
X14106706Y-11940984D02*
X14078134Y-11940984D01*
X14259087Y-11940984D02*
X14240039Y-11931460D01*
X14240039Y-11931460D02*
X14230515Y-11912412D01*
X14230515Y-11912412D02*
X14230515Y-11740984D01*
X14411468Y-11931460D02*
X14392420Y-11940984D01*
X14392420Y-11940984D02*
X14354325Y-11940984D01*
X14354325Y-11940984D02*
X14335277Y-11931460D01*
X14335277Y-11931460D02*
X14325753Y-11912412D01*
X14325753Y-11912412D02*
X14325753Y-11836222D01*
X14325753Y-11836222D02*
X14335277Y-11817174D01*
X14335277Y-11817174D02*
X14354325Y-11807650D01*
X14354325Y-11807650D02*
X14392420Y-11807650D01*
X14392420Y-11807650D02*
X14411468Y-11817174D01*
X14411468Y-11817174D02*
X14420991Y-11836222D01*
X14420991Y-11836222D02*
X14420991Y-11855269D01*
X14420991Y-11855269D02*
X14325753Y-11874317D01*
X14497182Y-11931460D02*
X14516230Y-11940984D01*
X14516230Y-11940984D02*
X14554325Y-11940984D01*
X14554325Y-11940984D02*
X14573372Y-11931460D01*
X14573372Y-11931460D02*
X14582896Y-11912412D01*
X14582896Y-11912412D02*
X14582896Y-11902888D01*
X14582896Y-11902888D02*
X14573372Y-11883841D01*
X14573372Y-11883841D02*
X14554325Y-11874317D01*
X14554325Y-11874317D02*
X14525753Y-11874317D01*
X14525753Y-11874317D02*
X14506706Y-11864793D01*
X14506706Y-11864793D02*
X14497182Y-11845746D01*
X14497182Y-11845746D02*
X14497182Y-11836222D01*
X14497182Y-11836222D02*
X14506706Y-11817174D01*
X14506706Y-11817174D02*
X14525753Y-11807650D01*
X14525753Y-11807650D02*
X14554325Y-11807650D01*
X14554325Y-11807650D02*
X14573372Y-11817174D01*
X14649563Y-12017174D02*
X14659087Y-12007650D01*
X14659087Y-12007650D02*
X14678134Y-11979079D01*
X14678134Y-11979079D02*
X14687658Y-11960031D01*
X14687658Y-11960031D02*
X14697182Y-11931460D01*
X14697182Y-11931460D02*
X14706706Y-11883841D01*
X14706706Y-11883841D02*
X14706706Y-11845746D01*
X14706706Y-11845746D02*
X14697182Y-11798127D01*
X14697182Y-11798127D02*
X14687658Y-11769555D01*
X14687658Y-11769555D02*
X14678134Y-11750508D01*
X14678134Y-11750508D02*
X14659087Y-11721936D01*
X14659087Y-11721936D02*
X14649563Y-11712412D01*
D13*
X9819500Y-12058500D02*
X9819500Y-12168500D01*
X9764500Y-12113500D02*
X9874500Y-12113500D01*
D11*
X10240039Y-12204984D02*
X10125753Y-12204984D01*
X10182896Y-12204984D02*
X10182896Y-12004984D01*
X10182896Y-12004984D02*
X10163848Y-12033555D01*
X10163848Y-12033555D02*
X10144801Y-12052603D01*
X10144801Y-12052603D02*
X10125753Y-12062127D01*
X10325753Y-12185936D02*
X10335277Y-12195460D01*
X10335277Y-12195460D02*
X10325753Y-12204984D01*
X10325753Y-12204984D02*
X10316229Y-12195460D01*
X10316229Y-12195460D02*
X10325753Y-12185936D01*
X10325753Y-12185936D02*
X10325753Y-12204984D01*
X10525753Y-12204984D02*
X10411467Y-12204984D01*
X10468610Y-12204984D02*
X10468610Y-12004984D01*
X10468610Y-12004984D02*
X10449563Y-12033555D01*
X10449563Y-12033555D02*
X10430515Y-12052603D01*
X10430515Y-12052603D02*
X10411467Y-12062127D01*
X10649563Y-12004984D02*
X10668610Y-12004984D01*
X10668610Y-12004984D02*
X10687658Y-12014508D01*
X10687658Y-12014508D02*
X10697182Y-12024031D01*
X10697182Y-12024031D02*
X10706705Y-12043079D01*
X10706705Y-12043079D02*
X10716229Y-12081174D01*
X10716229Y-12081174D02*
X10716229Y-12128793D01*
X10716229Y-12128793D02*
X10706705Y-12166888D01*
X10706705Y-12166888D02*
X10697182Y-12185936D01*
X10697182Y-12185936D02*
X10687658Y-12195460D01*
X10687658Y-12195460D02*
X10668610Y-12204984D01*
X10668610Y-12204984D02*
X10649563Y-12204984D01*
X10649563Y-12204984D02*
X10630515Y-12195460D01*
X10630515Y-12195460D02*
X10620991Y-12185936D01*
X10620991Y-12185936D02*
X10611467Y-12166888D01*
X10611467Y-12166888D02*
X10601944Y-12128793D01*
X10601944Y-12128793D02*
X10601944Y-12081174D01*
X10601944Y-12081174D02*
X10611467Y-12043079D01*
X10611467Y-12043079D02*
X10620991Y-12024031D01*
X10620991Y-12024031D02*
X10630515Y-12014508D01*
X10630515Y-12014508D02*
X10649563Y-12004984D01*
X10840039Y-12004984D02*
X10859086Y-12004984D01*
X10859086Y-12004984D02*
X10878134Y-12014508D01*
X10878134Y-12014508D02*
X10887658Y-12024031D01*
X10887658Y-12024031D02*
X10897182Y-12043079D01*
X10897182Y-12043079D02*
X10906705Y-12081174D01*
X10906705Y-12081174D02*
X10906705Y-12128793D01*
X10906705Y-12128793D02*
X10897182Y-12166888D01*
X10897182Y-12166888D02*
X10887658Y-12185936D01*
X10887658Y-12185936D02*
X10878134Y-12195460D01*
X10878134Y-12195460D02*
X10859086Y-12204984D01*
X10859086Y-12204984D02*
X10840039Y-12204984D01*
X10840039Y-12204984D02*
X10820991Y-12195460D01*
X10820991Y-12195460D02*
X10811467Y-12185936D01*
X10811467Y-12185936D02*
X10801944Y-12166888D01*
X10801944Y-12166888D02*
X10792420Y-12128793D01*
X10792420Y-12128793D02*
X10792420Y-12081174D01*
X10792420Y-12081174D02*
X10801944Y-12043079D01*
X10801944Y-12043079D02*
X10811467Y-12024031D01*
X10811467Y-12024031D02*
X10820991Y-12014508D01*
X10820991Y-12014508D02*
X10840039Y-12004984D01*
X10992420Y-12204984D02*
X10992420Y-12071650D01*
X10992420Y-12090698D02*
X11001944Y-12081174D01*
X11001944Y-12081174D02*
X11020991Y-12071650D01*
X11020991Y-12071650D02*
X11049563Y-12071650D01*
X11049563Y-12071650D02*
X11068610Y-12081174D01*
X11068610Y-12081174D02*
X11078134Y-12100222D01*
X11078134Y-12100222D02*
X11078134Y-12204984D01*
X11078134Y-12100222D02*
X11087658Y-12081174D01*
X11087658Y-12081174D02*
X11106705Y-12071650D01*
X11106705Y-12071650D02*
X11135277Y-12071650D01*
X11135277Y-12071650D02*
X11154325Y-12081174D01*
X11154325Y-12081174D02*
X11163848Y-12100222D01*
X11163848Y-12100222D02*
X11163848Y-12204984D01*
X11259086Y-12204984D02*
X11259086Y-12071650D01*
X11259086Y-12090698D02*
X11268610Y-12081174D01*
X11268610Y-12081174D02*
X11287658Y-12071650D01*
X11287658Y-12071650D02*
X11316229Y-12071650D01*
X11316229Y-12071650D02*
X11335277Y-12081174D01*
X11335277Y-12081174D02*
X11344801Y-12100222D01*
X11344801Y-12100222D02*
X11344801Y-12204984D01*
X11344801Y-12100222D02*
X11354324Y-12081174D01*
X11354324Y-12081174D02*
X11373372Y-12071650D01*
X11373372Y-12071650D02*
X11401943Y-12071650D01*
X11401943Y-12071650D02*
X11420991Y-12081174D01*
X11420991Y-12081174D02*
X11430515Y-12100222D01*
X11430515Y-12100222D02*
X11430515Y-12204984D01*
X11820991Y-11995460D02*
X11649563Y-12252603D01*
X12078134Y-12004984D02*
X12097182Y-12004984D01*
X12097182Y-12004984D02*
X12116229Y-12014508D01*
X12116229Y-12014508D02*
X12125753Y-12024031D01*
X12125753Y-12024031D02*
X12135277Y-12043079D01*
X12135277Y-12043079D02*
X12144801Y-12081174D01*
X12144801Y-12081174D02*
X12144801Y-12128793D01*
X12144801Y-12128793D02*
X12135277Y-12166888D01*
X12135277Y-12166888D02*
X12125753Y-12185936D01*
X12125753Y-12185936D02*
X12116229Y-12195460D01*
X12116229Y-12195460D02*
X12097182Y-12204984D01*
X12097182Y-12204984D02*
X12078134Y-12204984D01*
X12078134Y-12204984D02*
X12059086Y-12195460D01*
X12059086Y-12195460D02*
X12049563Y-12185936D01*
X12049563Y-12185936D02*
X12040039Y-12166888D01*
X12040039Y-12166888D02*
X12030515Y-12128793D01*
X12030515Y-12128793D02*
X12030515Y-12081174D01*
X12030515Y-12081174D02*
X12040039Y-12043079D01*
X12040039Y-12043079D02*
X12049563Y-12024031D01*
X12049563Y-12024031D02*
X12059086Y-12014508D01*
X12059086Y-12014508D02*
X12078134Y-12004984D01*
X12230515Y-12185936D02*
X12240039Y-12195460D01*
X12240039Y-12195460D02*
X12230515Y-12204984D01*
X12230515Y-12204984D02*
X12220991Y-12195460D01*
X12220991Y-12195460D02*
X12230515Y-12185936D01*
X12230515Y-12185936D02*
X12230515Y-12204984D01*
X12363848Y-12004984D02*
X12382896Y-12004984D01*
X12382896Y-12004984D02*
X12401944Y-12014508D01*
X12401944Y-12014508D02*
X12411467Y-12024031D01*
X12411467Y-12024031D02*
X12420991Y-12043079D01*
X12420991Y-12043079D02*
X12430515Y-12081174D01*
X12430515Y-12081174D02*
X12430515Y-12128793D01*
X12430515Y-12128793D02*
X12420991Y-12166888D01*
X12420991Y-12166888D02*
X12411467Y-12185936D01*
X12411467Y-12185936D02*
X12401944Y-12195460D01*
X12401944Y-12195460D02*
X12382896Y-12204984D01*
X12382896Y-12204984D02*
X12363848Y-12204984D01*
X12363848Y-12204984D02*
X12344801Y-12195460D01*
X12344801Y-12195460D02*
X12335277Y-12185936D01*
X12335277Y-12185936D02*
X12325753Y-12166888D01*
X12325753Y-12166888D02*
X12316229Y-12128793D01*
X12316229Y-12128793D02*
X12316229Y-12081174D01*
X12316229Y-12081174D02*
X12325753Y-12043079D01*
X12325753Y-12043079D02*
X12335277Y-12024031D01*
X12335277Y-12024031D02*
X12344801Y-12014508D01*
X12344801Y-12014508D02*
X12363848Y-12004984D01*
X12601944Y-12071650D02*
X12601944Y-12204984D01*
X12554325Y-11995460D02*
X12506706Y-12138317D01*
X12506706Y-12138317D02*
X12630515Y-12138317D01*
X12687658Y-12004984D02*
X12811467Y-12004984D01*
X12811467Y-12004984D02*
X12744801Y-12081174D01*
X12744801Y-12081174D02*
X12773372Y-12081174D01*
X12773372Y-12081174D02*
X12792420Y-12090698D01*
X12792420Y-12090698D02*
X12801944Y-12100222D01*
X12801944Y-12100222D02*
X12811467Y-12119269D01*
X12811467Y-12119269D02*
X12811467Y-12166888D01*
X12811467Y-12166888D02*
X12801944Y-12185936D01*
X12801944Y-12185936D02*
X12792420Y-12195460D01*
X12792420Y-12195460D02*
X12773372Y-12204984D01*
X12773372Y-12204984D02*
X12716229Y-12204984D01*
X12716229Y-12204984D02*
X12697182Y-12195460D01*
X12697182Y-12195460D02*
X12687658Y-12185936D01*
X12878134Y-12004984D02*
X13001944Y-12004984D01*
X13001944Y-12004984D02*
X12935277Y-12081174D01*
X12935277Y-12081174D02*
X12963848Y-12081174D01*
X12963848Y-12081174D02*
X12982896Y-12090698D01*
X12982896Y-12090698D02*
X12992420Y-12100222D01*
X12992420Y-12100222D02*
X13001944Y-12119269D01*
X13001944Y-12119269D02*
X13001944Y-12166888D01*
X13001944Y-12166888D02*
X12992420Y-12185936D01*
X12992420Y-12185936D02*
X12982896Y-12195460D01*
X12982896Y-12195460D02*
X12963848Y-12204984D01*
X12963848Y-12204984D02*
X12906706Y-12204984D01*
X12906706Y-12204984D02*
X12887658Y-12195460D01*
X12887658Y-12195460D02*
X12878134Y-12185936D01*
X13078134Y-12004984D02*
X13078134Y-12043079D01*
X13154325Y-12004984D02*
X13154325Y-12043079D01*
X13449563Y-12281174D02*
X13440039Y-12271650D01*
X13440039Y-12271650D02*
X13420991Y-12243079D01*
X13420991Y-12243079D02*
X13411468Y-12224031D01*
X13411468Y-12224031D02*
X13401944Y-12195460D01*
X13401944Y-12195460D02*
X13392420Y-12147841D01*
X13392420Y-12147841D02*
X13392420Y-12109746D01*
X13392420Y-12109746D02*
X13401944Y-12062127D01*
X13401944Y-12062127D02*
X13411468Y-12033555D01*
X13411468Y-12033555D02*
X13420991Y-12014508D01*
X13420991Y-12014508D02*
X13440039Y-11985936D01*
X13440039Y-11985936D02*
X13449563Y-11976412D01*
X13506706Y-12004984D02*
X13630515Y-12004984D01*
X13630515Y-12004984D02*
X13563848Y-12081174D01*
X13563848Y-12081174D02*
X13592420Y-12081174D01*
X13592420Y-12081174D02*
X13611468Y-12090698D01*
X13611468Y-12090698D02*
X13620991Y-12100222D01*
X13620991Y-12100222D02*
X13630515Y-12119269D01*
X13630515Y-12119269D02*
X13630515Y-12166888D01*
X13630515Y-12166888D02*
X13620991Y-12185936D01*
X13620991Y-12185936D02*
X13611468Y-12195460D01*
X13611468Y-12195460D02*
X13592420Y-12204984D01*
X13592420Y-12204984D02*
X13535277Y-12204984D01*
X13535277Y-12204984D02*
X13516229Y-12195460D01*
X13516229Y-12195460D02*
X13506706Y-12185936D01*
X13868610Y-12204984D02*
X13868610Y-12004984D01*
X13954325Y-12204984D02*
X13954325Y-12100222D01*
X13954325Y-12100222D02*
X13944801Y-12081174D01*
X13944801Y-12081174D02*
X13925753Y-12071650D01*
X13925753Y-12071650D02*
X13897182Y-12071650D01*
X13897182Y-12071650D02*
X13878134Y-12081174D01*
X13878134Y-12081174D02*
X13868610Y-12090698D01*
X14078134Y-12204984D02*
X14059087Y-12195460D01*
X14059087Y-12195460D02*
X14049563Y-12185936D01*
X14049563Y-12185936D02*
X14040039Y-12166888D01*
X14040039Y-12166888D02*
X14040039Y-12109746D01*
X14040039Y-12109746D02*
X14049563Y-12090698D01*
X14049563Y-12090698D02*
X14059087Y-12081174D01*
X14059087Y-12081174D02*
X14078134Y-12071650D01*
X14078134Y-12071650D02*
X14106706Y-12071650D01*
X14106706Y-12071650D02*
X14125753Y-12081174D01*
X14125753Y-12081174D02*
X14135277Y-12090698D01*
X14135277Y-12090698D02*
X14144801Y-12109746D01*
X14144801Y-12109746D02*
X14144801Y-12166888D01*
X14144801Y-12166888D02*
X14135277Y-12185936D01*
X14135277Y-12185936D02*
X14125753Y-12195460D01*
X14125753Y-12195460D02*
X14106706Y-12204984D01*
X14106706Y-12204984D02*
X14078134Y-12204984D01*
X14259087Y-12204984D02*
X14240039Y-12195460D01*
X14240039Y-12195460D02*
X14230515Y-12176412D01*
X14230515Y-12176412D02*
X14230515Y-12004984D01*
X14411468Y-12195460D02*
X14392420Y-12204984D01*
X14392420Y-12204984D02*
X14354325Y-12204984D01*
X14354325Y-12204984D02*
X14335277Y-12195460D01*
X14335277Y-12195460D02*
X14325753Y-12176412D01*
X14325753Y-12176412D02*
X14325753Y-12100222D01*
X14325753Y-12100222D02*
X14335277Y-12081174D01*
X14335277Y-12081174D02*
X14354325Y-12071650D01*
X14354325Y-12071650D02*
X14392420Y-12071650D01*
X14392420Y-12071650D02*
X14411468Y-12081174D01*
X14411468Y-12081174D02*
X14420991Y-12100222D01*
X14420991Y-12100222D02*
X14420991Y-12119269D01*
X14420991Y-12119269D02*
X14325753Y-12138317D01*
X14497182Y-12195460D02*
X14516230Y-12204984D01*
X14516230Y-12204984D02*
X14554325Y-12204984D01*
X14554325Y-12204984D02*
X14573372Y-12195460D01*
X14573372Y-12195460D02*
X14582896Y-12176412D01*
X14582896Y-12176412D02*
X14582896Y-12166888D01*
X14582896Y-12166888D02*
X14573372Y-12147841D01*
X14573372Y-12147841D02*
X14554325Y-12138317D01*
X14554325Y-12138317D02*
X14525753Y-12138317D01*
X14525753Y-12138317D02*
X14506706Y-12128793D01*
X14506706Y-12128793D02*
X14497182Y-12109746D01*
X14497182Y-12109746D02*
X14497182Y-12100222D01*
X14497182Y-12100222D02*
X14506706Y-12081174D01*
X14506706Y-12081174D02*
X14525753Y-12071650D01*
X14525753Y-12071650D02*
X14554325Y-12071650D01*
X14554325Y-12071650D02*
X14573372Y-12081174D01*
X14649563Y-12281174D02*
X14659087Y-12271650D01*
X14659087Y-12271650D02*
X14678134Y-12243079D01*
X14678134Y-12243079D02*
X14687658Y-12224031D01*
X14687658Y-12224031D02*
X14697182Y-12195460D01*
X14697182Y-12195460D02*
X14706706Y-12147841D01*
X14706706Y-12147841D02*
X14706706Y-12109746D01*
X14706706Y-12109746D02*
X14697182Y-12062127D01*
X14697182Y-12062127D02*
X14687658Y-12033555D01*
X14687658Y-12033555D02*
X14678134Y-12014508D01*
X14678134Y-12014508D02*
X14659087Y-11985936D01*
X14659087Y-11985936D02*
X14649563Y-11976412D01*
D14*
X9856927Y-12419927D02*
X9856927Y-12335073D01*
X9772073Y-12335073D01*
X9772073Y-12419927D01*
X9856927Y-12419927D01*
D11*
X10240039Y-12468984D02*
X10125753Y-12468984D01*
X10182896Y-12468984D02*
X10182896Y-12268984D01*
X10182896Y-12268984D02*
X10163848Y-12297555D01*
X10163848Y-12297555D02*
X10144801Y-12316603D01*
X10144801Y-12316603D02*
X10125753Y-12326127D01*
X10325753Y-12449936D02*
X10335277Y-12459460D01*
X10335277Y-12459460D02*
X10325753Y-12468984D01*
X10325753Y-12468984D02*
X10316229Y-12459460D01*
X10316229Y-12459460D02*
X10325753Y-12449936D01*
X10325753Y-12449936D02*
X10325753Y-12468984D01*
X10411467Y-12288031D02*
X10420991Y-12278508D01*
X10420991Y-12278508D02*
X10440039Y-12268984D01*
X10440039Y-12268984D02*
X10487658Y-12268984D01*
X10487658Y-12268984D02*
X10506705Y-12278508D01*
X10506705Y-12278508D02*
X10516229Y-12288031D01*
X10516229Y-12288031D02*
X10525753Y-12307079D01*
X10525753Y-12307079D02*
X10525753Y-12326127D01*
X10525753Y-12326127D02*
X10516229Y-12354698D01*
X10516229Y-12354698D02*
X10401944Y-12468984D01*
X10401944Y-12468984D02*
X10525753Y-12468984D01*
X10649563Y-12268984D02*
X10668610Y-12268984D01*
X10668610Y-12268984D02*
X10687658Y-12278508D01*
X10687658Y-12278508D02*
X10697182Y-12288031D01*
X10697182Y-12288031D02*
X10706705Y-12307079D01*
X10706705Y-12307079D02*
X10716229Y-12345174D01*
X10716229Y-12345174D02*
X10716229Y-12392793D01*
X10716229Y-12392793D02*
X10706705Y-12430888D01*
X10706705Y-12430888D02*
X10697182Y-12449936D01*
X10697182Y-12449936D02*
X10687658Y-12459460D01*
X10687658Y-12459460D02*
X10668610Y-12468984D01*
X10668610Y-12468984D02*
X10649563Y-12468984D01*
X10649563Y-12468984D02*
X10630515Y-12459460D01*
X10630515Y-12459460D02*
X10620991Y-12449936D01*
X10620991Y-12449936D02*
X10611467Y-12430888D01*
X10611467Y-12430888D02*
X10601944Y-12392793D01*
X10601944Y-12392793D02*
X10601944Y-12345174D01*
X10601944Y-12345174D02*
X10611467Y-12307079D01*
X10611467Y-12307079D02*
X10620991Y-12288031D01*
X10620991Y-12288031D02*
X10630515Y-12278508D01*
X10630515Y-12278508D02*
X10649563Y-12268984D01*
X10840039Y-12268984D02*
X10859086Y-12268984D01*
X10859086Y-12268984D02*
X10878134Y-12278508D01*
X10878134Y-12278508D02*
X10887658Y-12288031D01*
X10887658Y-12288031D02*
X10897182Y-12307079D01*
X10897182Y-12307079D02*
X10906705Y-12345174D01*
X10906705Y-12345174D02*
X10906705Y-12392793D01*
X10906705Y-12392793D02*
X10897182Y-12430888D01*
X10897182Y-12430888D02*
X10887658Y-12449936D01*
X10887658Y-12449936D02*
X10878134Y-12459460D01*
X10878134Y-12459460D02*
X10859086Y-12468984D01*
X10859086Y-12468984D02*
X10840039Y-12468984D01*
X10840039Y-12468984D02*
X10820991Y-12459460D01*
X10820991Y-12459460D02*
X10811467Y-12449936D01*
X10811467Y-12449936D02*
X10801944Y-12430888D01*
X10801944Y-12430888D02*
X10792420Y-12392793D01*
X10792420Y-12392793D02*
X10792420Y-12345174D01*
X10792420Y-12345174D02*
X10801944Y-12307079D01*
X10801944Y-12307079D02*
X10811467Y-12288031D01*
X10811467Y-12288031D02*
X10820991Y-12278508D01*
X10820991Y-12278508D02*
X10840039Y-12268984D01*
X10992420Y-12468984D02*
X10992420Y-12335650D01*
X10992420Y-12354698D02*
X11001944Y-12345174D01*
X11001944Y-12345174D02*
X11020991Y-12335650D01*
X11020991Y-12335650D02*
X11049563Y-12335650D01*
X11049563Y-12335650D02*
X11068610Y-12345174D01*
X11068610Y-12345174D02*
X11078134Y-12364222D01*
X11078134Y-12364222D02*
X11078134Y-12468984D01*
X11078134Y-12364222D02*
X11087658Y-12345174D01*
X11087658Y-12345174D02*
X11106705Y-12335650D01*
X11106705Y-12335650D02*
X11135277Y-12335650D01*
X11135277Y-12335650D02*
X11154325Y-12345174D01*
X11154325Y-12345174D02*
X11163848Y-12364222D01*
X11163848Y-12364222D02*
X11163848Y-12468984D01*
X11259086Y-12468984D02*
X11259086Y-12335650D01*
X11259086Y-12354698D02*
X11268610Y-12345174D01*
X11268610Y-12345174D02*
X11287658Y-12335650D01*
X11287658Y-12335650D02*
X11316229Y-12335650D01*
X11316229Y-12335650D02*
X11335277Y-12345174D01*
X11335277Y-12345174D02*
X11344801Y-12364222D01*
X11344801Y-12364222D02*
X11344801Y-12468984D01*
X11344801Y-12364222D02*
X11354324Y-12345174D01*
X11354324Y-12345174D02*
X11373372Y-12335650D01*
X11373372Y-12335650D02*
X11401943Y-12335650D01*
X11401943Y-12335650D02*
X11420991Y-12345174D01*
X11420991Y-12345174D02*
X11430515Y-12364222D01*
X11430515Y-12364222D02*
X11430515Y-12468984D01*
X11820991Y-12259460D02*
X11649563Y-12516603D01*
X12078134Y-12268984D02*
X12097182Y-12268984D01*
X12097182Y-12268984D02*
X12116229Y-12278508D01*
X12116229Y-12278508D02*
X12125753Y-12288031D01*
X12125753Y-12288031D02*
X12135277Y-12307079D01*
X12135277Y-12307079D02*
X12144801Y-12345174D01*
X12144801Y-12345174D02*
X12144801Y-12392793D01*
X12144801Y-12392793D02*
X12135277Y-12430888D01*
X12135277Y-12430888D02*
X12125753Y-12449936D01*
X12125753Y-12449936D02*
X12116229Y-12459460D01*
X12116229Y-12459460D02*
X12097182Y-12468984D01*
X12097182Y-12468984D02*
X12078134Y-12468984D01*
X12078134Y-12468984D02*
X12059086Y-12459460D01*
X12059086Y-12459460D02*
X12049563Y-12449936D01*
X12049563Y-12449936D02*
X12040039Y-12430888D01*
X12040039Y-12430888D02*
X12030515Y-12392793D01*
X12030515Y-12392793D02*
X12030515Y-12345174D01*
X12030515Y-12345174D02*
X12040039Y-12307079D01*
X12040039Y-12307079D02*
X12049563Y-12288031D01*
X12049563Y-12288031D02*
X12059086Y-12278508D01*
X12059086Y-12278508D02*
X12078134Y-12268984D01*
X12230515Y-12449936D02*
X12240039Y-12459460D01*
X12240039Y-12459460D02*
X12230515Y-12468984D01*
X12230515Y-12468984D02*
X12220991Y-12459460D01*
X12220991Y-12459460D02*
X12230515Y-12449936D01*
X12230515Y-12449936D02*
X12230515Y-12468984D01*
X12363848Y-12268984D02*
X12382896Y-12268984D01*
X12382896Y-12268984D02*
X12401944Y-12278508D01*
X12401944Y-12278508D02*
X12411467Y-12288031D01*
X12411467Y-12288031D02*
X12420991Y-12307079D01*
X12420991Y-12307079D02*
X12430515Y-12345174D01*
X12430515Y-12345174D02*
X12430515Y-12392793D01*
X12430515Y-12392793D02*
X12420991Y-12430888D01*
X12420991Y-12430888D02*
X12411467Y-12449936D01*
X12411467Y-12449936D02*
X12401944Y-12459460D01*
X12401944Y-12459460D02*
X12382896Y-12468984D01*
X12382896Y-12468984D02*
X12363848Y-12468984D01*
X12363848Y-12468984D02*
X12344801Y-12459460D01*
X12344801Y-12459460D02*
X12335277Y-12449936D01*
X12335277Y-12449936D02*
X12325753Y-12430888D01*
X12325753Y-12430888D02*
X12316229Y-12392793D01*
X12316229Y-12392793D02*
X12316229Y-12345174D01*
X12316229Y-12345174D02*
X12325753Y-12307079D01*
X12325753Y-12307079D02*
X12335277Y-12288031D01*
X12335277Y-12288031D02*
X12344801Y-12278508D01*
X12344801Y-12278508D02*
X12363848Y-12268984D01*
X12601944Y-12335650D02*
X12601944Y-12468984D01*
X12554325Y-12259460D02*
X12506706Y-12402317D01*
X12506706Y-12402317D02*
X12630515Y-12402317D01*
X12687658Y-12268984D02*
X12820991Y-12268984D01*
X12820991Y-12268984D02*
X12735277Y-12468984D01*
X12887658Y-12288031D02*
X12897182Y-12278508D01*
X12897182Y-12278508D02*
X12916229Y-12268984D01*
X12916229Y-12268984D02*
X12963848Y-12268984D01*
X12963848Y-12268984D02*
X12982896Y-12278508D01*
X12982896Y-12278508D02*
X12992420Y-12288031D01*
X12992420Y-12288031D02*
X13001944Y-12307079D01*
X13001944Y-12307079D02*
X13001944Y-12326127D01*
X13001944Y-12326127D02*
X12992420Y-12354698D01*
X12992420Y-12354698D02*
X12878134Y-12468984D01*
X12878134Y-12468984D02*
X13001944Y-12468984D01*
X13078134Y-12268984D02*
X13078134Y-12307079D01*
X13154325Y-12268984D02*
X13154325Y-12307079D01*
X13449563Y-12545174D02*
X13440039Y-12535650D01*
X13440039Y-12535650D02*
X13420991Y-12507079D01*
X13420991Y-12507079D02*
X13411468Y-12488031D01*
X13411468Y-12488031D02*
X13401944Y-12459460D01*
X13401944Y-12459460D02*
X13392420Y-12411841D01*
X13392420Y-12411841D02*
X13392420Y-12373746D01*
X13392420Y-12373746D02*
X13401944Y-12326127D01*
X13401944Y-12326127D02*
X13411468Y-12297555D01*
X13411468Y-12297555D02*
X13420991Y-12278508D01*
X13420991Y-12278508D02*
X13440039Y-12249936D01*
X13440039Y-12249936D02*
X13449563Y-12240412D01*
X13516229Y-12288031D02*
X13525753Y-12278508D01*
X13525753Y-12278508D02*
X13544801Y-12268984D01*
X13544801Y-12268984D02*
X13592420Y-12268984D01*
X13592420Y-12268984D02*
X13611468Y-12278508D01*
X13611468Y-12278508D02*
X13620991Y-12288031D01*
X13620991Y-12288031D02*
X13630515Y-12307079D01*
X13630515Y-12307079D02*
X13630515Y-12326127D01*
X13630515Y-12326127D02*
X13620991Y-12354698D01*
X13620991Y-12354698D02*
X13506706Y-12468984D01*
X13506706Y-12468984D02*
X13630515Y-12468984D01*
X13868610Y-12468984D02*
X13868610Y-12268984D01*
X13954325Y-12468984D02*
X13954325Y-12364222D01*
X13954325Y-12364222D02*
X13944801Y-12345174D01*
X13944801Y-12345174D02*
X13925753Y-12335650D01*
X13925753Y-12335650D02*
X13897182Y-12335650D01*
X13897182Y-12335650D02*
X13878134Y-12345174D01*
X13878134Y-12345174D02*
X13868610Y-12354698D01*
X14078134Y-12468984D02*
X14059087Y-12459460D01*
X14059087Y-12459460D02*
X14049563Y-12449936D01*
X14049563Y-12449936D02*
X14040039Y-12430888D01*
X14040039Y-12430888D02*
X14040039Y-12373746D01*
X14040039Y-12373746D02*
X14049563Y-12354698D01*
X14049563Y-12354698D02*
X14059087Y-12345174D01*
X14059087Y-12345174D02*
X14078134Y-12335650D01*
X14078134Y-12335650D02*
X14106706Y-12335650D01*
X14106706Y-12335650D02*
X14125753Y-12345174D01*
X14125753Y-12345174D02*
X14135277Y-12354698D01*
X14135277Y-12354698D02*
X14144801Y-12373746D01*
X14144801Y-12373746D02*
X14144801Y-12430888D01*
X14144801Y-12430888D02*
X14135277Y-12449936D01*
X14135277Y-12449936D02*
X14125753Y-12459460D01*
X14125753Y-12459460D02*
X14106706Y-12468984D01*
X14106706Y-12468984D02*
X14078134Y-12468984D01*
X14259087Y-12468984D02*
X14240039Y-12459460D01*
X14240039Y-12459460D02*
X14230515Y-12440412D01*
X14230515Y-12440412D02*
X14230515Y-12268984D01*
X14411468Y-12459460D02*
X14392420Y-12468984D01*
X14392420Y-12468984D02*
X14354325Y-12468984D01*
X14354325Y-12468984D02*
X14335277Y-12459460D01*
X14335277Y-12459460D02*
X14325753Y-12440412D01*
X14325753Y-12440412D02*
X14325753Y-12364222D01*
X14325753Y-12364222D02*
X14335277Y-12345174D01*
X14335277Y-12345174D02*
X14354325Y-12335650D01*
X14354325Y-12335650D02*
X14392420Y-12335650D01*
X14392420Y-12335650D02*
X14411468Y-12345174D01*
X14411468Y-12345174D02*
X14420991Y-12364222D01*
X14420991Y-12364222D02*
X14420991Y-12383269D01*
X14420991Y-12383269D02*
X14325753Y-12402317D01*
X14497182Y-12459460D02*
X14516230Y-12468984D01*
X14516230Y-12468984D02*
X14554325Y-12468984D01*
X14554325Y-12468984D02*
X14573372Y-12459460D01*
X14573372Y-12459460D02*
X14582896Y-12440412D01*
X14582896Y-12440412D02*
X14582896Y-12430888D01*
X14582896Y-12430888D02*
X14573372Y-12411841D01*
X14573372Y-12411841D02*
X14554325Y-12402317D01*
X14554325Y-12402317D02*
X14525753Y-12402317D01*
X14525753Y-12402317D02*
X14506706Y-12392793D01*
X14506706Y-12392793D02*
X14497182Y-12373746D01*
X14497182Y-12373746D02*
X14497182Y-12364222D01*
X14497182Y-12364222D02*
X14506706Y-12345174D01*
X14506706Y-12345174D02*
X14525753Y-12335650D01*
X14525753Y-12335650D02*
X14554325Y-12335650D01*
X14554325Y-12335650D02*
X14573372Y-12345174D01*
X14649563Y-12545174D02*
X14659087Y-12535650D01*
X14659087Y-12535650D02*
X14678134Y-12507079D01*
X14678134Y-12507079D02*
X14687658Y-12488031D01*
X14687658Y-12488031D02*
X14697182Y-12459460D01*
X14697182Y-12459460D02*
X14706706Y-12411841D01*
X14706706Y-12411841D02*
X14706706Y-12373746D01*
X14706706Y-12373746D02*
X14697182Y-12326127D01*
X14697182Y-12326127D02*
X14687658Y-12297555D01*
X14687658Y-12297555D02*
X14678134Y-12278508D01*
X14678134Y-12278508D02*
X14659087Y-12249936D01*
X14659087Y-12249936D02*
X14649563Y-12240412D01*
D15*
X9804500Y-12711500D02*
X9874500Y-12641500D01*
X9804500Y-12571500D01*
X9734500Y-12641500D01*
X9804500Y-12711500D01*
D11*
X10240039Y-12732984D02*
X10125753Y-12732984D01*
X10182896Y-12732984D02*
X10182896Y-12532984D01*
X10182896Y-12532984D02*
X10163848Y-12561555D01*
X10163848Y-12561555D02*
X10144801Y-12580603D01*
X10144801Y-12580603D02*
X10125753Y-12590127D01*
X10325753Y-12713936D02*
X10335277Y-12723460D01*
X10335277Y-12723460D02*
X10325753Y-12732984D01*
X10325753Y-12732984D02*
X10316229Y-12723460D01*
X10316229Y-12723460D02*
X10325753Y-12713936D01*
X10325753Y-12713936D02*
X10325753Y-12732984D01*
X10506705Y-12599650D02*
X10506705Y-12732984D01*
X10459086Y-12523460D02*
X10411467Y-12666317D01*
X10411467Y-12666317D02*
X10535277Y-12666317D01*
X10649563Y-12532984D02*
X10668610Y-12532984D01*
X10668610Y-12532984D02*
X10687658Y-12542508D01*
X10687658Y-12542508D02*
X10697182Y-12552031D01*
X10697182Y-12552031D02*
X10706705Y-12571079D01*
X10706705Y-12571079D02*
X10716229Y-12609174D01*
X10716229Y-12609174D02*
X10716229Y-12656793D01*
X10716229Y-12656793D02*
X10706705Y-12694888D01*
X10706705Y-12694888D02*
X10697182Y-12713936D01*
X10697182Y-12713936D02*
X10687658Y-12723460D01*
X10687658Y-12723460D02*
X10668610Y-12732984D01*
X10668610Y-12732984D02*
X10649563Y-12732984D01*
X10649563Y-12732984D02*
X10630515Y-12723460D01*
X10630515Y-12723460D02*
X10620991Y-12713936D01*
X10620991Y-12713936D02*
X10611467Y-12694888D01*
X10611467Y-12694888D02*
X10601944Y-12656793D01*
X10601944Y-12656793D02*
X10601944Y-12609174D01*
X10601944Y-12609174D02*
X10611467Y-12571079D01*
X10611467Y-12571079D02*
X10620991Y-12552031D01*
X10620991Y-12552031D02*
X10630515Y-12542508D01*
X10630515Y-12542508D02*
X10649563Y-12532984D01*
X10840039Y-12532984D02*
X10859086Y-12532984D01*
X10859086Y-12532984D02*
X10878134Y-12542508D01*
X10878134Y-12542508D02*
X10887658Y-12552031D01*
X10887658Y-12552031D02*
X10897182Y-12571079D01*
X10897182Y-12571079D02*
X10906705Y-12609174D01*
X10906705Y-12609174D02*
X10906705Y-12656793D01*
X10906705Y-12656793D02*
X10897182Y-12694888D01*
X10897182Y-12694888D02*
X10887658Y-12713936D01*
X10887658Y-12713936D02*
X10878134Y-12723460D01*
X10878134Y-12723460D02*
X10859086Y-12732984D01*
X10859086Y-12732984D02*
X10840039Y-12732984D01*
X10840039Y-12732984D02*
X10820991Y-12723460D01*
X10820991Y-12723460D02*
X10811467Y-12713936D01*
X10811467Y-12713936D02*
X10801944Y-12694888D01*
X10801944Y-12694888D02*
X10792420Y-12656793D01*
X10792420Y-12656793D02*
X10792420Y-12609174D01*
X10792420Y-12609174D02*
X10801944Y-12571079D01*
X10801944Y-12571079D02*
X10811467Y-12552031D01*
X10811467Y-12552031D02*
X10820991Y-12542508D01*
X10820991Y-12542508D02*
X10840039Y-12532984D01*
X10992420Y-12732984D02*
X10992420Y-12599650D01*
X10992420Y-12618698D02*
X11001944Y-12609174D01*
X11001944Y-12609174D02*
X11020991Y-12599650D01*
X11020991Y-12599650D02*
X11049563Y-12599650D01*
X11049563Y-12599650D02*
X11068610Y-12609174D01*
X11068610Y-12609174D02*
X11078134Y-12628222D01*
X11078134Y-12628222D02*
X11078134Y-12732984D01*
X11078134Y-12628222D02*
X11087658Y-12609174D01*
X11087658Y-12609174D02*
X11106705Y-12599650D01*
X11106705Y-12599650D02*
X11135277Y-12599650D01*
X11135277Y-12599650D02*
X11154325Y-12609174D01*
X11154325Y-12609174D02*
X11163848Y-12628222D01*
X11163848Y-12628222D02*
X11163848Y-12732984D01*
X11259086Y-12732984D02*
X11259086Y-12599650D01*
X11259086Y-12618698D02*
X11268610Y-12609174D01*
X11268610Y-12609174D02*
X11287658Y-12599650D01*
X11287658Y-12599650D02*
X11316229Y-12599650D01*
X11316229Y-12599650D02*
X11335277Y-12609174D01*
X11335277Y-12609174D02*
X11344801Y-12628222D01*
X11344801Y-12628222D02*
X11344801Y-12732984D01*
X11344801Y-12628222D02*
X11354324Y-12609174D01*
X11354324Y-12609174D02*
X11373372Y-12599650D01*
X11373372Y-12599650D02*
X11401943Y-12599650D01*
X11401943Y-12599650D02*
X11420991Y-12609174D01*
X11420991Y-12609174D02*
X11430515Y-12628222D01*
X11430515Y-12628222D02*
X11430515Y-12732984D01*
X11820991Y-12523460D02*
X11649563Y-12780603D01*
X12078134Y-12532984D02*
X12097182Y-12532984D01*
X12097182Y-12532984D02*
X12116229Y-12542508D01*
X12116229Y-12542508D02*
X12125753Y-12552031D01*
X12125753Y-12552031D02*
X12135277Y-12571079D01*
X12135277Y-12571079D02*
X12144801Y-12609174D01*
X12144801Y-12609174D02*
X12144801Y-12656793D01*
X12144801Y-12656793D02*
X12135277Y-12694888D01*
X12135277Y-12694888D02*
X12125753Y-12713936D01*
X12125753Y-12713936D02*
X12116229Y-12723460D01*
X12116229Y-12723460D02*
X12097182Y-12732984D01*
X12097182Y-12732984D02*
X12078134Y-12732984D01*
X12078134Y-12732984D02*
X12059086Y-12723460D01*
X12059086Y-12723460D02*
X12049563Y-12713936D01*
X12049563Y-12713936D02*
X12040039Y-12694888D01*
X12040039Y-12694888D02*
X12030515Y-12656793D01*
X12030515Y-12656793D02*
X12030515Y-12609174D01*
X12030515Y-12609174D02*
X12040039Y-12571079D01*
X12040039Y-12571079D02*
X12049563Y-12552031D01*
X12049563Y-12552031D02*
X12059086Y-12542508D01*
X12059086Y-12542508D02*
X12078134Y-12532984D01*
X12230515Y-12713936D02*
X12240039Y-12723460D01*
X12240039Y-12723460D02*
X12230515Y-12732984D01*
X12230515Y-12732984D02*
X12220991Y-12723460D01*
X12220991Y-12723460D02*
X12230515Y-12713936D01*
X12230515Y-12713936D02*
X12230515Y-12732984D01*
X12363848Y-12532984D02*
X12382896Y-12532984D01*
X12382896Y-12532984D02*
X12401944Y-12542508D01*
X12401944Y-12542508D02*
X12411467Y-12552031D01*
X12411467Y-12552031D02*
X12420991Y-12571079D01*
X12420991Y-12571079D02*
X12430515Y-12609174D01*
X12430515Y-12609174D02*
X12430515Y-12656793D01*
X12430515Y-12656793D02*
X12420991Y-12694888D01*
X12420991Y-12694888D02*
X12411467Y-12713936D01*
X12411467Y-12713936D02*
X12401944Y-12723460D01*
X12401944Y-12723460D02*
X12382896Y-12732984D01*
X12382896Y-12732984D02*
X12363848Y-12732984D01*
X12363848Y-12732984D02*
X12344801Y-12723460D01*
X12344801Y-12723460D02*
X12335277Y-12713936D01*
X12335277Y-12713936D02*
X12325753Y-12694888D01*
X12325753Y-12694888D02*
X12316229Y-12656793D01*
X12316229Y-12656793D02*
X12316229Y-12609174D01*
X12316229Y-12609174D02*
X12325753Y-12571079D01*
X12325753Y-12571079D02*
X12335277Y-12552031D01*
X12335277Y-12552031D02*
X12344801Y-12542508D01*
X12344801Y-12542508D02*
X12363848Y-12532984D01*
X12611467Y-12532984D02*
X12516229Y-12532984D01*
X12516229Y-12532984D02*
X12506706Y-12628222D01*
X12506706Y-12628222D02*
X12516229Y-12618698D01*
X12516229Y-12618698D02*
X12535277Y-12609174D01*
X12535277Y-12609174D02*
X12582896Y-12609174D01*
X12582896Y-12609174D02*
X12601944Y-12618698D01*
X12601944Y-12618698D02*
X12611467Y-12628222D01*
X12611467Y-12628222D02*
X12620991Y-12647269D01*
X12620991Y-12647269D02*
X12620991Y-12694888D01*
X12620991Y-12694888D02*
X12611467Y-12713936D01*
X12611467Y-12713936D02*
X12601944Y-12723460D01*
X12601944Y-12723460D02*
X12582896Y-12732984D01*
X12582896Y-12732984D02*
X12535277Y-12732984D01*
X12535277Y-12732984D02*
X12516229Y-12723460D01*
X12516229Y-12723460D02*
X12506706Y-12713936D01*
X12801944Y-12532984D02*
X12706706Y-12532984D01*
X12706706Y-12532984D02*
X12697182Y-12628222D01*
X12697182Y-12628222D02*
X12706706Y-12618698D01*
X12706706Y-12618698D02*
X12725753Y-12609174D01*
X12725753Y-12609174D02*
X12773372Y-12609174D01*
X12773372Y-12609174D02*
X12792420Y-12618698D01*
X12792420Y-12618698D02*
X12801944Y-12628222D01*
X12801944Y-12628222D02*
X12811467Y-12647269D01*
X12811467Y-12647269D02*
X12811467Y-12694888D01*
X12811467Y-12694888D02*
X12801944Y-12713936D01*
X12801944Y-12713936D02*
X12792420Y-12723460D01*
X12792420Y-12723460D02*
X12773372Y-12732984D01*
X12773372Y-12732984D02*
X12725753Y-12732984D01*
X12725753Y-12732984D02*
X12706706Y-12723460D01*
X12706706Y-12723460D02*
X12697182Y-12713936D01*
X13001944Y-12732984D02*
X12887658Y-12732984D01*
X12944801Y-12732984D02*
X12944801Y-12532984D01*
X12944801Y-12532984D02*
X12925753Y-12561555D01*
X12925753Y-12561555D02*
X12906706Y-12580603D01*
X12906706Y-12580603D02*
X12887658Y-12590127D01*
X13078134Y-12532984D02*
X13078134Y-12571079D01*
X13154325Y-12532984D02*
X13154325Y-12571079D01*
X13449563Y-12809174D02*
X13440039Y-12799650D01*
X13440039Y-12799650D02*
X13420991Y-12771079D01*
X13420991Y-12771079D02*
X13411468Y-12752031D01*
X13411468Y-12752031D02*
X13401944Y-12723460D01*
X13401944Y-12723460D02*
X13392420Y-12675841D01*
X13392420Y-12675841D02*
X13392420Y-12637746D01*
X13392420Y-12637746D02*
X13401944Y-12590127D01*
X13401944Y-12590127D02*
X13411468Y-12561555D01*
X13411468Y-12561555D02*
X13420991Y-12542508D01*
X13420991Y-12542508D02*
X13440039Y-12513936D01*
X13440039Y-12513936D02*
X13449563Y-12504412D01*
X13611468Y-12599650D02*
X13611468Y-12732984D01*
X13563848Y-12523460D02*
X13516229Y-12666317D01*
X13516229Y-12666317D02*
X13640039Y-12666317D01*
X13868610Y-12732984D02*
X13868610Y-12532984D01*
X13954325Y-12732984D02*
X13954325Y-12628222D01*
X13954325Y-12628222D02*
X13944801Y-12609174D01*
X13944801Y-12609174D02*
X13925753Y-12599650D01*
X13925753Y-12599650D02*
X13897182Y-12599650D01*
X13897182Y-12599650D02*
X13878134Y-12609174D01*
X13878134Y-12609174D02*
X13868610Y-12618698D01*
X14078134Y-12732984D02*
X14059087Y-12723460D01*
X14059087Y-12723460D02*
X14049563Y-12713936D01*
X14049563Y-12713936D02*
X14040039Y-12694888D01*
X14040039Y-12694888D02*
X14040039Y-12637746D01*
X14040039Y-12637746D02*
X14049563Y-12618698D01*
X14049563Y-12618698D02*
X14059087Y-12609174D01*
X14059087Y-12609174D02*
X14078134Y-12599650D01*
X14078134Y-12599650D02*
X14106706Y-12599650D01*
X14106706Y-12599650D02*
X14125753Y-12609174D01*
X14125753Y-12609174D02*
X14135277Y-12618698D01*
X14135277Y-12618698D02*
X14144801Y-12637746D01*
X14144801Y-12637746D02*
X14144801Y-12694888D01*
X14144801Y-12694888D02*
X14135277Y-12713936D01*
X14135277Y-12713936D02*
X14125753Y-12723460D01*
X14125753Y-12723460D02*
X14106706Y-12732984D01*
X14106706Y-12732984D02*
X14078134Y-12732984D01*
X14259087Y-12732984D02*
X14240039Y-12723460D01*
X14240039Y-12723460D02*
X14230515Y-12704412D01*
X14230515Y-12704412D02*
X14230515Y-12532984D01*
X14411468Y-12723460D02*
X14392420Y-12732984D01*
X14392420Y-12732984D02*
X14354325Y-12732984D01*
X14354325Y-12732984D02*
X14335277Y-12723460D01*
X14335277Y-12723460D02*
X14325753Y-12704412D01*
X14325753Y-12704412D02*
X14325753Y-12628222D01*
X14325753Y-12628222D02*
X14335277Y-12609174D01*
X14335277Y-12609174D02*
X14354325Y-12599650D01*
X14354325Y-12599650D02*
X14392420Y-12599650D01*
X14392420Y-12599650D02*
X14411468Y-12609174D01*
X14411468Y-12609174D02*
X14420991Y-12628222D01*
X14420991Y-12628222D02*
X14420991Y-12647269D01*
X14420991Y-12647269D02*
X14325753Y-12666317D01*
X14497182Y-12723460D02*
X14516230Y-12732984D01*
X14516230Y-12732984D02*
X14554325Y-12732984D01*
X14554325Y-12732984D02*
X14573372Y-12723460D01*
X14573372Y-12723460D02*
X14582896Y-12704412D01*
X14582896Y-12704412D02*
X14582896Y-12694888D01*
X14582896Y-12694888D02*
X14573372Y-12675841D01*
X14573372Y-12675841D02*
X14554325Y-12666317D01*
X14554325Y-12666317D02*
X14525753Y-12666317D01*
X14525753Y-12666317D02*
X14506706Y-12656793D01*
X14506706Y-12656793D02*
X14497182Y-12637746D01*
X14497182Y-12637746D02*
X14497182Y-12628222D01*
X14497182Y-12628222D02*
X14506706Y-12609174D01*
X14506706Y-12609174D02*
X14525753Y-12599650D01*
X14525753Y-12599650D02*
X14554325Y-12599650D01*
X14554325Y-12599650D02*
X14573372Y-12609174D01*
X14649563Y-12809174D02*
X14659087Y-12799650D01*
X14659087Y-12799650D02*
X14678134Y-12771079D01*
X14678134Y-12771079D02*
X14687658Y-12752031D01*
X14687658Y-12752031D02*
X14697182Y-12723460D01*
X14697182Y-12723460D02*
X14706706Y-12675841D01*
X14706706Y-12675841D02*
X14706706Y-12637746D01*
X14706706Y-12637746D02*
X14697182Y-12590127D01*
X14697182Y-12590127D02*
X14687658Y-12561555D01*
X14687658Y-12561555D02*
X14678134Y-12542508D01*
X14678134Y-12542508D02*
X14659087Y-12513936D01*
X14659087Y-12513936D02*
X14649563Y-12504412D01*
M02*
